  0
SECTION
  2
BLOCKS
  0
ENDSEC
  0
SECTION
  2
ENTITIES
  0
LINE
  8
0
 10
15.1509
 20
203.01
 11
21.3019
 21
203.01
  0
LINE
  8
0
 10
21.3019
 20
203.01
 11
21.3019
 21
200.01
  0
LINE
  8
0
 10
21.3019
 20
200.01
 11
27.4528
 21
200.01
  0
LINE
  8
0
 10
27.4528
 20
200.01
 11
27.4528
 21
203.01
  0
LINE
  8
0
 10
27.4528
 20
203.01
 11
33.6038
 21
203.01
  0
LINE
  8
0
 10
33.6038
 20
203.01
 11
33.6038
 21
200.01
  0
LINE
  8
0
 10
33.6038
 20
200.01
 11
39.7547
 21
200.01
  0
LINE
  8
0
 10
39.7547
 20
200.01
 11
39.7547
 21
203.01
  0
LINE
  8
0
 10
39.7547
 20
203.01
 11
45.9057
 21
203.01
  0
LINE
  8
0
 10
45.9057
 20
203.01
 11
45.9057
 21
200.01
  0
LINE
  8
0
 10
45.9057
 20
200.01
 11
52.0566
 21
200.01
  0
LINE
  8
0
 10
52.0566
 20
200.01
 11
52.0566
 21
203.01
  0
LINE
  8
0
 10
52.0566
 20
203.01
 11
58.2075
 21
203.01
  0
LINE
  8
0
 10
58.2075
 20
203.01
 11
58.2075
 21
200.01
  0
LINE
  8
0
 10
58.2075
 20
200.01
 11
64.3585
 21
200.01
  0
LINE
  8
0
 10
64.3585
 20
200.01
 11
64.3585
 21
203.01
  0
LINE
  8
0
 10
64.3585
 20
203.01
 11
70.5094
 21
203.01
  0
LINE
  8
0
 10
70.5094
 20
203.01
 11
70.5094
 21
200.01
  0
LINE
  8
0
 10
70.5094
 20
200.01
 11
76.6604
 21
200.01
  0
LINE
  8
0
 10
76.6604
 20
200.01
 11
76.6604
 21
203.01
  0
LINE
  8
0
 10
76.6604
 20
203.01
 11
82.8113
 21
203.01
  0
LINE
  8
0
 10
82.8113
 20
203.01
 11
82.8113
 21
200.01
  0
LINE
  8
0
 10
82.8113
 20
200.01
 11
88.9622
 21
200.01
  0
LINE
  8
0
 10
88.9622
 20
200.01
 11
88.9622
 21
203.01
  0
LINE
  8
0
 10
88.9622
 20
203.01
 11
95.1132
 21
203.01
  0
LINE
  8
0
 10
95.1132
 20
203.01
 11
95.1132
 21
200.01
  0
LINE
  8
0
 10
95.1132
 20
200.01
 11
101.264
 21
200.01
  0
LINE
  8
0
 10
101.264
 20
200.01
 11
101.264
 21
203.01
  0
LINE
  8
0
 10
101.264
 20
203.01
 11
107.415
 21
203.01
  0
LINE
  8
0
 10
107.415
 20
203.01
 11
107.415
 21
200.01
  0
LINE
  8
0
 10
107.415
 20
200.01
 11
113.566
 21
200.01
  0
LINE
  8
0
 10
113.566
 20
200.01
 11
113.566
 21
203.01
  0
LINE
  8
0
 10
113.566
 20
203.01
 11
119.717
 21
203.01
  0
LINE
  8
0
 10
119.717
 20
203.01
 11
119.717
 21
200.01
  0
LINE
  8
0
 10
119.717
 20
200.01
 11
125.868
 21
200.01
  0
LINE
  8
0
 10
125.868
 20
200.01
 11
125.868
 21
203.01
  0
LINE
  8
0
 10
125.868
 20
203.01
 11
132.019
 21
203.01
  0
LINE
  8
0
 10
132.019
 20
203.01
 11
132.019
 21
200.01
  0
LINE
  8
0
 10
132.019
 20
200.01
 11
138.17
 21
200.01
  0
LINE
  8
0
 10
138.17
 20
200.01
 11
138.17
 21
203.01
  0
LINE
  8
0
 10
138.17
 20
203.01
 11
144.321
 21
203.01
  0
LINE
  8
0
 10
144.321
 20
203.01
 11
144.321
 21
200.01
  0
LINE
  8
0
 10
144.321
 20
200.01
 11
150.472
 21
200.01
  0
LINE
  8
0
 10
150.472
 20
200.01
 11
150.472
 21
203.01
  0
LINE
  8
0
 10
150.472
 20
203.01
 11
156.623
 21
203.01
  0
LINE
  8
0
 10
156.623
 20
203.01
 11
156.623
 21
200.01
  0
LINE
  8
0
 10
156.623
 20
200.01
 11
162.774
 21
200.01
  0
LINE
  8
0
 10
162.774
 20
200.01
 11
162.774
 21
203.01
  0
LINE
  8
0
 10
162.774
 20
203.01
 11
168.925
 21
203.01
  0
LINE
  8
0
 10
168.925
 20
203.01
 11
168.925
 21
200.01
  0
LINE
  8
0
 10
168.925
 20
200.01
 11
175.075
 21
200.01
  0
LINE
  8
0
 10
175.075
 20
200.01
 11
175.075
 21
203.01
  0
LINE
  8
0
 10
175.075
 20
203.01
 11
181.226
 21
203.01
  0
LINE
  8
0
 10
181.226
 20
203.01
 11
181.226
 21
200.01
  0
LINE
  8
0
 10
181.226
 20
200.01
 11
187.377
 21
200.01
  0
LINE
  8
0
 10
187.377
 20
200.01
 11
187.377
 21
203.01
  0
LINE
  8
0
 10
187.377
 20
203.01
 11
193.528
 21
203.01
  0
LINE
  8
0
 10
193.528
 20
203.01
 11
193.528
 21
200.01
  0
LINE
  8
0
 10
193.528
 20
200.01
 11
199.679
 21
200.01
  0
LINE
  8
0
 10
199.679
 20
200.01
 11
199.679
 21
203.01
  0
LINE
  8
0
 10
199.679
 20
203.01
 11
205.83
 21
203.01
  0
LINE
  8
0
 10
205.83
 20
203.01
 11
205.83
 21
200.01
  0
LINE
  8
0
 10
205.83
 20
200.01
 11
211.981
 21
200.01
  0
LINE
  8
0
 10
211.981
 20
200.01
 11
211.981
 21
203.01
  0
LINE
  8
0
 10
211.981
 20
203.01
 11
218.132
 21
203.01
  0
LINE
  8
0
 10
218.132
 20
203.01
 11
218.132
 21
200.01
  0
LINE
  8
0
 10
218.132
 20
200.01
 11
224.283
 21
200.01
  0
LINE
  8
0
 10
224.283
 20
200.01
 11
224.283
 21
203.01
  0
LINE
  8
0
 10
224.283
 20
203.01
 11
230.434
 21
203.01
  0
LINE
  8
0
 10
230.434
 20
203.01
 11
230.434
 21
200.01
  0
LINE
  8
0
 10
230.434
 20
200.01
 11
236.585
 21
200.01
  0
LINE
  8
0
 10
236.585
 20
200.01
 11
236.585
 21
203.01
  0
LINE
  8
0
 10
236.585
 20
203.01
 11
242.736
 21
203.01
  0
LINE
  8
0
 10
242.736
 20
203.01
 11
242.736
 21
200.01
  0
LINE
  8
0
 10
242.736
 20
200.01
 11
248.887
 21
200.01
  0
LINE
  8
0
 10
248.887
 20
200.01
 11
248.887
 21
203.01
  0
LINE
  8
0
 10
248.887
 20
203.01
 11
255.038
 21
203.01
  0
LINE
  8
0
 10
255.038
 20
203.01
 11
255.038
 21
200.01
  0
LINE
  8
0
 10
255.038
 20
200.01
 11
261.189
 21
200.01
  0
LINE
  8
0
 10
261.189
 20
200.01
 11
261.189
 21
203.01
  0
LINE
  8
0
 10
261.189
 20
203.01
 11
267.34
 21
203.01
  0
LINE
  8
0
 10
267.34
 20
203.01
 11
267.34
 21
200.01
  0
LINE
  8
0
 10
267.34
 20
200.01
 11
273.491
 21
200.01
  0
LINE
  8
0
 10
273.491
 20
200.01
 11
273.491
 21
203.01
  0
LINE
  8
0
 10
273.491
 20
203.01
 11
279.641
 21
203.01
  0
LINE
  8
0
 10
279.641
 20
203.01
 11
279.641
 21
200.01
  0
LINE
  8
0
 10
279.641
 20
200.01
 11
285.792
 21
200.01
  0
LINE
  8
0
 10
285.792
 20
200.01
 11
285.792
 21
203.01
  0
LINE
  8
0
 10
285.792
 20
203.01
 11
291.943
 21
203.01
  0
LINE
  8
0
 10
291.943
 20
203.01
 11
291.943
 21
200.01
  0
LINE
  8
0
 10
291.943
 20
200.01
 11
298.094
 21
200.01
  0
LINE
  8
0
 10
298.094
 20
200.01
 11
298.094
 21
203.01
  0
LINE
  8
0
 10
298.094
 20
203.01
 11
304.245
 21
203.01
  0
LINE
  8
0
 10
304.245
 20
203.01
 11
304.245
 21
200.01
  0
LINE
  8
0
 10
304.245
 20
200.01
 11
310.396
 21
200.01
  0
LINE
  8
0
 10
310.396
 20
200.01
 11
310.396
 21
203.01
  0
LINE
  8
0
 10
310.396
 20
203.01
 11
316.547
 21
203.01
  0
LINE
  8
0
 10
316.547
 20
203.01
 11
316.547
 21
200.01
  0
LINE
  8
0
 10
316.547
 20
200.01
 11
322.698
 21
200.01
  0
LINE
  8
0
 10
322.698
 20
200.01
 11
322.698
 21
203.01
  0
LINE
  8
0
 10
322.698
 20
203.01
 11
328.849
 21
203.01
  0
LINE
  8
0
 10
328.849
 20
203.01
 11
328.849
 21
200.01
  0
LINE
  8
0
 10
328.849
 20
200.01
 11
335
 21
200.01
  0
LINE
  8
0
 10
335
 20
200.01
 11
335
 21
203.01
  0
LINE
  8
0
 10
335
 20
203.01
 11
341
 21
203.01
  0
LINE
  8
0
 10
341
 20
203.01
 11
341
 21
212.01
  0
LINE
  8
0
 10
341
 20
212.01
 11
344
 21
212.01
  0
LINE
  8
0
 10
344
 20
212.01
 11
344
 21
218.067
  0
LINE
  8
0
 10
344
 20
218.067
 11
341
 21
218.067
  0
LINE
  8
0
 10
341
 20
218.067
 11
341
 21
224.124
  0
LINE
  8
0
 10
341
 20
224.124
 11
344
 21
224.124
  0
LINE
  8
0
 10
344
 20
224.124
 11
344
 21
230.181
  0
LINE
  8
0
 10
344
 20
230.181
 11
341
 21
230.181
  0
LINE
  8
0
 10
341
 20
230.181
 11
341
 21
236.239
  0
LINE
  8
0
 10
341
 20
236.239
 11
344
 21
236.239
  0
LINE
  8
0
 10
344
 20
236.239
 11
344
 21
242.296
  0
LINE
  8
0
 10
344
 20
242.296
 11
341
 21
242.296
  0
LINE
  8
0
 10
341
 20
242.296
 11
341
 21
248.353
  0
LINE
  8
0
 10
341
 20
248.353
 11
344
 21
248.353
  0
LINE
  8
0
 10
344
 20
248.353
 11
344
 21
254.41
  0
LINE
  8
0
 10
344
 20
254.41
 11
341
 21
254.41
  0
LINE
  8
0
 10
341
 20
254.41
 11
341
 21
260.467
  0
LINE
  8
0
 10
341
 20
260.467
 11
344
 21
260.467
  0
LINE
  8
0
 10
344
 20
260.467
 11
344
 21
266.524
  0
LINE
  8
0
 10
344
 20
266.524
 11
341
 21
266.524
  0
LINE
  8
0
 10
341
 20
266.524
 11
341
 21
272.581
  0
LINE
  8
0
 10
341
 20
272.581
 11
344
 21
272.581
  0
LINE
  8
0
 10
344
 20
272.581
 11
344
 21
278.639
  0
LINE
  8
0
 10
344
 20
278.639
 11
341
 21
278.639
  0
LINE
  8
0
 10
341
 20
278.639
 11
341
 21
284.696
  0
LINE
  8
0
 10
341
 20
284.696
 11
344
 21
284.696
  0
LINE
  8
0
 10
344
 20
284.696
 11
344
 21
290.753
  0
LINE
  8
0
 10
344
 20
290.753
 11
341
 21
290.753
  0
LINE
  8
0
 10
341
 20
290.753
 11
341
 21
296.81
  0
LINE
  8
0
 10
341
 20
296.81
 11
344
 21
296.81
  0
LINE
  8
0
 10
344
 20
296.81
 11
344
 21
302.867
  0
LINE
  8
0
 10
344
 20
302.867
 11
341
 21
302.867
  0
LINE
  8
0
 10
341
 20
302.867
 11
341
 21
308.924
  0
LINE
  8
0
 10
341
 20
308.924
 11
344
 21
308.924
  0
LINE
  8
0
 10
344
 20
308.924
 11
344
 21
314.981
  0
LINE
  8
0
 10
344
 20
314.981
 11
341
 21
314.981
  0
LINE
  8
0
 10
341
 20
314.981
 11
341
 21
321.039
  0
LINE
  8
0
 10
341
 20
321.039
 11
344
 21
321.039
  0
LINE
  8
0
 10
344
 20
321.039
 11
344
 21
327.096
  0
LINE
  8
0
 10
344
 20
327.096
 11
341
 21
327.096
  0
LINE
  8
0
 10
341
 20
327.096
 11
341
 21
333.153
  0
LINE
  8
0
 10
341
 20
333.153
 11
344
 21
333.153
  0
LINE
  8
0
 10
344
 20
333.153
 11
344
 21
339.21
  0
LINE
  8
0
 10
344
 20
339.21
 11
341
 21
339.21
  0
LINE
  8
0
 10
341
 20
339.21
 11
341
 21
345.267
  0
LINE
  8
0
 10
341
 20
345.267
 11
344
 21
345.267
  0
LINE
  8
0
 10
344
 20
345.267
 11
344
 21
351.324
  0
LINE
  8
0
 10
344
 20
351.324
 11
341
 21
351.324
  0
LINE
  8
0
 10
341
 20
351.324
 11
341
 21
357.381
  0
LINE
  8
0
 10
341
 20
357.381
 11
344
 21
357.381
  0
LINE
  8
0
 10
344
 20
357.381
 11
344
 21
363.439
  0
LINE
  8
0
 10
344
 20
363.439
 11
341
 21
363.439
  0
LINE
  8
0
 10
341
 20
363.439
 11
341
 21
369.496
  0
LINE
  8
0
 10
341
 20
369.496
 11
344
 21
369.496
  0
LINE
  8
0
 10
344
 20
369.496
 11
344
 21
375.553
  0
LINE
  8
0
 10
344
 20
375.553
 11
341
 21
375.553
  0
LINE
  8
0
 10
341
 20
375.553
 11
341
 21
381.61
  0
LINE
  8
0
 10
341
 20
381.61
 11
344
 21
381.61
  0
LINE
  8
0
 10
344
 20
381.61
 11
344
 21
387.667
  0
LINE
  8
0
 10
344
 20
387.667
 11
341
 21
387.667
  0
LINE
  8
0
 10
341
 20
387.667
 11
341
 21
393.724
  0
LINE
  8
0
 10
341
 20
393.724
 11
344
 21
393.724
  0
LINE
  8
0
 10
344
 20
393.724
 11
344
 21
399.781
  0
LINE
  8
0
 10
344
 20
399.781
 11
341
 21
399.781
  0
LINE
  8
0
 10
341
 20
399.781
 11
341
 21
405.839
  0
LINE
  8
0
 10
341
 20
405.839
 11
344
 21
405.839
  0
LINE
  8
0
 10
344
 20
405.839
 11
344
 21
411.896
  0
LINE
  8
0
 10
344
 20
411.896
 11
341
 21
411.896
  0
LINE
  8
0
 10
341
 20
411.896
 11
341
 21
417.953
  0
LINE
  8
0
 10
341
 20
417.953
 11
344
 21
417.953
  0
LINE
  8
0
 10
344
 20
417.953
 11
344
 21
424.01
  0
LINE
  8
0
 10
344
 20
424.01
 11
341
 21
424.01
  0
LINE
  8
0
 10
341
 20
424.01
 11
341
 21
433.01
  0
LINE
  8
0
 10
341
 20
433.01
 11
335
 21
433.01
  0
LINE
  8
0
 10
335
 20
433.01
 11
335
 21
436.01
  0
LINE
  8
0
 10
335
 20
436.01
 11
328.849
 21
436.01
  0
LINE
  8
0
 10
328.849
 20
436.01
 11
328.849
 21
433.01
  0
LINE
  8
0
 10
328.849
 20
433.01
 11
322.698
 21
433.01
  0
LINE
  8
0
 10
322.698
 20
433.01
 11
322.698
 21
436.01
  0
LINE
  8
0
 10
322.698
 20
436.01
 11
316.547
 21
436.01
  0
LINE
  8
0
 10
316.547
 20
436.01
 11
316.547
 21
433.01
  0
LINE
  8
0
 10
316.547
 20
433.01
 11
310.396
 21
433.01
  0
LINE
  8
0
 10
310.396
 20
433.01
 11
310.396
 21
436.01
  0
LINE
  8
0
 10
310.396
 20
436.01
 11
304.245
 21
436.01
  0
LINE
  8
0
 10
304.245
 20
436.01
 11
304.245
 21
433.01
  0
LINE
  8
0
 10
304.245
 20
433.01
 11
298.094
 21
433.01
  0
LINE
  8
0
 10
298.094
 20
433.01
 11
298.094
 21
436.01
  0
LINE
  8
0
 10
298.094
 20
436.01
 11
291.943
 21
436.01
  0
LINE
  8
0
 10
291.943
 20
436.01
 11
291.943
 21
433.01
  0
LINE
  8
0
 10
291.943
 20
433.01
 11
285.792
 21
433.01
  0
LINE
  8
0
 10
285.792
 20
433.01
 11
285.792
 21
436.01
  0
LINE
  8
0
 10
285.792
 20
436.01
 11
279.642
 21
436.01
  0
LINE
  8
0
 10
279.642
 20
436.01
 11
279.642
 21
433.01
  0
LINE
  8
0
 10
279.642
 20
433.01
 11
273.491
 21
433.01
  0
LINE
  8
0
 10
273.491
 20
433.01
 11
273.491
 21
436.01
  0
LINE
  8
0
 10
273.491
 20
436.01
 11
267.34
 21
436.01
  0
LINE
  8
0
 10
267.34
 20
436.01
 11
267.34
 21
433.01
  0
LINE
  8
0
 10
267.34
 20
433.01
 11
261.189
 21
433.01
  0
LINE
  8
0
 10
261.189
 20
433.01
 11
261.189
 21
436.01
  0
LINE
  8
0
 10
261.189
 20
436.01
 11
255.038
 21
436.01
  0
LINE
  8
0
 10
255.038
 20
436.01
 11
255.038
 21
433.01
  0
LINE
  8
0
 10
255.038
 20
433.01
 11
248.887
 21
433.01
  0
LINE
  8
0
 10
248.887
 20
433.01
 11
248.887
 21
436.01
  0
LINE
  8
0
 10
248.887
 20
436.01
 11
242.736
 21
436.01
  0
LINE
  8
0
 10
242.736
 20
436.01
 11
242.736
 21
433.01
  0
LINE
  8
0
 10
242.736
 20
433.01
 11
236.585
 21
433.01
  0
LINE
  8
0
 10
236.585
 20
433.01
 11
236.585
 21
436.01
  0
LINE
  8
0
 10
236.585
 20
436.01
 11
230.434
 21
436.01
  0
LINE
  8
0
 10
230.434
 20
436.01
 11
230.434
 21
433.01
  0
LINE
  8
0
 10
230.434
 20
433.01
 11
224.283
 21
433.01
  0
LINE
  8
0
 10
224.283
 20
433.01
 11
224.283
 21
436.01
  0
LINE
  8
0
 10
224.283
 20
436.01
 11
218.132
 21
436.01
  0
LINE
  8
0
 10
218.132
 20
436.01
 11
218.132
 21
433.01
  0
LINE
  8
0
 10
218.132
 20
433.01
 11
211.981
 21
433.01
  0
LINE
  8
0
 10
211.981
 20
433.01
 11
211.981
 21
436.01
  0
LINE
  8
0
 10
211.981
 20
436.01
 11
205.83
 21
436.01
  0
LINE
  8
0
 10
205.83
 20
436.01
 11
205.83
 21
433.01
  0
LINE
  8
0
 10
205.83
 20
433.01
 11
199.679
 21
433.01
  0
LINE
  8
0
 10
199.679
 20
433.01
 11
199.679
 21
436.01
  0
LINE
  8
0
 10
199.679
 20
436.01
 11
193.528
 21
436.01
  0
LINE
  8
0
 10
193.528
 20
436.01
 11
193.528
 21
433.01
  0
LINE
  8
0
 10
193.528
 20
433.01
 11
187.377
 21
433.01
  0
LINE
  8
0
 10
187.377
 20
433.01
 11
187.377
 21
436.01
  0
LINE
  8
0
 10
187.377
 20
436.01
 11
181.226
 21
436.01
  0
LINE
  8
0
 10
181.226
 20
436.01
 11
181.226
 21
433.01
  0
LINE
  8
0
 10
181.226
 20
433.01
 11
175.075
 21
433.01
  0
LINE
  8
0
 10
175.075
 20
433.01
 11
175.075
 21
436.01
  0
LINE
  8
0
 10
175.075
 20
436.01
 11
168.925
 21
436.01
  0
LINE
  8
0
 10
168.925
 20
436.01
 11
168.925
 21
433.01
  0
LINE
  8
0
 10
168.925
 20
433.01
 11
162.774
 21
433.01
  0
LINE
  8
0
 10
162.774
 20
433.01
 11
162.774
 21
436.01
  0
LINE
  8
0
 10
162.774
 20
436.01
 11
156.623
 21
436.01
  0
LINE
  8
0
 10
156.623
 20
436.01
 11
156.623
 21
433.01
  0
LINE
  8
0
 10
156.623
 20
433.01
 11
150.472
 21
433.01
  0
LINE
  8
0
 10
150.472
 20
433.01
 11
150.472
 21
436.01
  0
LINE
  8
0
 10
150.472
 20
436.01
 11
144.321
 21
436.01
  0
LINE
  8
0
 10
144.321
 20
436.01
 11
144.321
 21
433.01
  0
LINE
  8
0
 10
144.321
 20
433.01
 11
138.17
 21
433.01
  0
LINE
  8
0
 10
138.17
 20
433.01
 11
138.17
 21
436.01
  0
LINE
  8
0
 10
138.17
 20
436.01
 11
132.019
 21
436.01
  0
LINE
  8
0
 10
132.019
 20
436.01
 11
132.019
 21
433.01
  0
LINE
  8
0
 10
132.019
 20
433.01
 11
125.868
 21
433.01
  0
LINE
  8
0
 10
125.868
 20
433.01
 11
125.868
 21
436.01
  0
LINE
  8
0
 10
125.868
 20
436.01
 11
119.717
 21
436.01
  0
LINE
  8
0
 10
119.717
 20
436.01
 11
119.717
 21
433.01
  0
LINE
  8
0
 10
119.717
 20
433.01
 11
113.566
 21
433.01
  0
LINE
  8
0
 10
113.566
 20
433.01
 11
113.566
 21
436.01
  0
LINE
  8
0
 10
113.566
 20
436.01
 11
107.415
 21
436.01
  0
LINE
  8
0
 10
107.415
 20
436.01
 11
107.415
 21
433.01
  0
LINE
  8
0
 10
107.415
 20
433.01
 11
101.264
 21
433.01
  0
LINE
  8
0
 10
101.264
 20
433.01
 11
101.264
 21
436.01
  0
LINE
  8
0
 10
101.264
 20
436.01
 11
95.1132
 21
436.01
  0
LINE
  8
0
 10
95.1132
 20
436.01
 11
95.1132
 21
433.01
  0
LINE
  8
0
 10
95.1132
 20
433.01
 11
88.9623
 21
433.01
  0
LINE
  8
0
 10
88.9623
 20
433.01
 11
88.9623
 21
436.01
  0
LINE
  8
0
 10
88.9623
 20
436.01
 11
82.8113
 21
436.01
  0
LINE
  8
0
 10
82.8113
 20
436.01
 11
82.8113
 21
433.01
  0
LINE
  8
0
 10
82.8113
 20
433.01
 11
76.6604
 21
433.01
  0
LINE
  8
0
 10
76.6604
 20
433.01
 11
76.6604
 21
436.01
  0
LINE
  8
0
 10
76.6604
 20
436.01
 11
70.5094
 21
436.01
  0
LINE
  8
0
 10
70.5094
 20
436.01
 11
70.5094
 21
433.01
  0
LINE
  8
0
 10
70.5094
 20
433.01
 11
64.3585
 21
433.01
  0
LINE
  8
0
 10
64.3585
 20
433.01
 11
64.3585
 21
436.01
  0
LINE
  8
0
 10
64.3585
 20
436.01
 11
58.2076
 21
436.01
  0
LINE
  8
0
 10
58.2076
 20
436.01
 11
58.2076
 21
433.01
  0
LINE
  8
0
 10
58.2076
 20
433.01
 11
52.0566
 21
433.01
  0
LINE
  8
0
 10
52.0566
 20
433.01
 11
52.0566
 21
436.01
  0
LINE
  8
0
 10
52.0566
 20
436.01
 11
45.9057
 21
436.01
  0
LINE
  8
0
 10
45.9057
 20
436.01
 11
45.9057
 21
433.01
  0
LINE
  8
0
 10
45.9057
 20
433.01
 11
39.7547
 21
433.01
  0
LINE
  8
0
 10
39.7547
 20
433.01
 11
39.7547
 21
436.01
  0
LINE
  8
0
 10
39.7547
 20
436.01
 11
33.6038
 21
436.01
  0
LINE
  8
0
 10
33.6038
 20
436.01
 11
33.6038
 21
433.01
  0
LINE
  8
0
 10
33.6038
 20
433.01
 11
27.4528
 21
433.01
  0
LINE
  8
0
 10
27.4528
 20
433.01
 11
27.4528
 21
436.01
  0
LINE
  8
0
 10
27.4528
 20
436.01
 11
21.3019
 21
436.01
  0
LINE
  8
0
 10
21.3019
 20
436.01
 11
21.3019
 21
433.01
  0
LINE
  8
0
 10
21.3019
 20
433.01
 11
15.151
 21
433.01
  0
LINE
  8
0
 10
15.151
 20
433.01
 11
15.151
 21
436.01
  0
LINE
  8
0
 10
15.151
 20
436.01
 11
9
 21
436.01
  0
LINE
  8
0
 10
9
 20
436.01
 11
9
 21
433.01
  0
LINE
  8
0
 10
9
 20
433.01
 11
3
 21
433.01
  0
LINE
  8
0
 10
3
 20
433.01
 11
3
 21
424.01
  0
LINE
  8
0
 10
3
 20
424.01
 11
0
 21
424.01
  0
LINE
  8
0
 10
0
 20
424.01
 11
0
 21
417.953
  0
LINE
  8
0
 10
0
 20
417.953
 11
3
 21
417.953
  0
LINE
  8
0
 10
3
 20
417.953
 11
3
 21
411.896
  0
LINE
  8
0
 10
3
 20
411.896
 11
0
 21
411.896
  0
LINE
  8
0
 10
0
 20
411.896
 11
0
 21
405.839
  0
LINE
  8
0
 10
0
 20
405.839
 11
3
 21
405.839
  0
LINE
  8
0
 10
3
 20
405.839
 11
3
 21
399.781
  0
LINE
  8
0
 10
3
 20
399.781
 11
0
 21
399.781
  0
LINE
  8
0
 10
0
 20
399.781
 11
0
 21
393.724
  0
LINE
  8
0
 10
0
 20
393.724
 11
3
 21
393.724
  0
LINE
  8
0
 10
3
 20
393.724
 11
3
 21
387.667
  0
LINE
  8
0
 10
3
 20
387.667
 11
0
 21
387.667
  0
LINE
  8
0
 10
0
 20
387.667
 11
0
 21
381.61
  0
LINE
  8
0
 10
0
 20
381.61
 11
3
 21
381.61
  0
LINE
  8
0
 10
3
 20
381.61
 11
3
 21
375.553
  0
LINE
  8
0
 10
3
 20
375.553
 11
0
 21
375.553
  0
LINE
  8
0
 10
0
 20
375.553
 11
0
 21
369.496
  0
LINE
  8
0
 10
0
 20
369.496
 11
3
 21
369.496
  0
LINE
  8
0
 10
3
 20
369.496
 11
3
 21
363.439
  0
LINE
  8
0
 10
3
 20
363.439
 11
0
 21
363.439
  0
LINE
  8
0
 10
0
 20
363.439
 11
0
 21
357.381
  0
LINE
  8
0
 10
0
 20
357.381
 11
3
 21
357.381
  0
LINE
  8
0
 10
3
 20
357.381
 11
3
 21
351.324
  0
LINE
  8
0
 10
3
 20
351.324
 11
0
 21
351.324
  0
LINE
  8
0
 10
0
 20
351.324
 11
0
 21
345.267
  0
LINE
  8
0
 10
0
 20
345.267
 11
3
 21
345.267
  0
LINE
  8
0
 10
3
 20
345.267
 11
3
 21
339.21
  0
LINE
  8
0
 10
3
 20
339.21
 11
0
 21
339.21
  0
LINE
  8
0
 10
0
 20
339.21
 11
0
 21
333.153
  0
LINE
  8
0
 10
0
 20
333.153
 11
3
 21
333.153
  0
LINE
  8
0
 10
3
 20
333.153
 11
3
 21
327.096
  0
LINE
  8
0
 10
3
 20
327.096
 11
0
 21
327.096
  0
LINE
  8
0
 10
0
 20
327.096
 11
0
 21
321.039
  0
LINE
  8
0
 10
0
 20
321.039
 11
3
 21
321.039
  0
LINE
  8
0
 10
3
 20
321.039
 11
3
 21
314.981
  0
LINE
  8
0
 10
3
 20
314.981
 11
0
 21
314.981
  0
LINE
  8
0
 10
0
 20
314.981
 11
0
 21
308.924
  0
LINE
  8
0
 10
0
 20
308.924
 11
3
 21
308.924
  0
LINE
  8
0
 10
3
 20
308.924
 11
3
 21
302.867
  0
LINE
  8
0
 10
3
 20
302.867
 11
0
 21
302.867
  0
LINE
  8
0
 10
0
 20
302.867
 11
0
 21
296.81
  0
LINE
  8
0
 10
0
 20
296.81
 11
3
 21
296.81
  0
LINE
  8
0
 10
3
 20
296.81
 11
3
 21
290.753
  0
LINE
  8
0
 10
3
 20
290.753
 11
0
 21
290.753
  0
LINE
  8
0
 10
0
 20
290.753
 11
0
 21
284.696
  0
LINE
  8
0
 10
0
 20
284.696
 11
3
 21
284.696
  0
LINE
  8
0
 10
3
 20
284.696
 11
3
 21
278.639
  0
LINE
  8
0
 10
3
 20
278.639
 11
0
 21
278.639
  0
LINE
  8
0
 10
0
 20
278.639
 11
0
 21
272.581
  0
LINE
  8
0
 10
0
 20
272.581
 11
3
 21
272.581
  0
LINE
  8
0
 10
3
 20
272.581
 11
3
 21
266.524
  0
LINE
  8
0
 10
3
 20
266.524
 11
0
 21
266.524
  0
LINE
  8
0
 10
0
 20
266.524
 11
0
 21
260.467
  0
LINE
  8
0
 10
0
 20
260.467
 11
3
 21
260.467
  0
LINE
  8
0
 10
3
 20
260.467
 11
3
 21
254.41
  0
LINE
  8
0
 10
3
 20
254.41
 11
0
 21
254.41
  0
LINE
  8
0
 10
0
 20
254.41
 11
0
 21
248.353
  0
LINE
  8
0
 10
0
 20
248.353
 11
3
 21
248.353
  0
LINE
  8
0
 10
3
 20
248.353
 11
3
 21
242.296
  0
LINE
  8
0
 10
3
 20
242.296
 11
0
 21
242.296
  0
LINE
  8
0
 10
0
 20
242.296
 11
0
 21
236.239
  0
LINE
  8
0
 10
0
 20
236.239
 11
3
 21
236.239
  0
LINE
  8
0
 10
3
 20
236.239
 11
3
 21
230.181
  0
LINE
  8
0
 10
3
 20
230.181
 11
0
 21
230.181
  0
LINE
  8
0
 10
0
 20
230.181
 11
0
 21
224.124
  0
LINE
  8
0
 10
0
 20
224.124
 11
3
 21
224.124
  0
LINE
  8
0
 10
3
 20
224.124
 11
3
 21
218.067
  0
LINE
  8
0
 10
3
 20
218.067
 11
0
 21
218.067
  0
LINE
  8
0
 10
0
 20
218.067
 11
0
 21
212.01
  0
LINE
  8
0
 10
0
 20
212.01
 11
3
 21
212.01
  0
LINE
  8
0
 10
3
 20
212.01
 11
3
 21
203.01
  0
LINE
  8
0
 10
3
 20
203.01
 11
9
 21
203.01
  0
LINE
  8
0
 10
9
 20
203.01
 11
9
 21
200.01
  0
LINE
  8
0
 10
9
 20
200.01
 11
15.1509
 21
200.01
  0
LINE
  8
0
 10
15.1509
 20
200.01
 11
15.1509
 21
203.01
  0
LINE
  8
0
 10
359.161
 20
203.01
 11
365.312
 21
203.01
  0
LINE
  8
0
 10
365.312
 20
203.01
 11
365.312
 21
200.01
  0
LINE
  8
0
 10
365.312
 20
200.01
 11
371.463
 21
200.01
  0
LINE
  8
0
 10
371.463
 20
200.01
 11
371.463
 21
203.01
  0
LINE
  8
0
 10
371.463
 20
203.01
 11
377.614
 21
203.01
  0
LINE
  8
0
 10
377.614
 20
203.01
 11
377.614
 21
200.01
  0
LINE
  8
0
 10
377.614
 20
200.01
 11
383.765
 21
200.01
  0
LINE
  8
0
 10
383.765
 20
200.01
 11
383.765
 21
203.01
  0
LINE
  8
0
 10
383.765
 20
203.01
 11
389.916
 21
203.01
  0
LINE
  8
0
 10
389.916
 20
203.01
 11
389.916
 21
200.01
  0
LINE
  8
0
 10
389.916
 20
200.01
 11
396.067
 21
200.01
  0
LINE
  8
0
 10
396.067
 20
200.01
 11
396.067
 21
203.01
  0
LINE
  8
0
 10
396.067
 20
203.01
 11
402.218
 21
203.01
  0
LINE
  8
0
 10
402.218
 20
203.01
 11
402.218
 21
200.01
  0
LINE
  8
0
 10
402.218
 20
200.01
 11
408.368
 21
200.01
  0
LINE
  8
0
 10
408.368
 20
200.01
 11
408.368
 21
203.01
  0
LINE
  8
0
 10
408.368
 20
203.01
 11
414.519
 21
203.01
  0
LINE
  8
0
 10
414.519
 20
203.01
 11
414.519
 21
200.01
  0
LINE
  8
0
 10
414.519
 20
200.01
 11
420.67
 21
200.01
  0
LINE
  8
0
 10
420.67
 20
200.01
 11
420.67
 21
203.01
  0
LINE
  8
0
 10
420.67
 20
203.01
 11
426.821
 21
203.01
  0
LINE
  8
0
 10
426.821
 20
203.01
 11
426.821
 21
200.01
  0
LINE
  8
0
 10
426.821
 20
200.01
 11
432.972
 21
200.01
  0
LINE
  8
0
 10
432.972
 20
200.01
 11
432.972
 21
203.01
  0
LINE
  8
0
 10
432.972
 20
203.01
 11
439.123
 21
203.01
  0
LINE
  8
0
 10
439.123
 20
203.01
 11
439.123
 21
200.01
  0
LINE
  8
0
 10
439.123
 20
200.01
 11
445.274
 21
200.01
  0
LINE
  8
0
 10
445.274
 20
200.01
 11
445.274
 21
203.01
  0
LINE
  8
0
 10
445.274
 20
203.01
 11
451.425
 21
203.01
  0
LINE
  8
0
 10
451.425
 20
203.01
 11
451.425
 21
200.01
  0
LINE
  8
0
 10
451.425
 20
200.01
 11
457.576
 21
200.01
  0
LINE
  8
0
 10
457.576
 20
200.01
 11
457.576
 21
203.01
  0
LINE
  8
0
 10
457.576
 20
203.01
 11
463.727
 21
203.01
  0
LINE
  8
0
 10
463.727
 20
203.01
 11
463.727
 21
200.01
  0
LINE
  8
0
 10
463.727
 20
200.01
 11
469.878
 21
200.01
  0
LINE
  8
0
 10
469.878
 20
200.01
 11
469.878
 21
203.01
  0
LINE
  8
0
 10
469.878
 20
203.01
 11
476.029
 21
203.01
  0
LINE
  8
0
 10
476.029
 20
203.01
 11
476.029
 21
200.01
  0
LINE
  8
0
 10
476.029
 20
200.01
 11
482.18
 21
200.01
  0
LINE
  8
0
 10
482.18
 20
200.01
 11
482.18
 21
203.01
  0
LINE
  8
0
 10
482.18
 20
203.01
 11
488.331
 21
203.01
  0
LINE
  8
0
 10
488.331
 20
203.01
 11
488.331
 21
200.01
  0
LINE
  8
0
 10
488.331
 20
200.01
 11
494.482
 21
200.01
  0
LINE
  8
0
 10
494.482
 20
200.01
 11
494.482
 21
203.01
  0
LINE
  8
0
 10
494.482
 20
203.01
 11
500.633
 21
203.01
  0
LINE
  8
0
 10
500.633
 20
203.01
 11
500.633
 21
200.01
  0
LINE
  8
0
 10
500.633
 20
200.01
 11
506.784
 21
200.01
  0
LINE
  8
0
 10
506.784
 20
200.01
 11
506.784
 21
203.01
  0
LINE
  8
0
 10
506.784
 20
203.01
 11
512.935
 21
203.01
  0
LINE
  8
0
 10
512.935
 20
203.01
 11
512.935
 21
200.01
  0
LINE
  8
0
 10
512.935
 20
200.01
 11
519.085
 21
200.01
  0
LINE
  8
0
 10
519.085
 20
200.01
 11
519.085
 21
203.01
  0
LINE
  8
0
 10
519.085
 20
203.01
 11
525.236
 21
203.01
  0
LINE
  8
0
 10
525.236
 20
203.01
 11
525.236
 21
200.01
  0
LINE
  8
0
 10
525.236
 20
200.01
 11
531.387
 21
200.01
  0
LINE
  8
0
 10
531.387
 20
200.01
 11
531.387
 21
203.01
  0
LINE
  8
0
 10
531.387
 20
203.01
 11
537.538
 21
203.01
  0
LINE
  8
0
 10
537.538
 20
203.01
 11
537.538
 21
200.01
  0
LINE
  8
0
 10
537.538
 20
200.01
 11
543.689
 21
200.01
  0
LINE
  8
0
 10
543.689
 20
200.01
 11
543.689
 21
203.01
  0
LINE
  8
0
 10
543.689
 20
203.01
 11
549.84
 21
203.01
  0
LINE
  8
0
 10
549.84
 20
203.01
 11
549.84
 21
200.01
  0
LINE
  8
0
 10
549.84
 20
200.01
 11
555.991
 21
200.01
  0
LINE
  8
0
 10
555.991
 20
200.01
 11
555.991
 21
203.01
  0
LINE
  8
0
 10
555.991
 20
203.01
 11
562.142
 21
203.01
  0
LINE
  8
0
 10
562.142
 20
203.01
 11
562.142
 21
200.01
  0
LINE
  8
0
 10
562.142
 20
200.01
 11
568.293
 21
200.01
  0
LINE
  8
0
 10
568.293
 20
200.01
 11
568.293
 21
203.01
  0
LINE
  8
0
 10
568.293
 20
203.01
 11
574.444
 21
203.01
  0
LINE
  8
0
 10
574.444
 20
203.01
 11
574.444
 21
200.01
  0
LINE
  8
0
 10
574.444
 20
200.01
 11
580.595
 21
200.01
  0
LINE
  8
0
 10
580.595
 20
200.01
 11
580.595
 21
203.01
  0
LINE
  8
0
 10
580.595
 20
203.01
 11
586.746
 21
203.01
  0
LINE
  8
0
 10
586.746
 20
203.01
 11
586.746
 21
200.01
  0
LINE
  8
0
 10
586.746
 20
200.01
 11
592.897
 21
200.01
  0
LINE
  8
0
 10
592.897
 20
200.01
 11
592.897
 21
203.01
  0
LINE
  8
0
 10
592.897
 20
203.01
 11
599.048
 21
203.01
  0
LINE
  8
0
 10
599.048
 20
203.01
 11
599.048
 21
200.01
  0
LINE
  8
0
 10
599.048
 20
200.01
 11
605.199
 21
200.01
  0
LINE
  8
0
 10
605.199
 20
200.01
 11
605.199
 21
203.01
  0
LINE
  8
0
 10
605.199
 20
203.01
 11
611.35
 21
203.01
  0
LINE
  8
0
 10
611.35
 20
203.01
 11
611.35
 21
200.01
  0
LINE
  8
0
 10
611.35
 20
200.01
 11
617.501
 21
200.01
  0
LINE
  8
0
 10
617.501
 20
200.01
 11
617.501
 21
203.01
  0
LINE
  8
0
 10
617.501
 20
203.01
 11
623.651
 21
203.01
  0
LINE
  8
0
 10
623.651
 20
203.01
 11
623.651
 21
200.01
  0
LINE
  8
0
 10
623.651
 20
200.01
 11
629.802
 21
200.01
  0
LINE
  8
0
 10
629.802
 20
200.01
 11
629.802
 21
203.01
  0
LINE
  8
0
 10
629.802
 20
203.01
 11
635.953
 21
203.01
  0
LINE
  8
0
 10
635.953
 20
203.01
 11
635.953
 21
200.01
  0
LINE
  8
0
 10
635.953
 20
200.01
 11
642.104
 21
200.01
  0
LINE
  8
0
 10
642.104
 20
200.01
 11
642.104
 21
203.01
  0
LINE
  8
0
 10
642.104
 20
203.01
 11
648.255
 21
203.01
  0
LINE
  8
0
 10
648.255
 20
203.01
 11
648.255
 21
200.01
  0
LINE
  8
0
 10
648.255
 20
200.01
 11
654.406
 21
200.01
  0
LINE
  8
0
 10
654.406
 20
200.01
 11
654.406
 21
203.01
  0
LINE
  8
0
 10
654.406
 20
203.01
 11
660.557
 21
203.01
  0
LINE
  8
0
 10
660.557
 20
203.01
 11
660.557
 21
200.01
  0
LINE
  8
0
 10
660.557
 20
200.01
 11
666.708
 21
200.01
  0
LINE
  8
0
 10
666.708
 20
200.01
 11
666.708
 21
203.01
  0
LINE
  8
0
 10
666.708
 20
203.01
 11
672.859
 21
203.01
  0
LINE
  8
0
 10
672.859
 20
203.01
 11
672.859
 21
200.01
  0
LINE
  8
0
 10
672.859
 20
200.01
 11
679.01
 21
200.01
  0
LINE
  8
0
 10
679.01
 20
200.01
 11
679.01
 21
203.01
  0
LINE
  8
0
 10
679.01
 20
203.01
 11
685.01
 21
203.01
  0
LINE
  8
0
 10
685.01
 20
203.01
 11
685.01
 21
212.01
  0
LINE
  8
0
 10
685.01
 20
212.01
 11
688.01
 21
212.01
  0
LINE
  8
0
 10
688.01
 20
212.01
 11
688.01
 21
218.067
  0
LINE
  8
0
 10
688.01
 20
218.067
 11
685.01
 21
218.067
  0
LINE
  8
0
 10
685.01
 20
218.067
 11
685.01
 21
224.124
  0
LINE
  8
0
 10
685.01
 20
224.124
 11
688.01
 21
224.124
  0
LINE
  8
0
 10
688.01
 20
224.124
 11
688.01
 21
230.181
  0
LINE
  8
0
 10
688.01
 20
230.181
 11
685.01
 21
230.181
  0
LINE
  8
0
 10
685.01
 20
230.181
 11
685.01
 21
236.239
  0
LINE
  8
0
 10
685.01
 20
236.239
 11
688.01
 21
236.239
  0
LINE
  8
0
 10
688.01
 20
236.239
 11
688.01
 21
242.296
  0
LINE
  8
0
 10
688.01
 20
242.296
 11
685.01
 21
242.296
  0
LINE
  8
0
 10
685.01
 20
242.296
 11
685.01
 21
248.353
  0
LINE
  8
0
 10
685.01
 20
248.353
 11
688.01
 21
248.353
  0
LINE
  8
0
 10
688.01
 20
248.353
 11
688.01
 21
254.41
  0
LINE
  8
0
 10
688.01
 20
254.41
 11
685.01
 21
254.41
  0
LINE
  8
0
 10
685.01
 20
254.41
 11
685.01
 21
260.467
  0
LINE
  8
0
 10
685.01
 20
260.467
 11
688.01
 21
260.467
  0
LINE
  8
0
 10
688.01
 20
260.467
 11
688.01
 21
266.524
  0
LINE
  8
0
 10
688.01
 20
266.524
 11
685.01
 21
266.524
  0
LINE
  8
0
 10
685.01
 20
266.524
 11
685.01
 21
272.581
  0
LINE
  8
0
 10
685.01
 20
272.581
 11
688.01
 21
272.581
  0
LINE
  8
0
 10
688.01
 20
272.581
 11
688.01
 21
278.639
  0
LINE
  8
0
 10
688.01
 20
278.639
 11
685.01
 21
278.639
  0
LINE
  8
0
 10
685.01
 20
278.639
 11
685.01
 21
284.696
  0
LINE
  8
0
 10
685.01
 20
284.696
 11
688.01
 21
284.696
  0
LINE
  8
0
 10
688.01
 20
284.696
 11
688.01
 21
290.753
  0
LINE
  8
0
 10
688.01
 20
290.753
 11
685.01
 21
290.753
  0
LINE
  8
0
 10
685.01
 20
290.753
 11
685.01
 21
296.81
  0
LINE
  8
0
 10
685.01
 20
296.81
 11
688.01
 21
296.81
  0
LINE
  8
0
 10
688.01
 20
296.81
 11
688.01
 21
302.867
  0
LINE
  8
0
 10
688.01
 20
302.867
 11
685.01
 21
302.867
  0
LINE
  8
0
 10
685.01
 20
302.867
 11
685.01
 21
308.924
  0
LINE
  8
0
 10
685.01
 20
308.924
 11
688.01
 21
308.924
  0
LINE
  8
0
 10
688.01
 20
308.924
 11
688.01
 21
314.981
  0
LINE
  8
0
 10
688.01
 20
314.981
 11
685.01
 21
314.981
  0
LINE
  8
0
 10
685.01
 20
314.981
 11
685.01
 21
321.039
  0
LINE
  8
0
 10
685.01
 20
321.039
 11
688.01
 21
321.039
  0
LINE
  8
0
 10
688.01
 20
321.039
 11
688.01
 21
327.096
  0
LINE
  8
0
 10
688.01
 20
327.096
 11
685.01
 21
327.096
  0
LINE
  8
0
 10
685.01
 20
327.096
 11
685.01
 21
333.153
  0
LINE
  8
0
 10
685.01
 20
333.153
 11
688.01
 21
333.153
  0
LINE
  8
0
 10
688.01
 20
333.153
 11
688.01
 21
339.21
  0
LINE
  8
0
 10
688.01
 20
339.21
 11
685.01
 21
339.21
  0
LINE
  8
0
 10
685.01
 20
339.21
 11
685.01
 21
345.267
  0
LINE
  8
0
 10
685.01
 20
345.267
 11
688.01
 21
345.267
  0
LINE
  8
0
 10
688.01
 20
345.267
 11
688.01
 21
351.324
  0
LINE
  8
0
 10
688.01
 20
351.324
 11
685.01
 21
351.324
  0
LINE
  8
0
 10
685.01
 20
351.324
 11
685.01
 21
357.381
  0
LINE
  8
0
 10
685.01
 20
357.381
 11
688.01
 21
357.381
  0
LINE
  8
0
 10
688.01
 20
357.381
 11
688.01
 21
363.439
  0
LINE
  8
0
 10
688.01
 20
363.439
 11
685.01
 21
363.439
  0
LINE
  8
0
 10
685.01
 20
363.439
 11
685.01
 21
369.496
  0
LINE
  8
0
 10
685.01
 20
369.496
 11
688.01
 21
369.496
  0
LINE
  8
0
 10
688.01
 20
369.496
 11
688.01
 21
375.553
  0
LINE
  8
0
 10
688.01
 20
375.553
 11
685.01
 21
375.553
  0
LINE
  8
0
 10
685.01
 20
375.553
 11
685.01
 21
381.61
  0
LINE
  8
0
 10
685.01
 20
381.61
 11
688.01
 21
381.61
  0
LINE
  8
0
 10
688.01
 20
381.61
 11
688.01
 21
387.667
  0
LINE
  8
0
 10
688.01
 20
387.667
 11
685.01
 21
387.667
  0
LINE
  8
0
 10
685.01
 20
387.667
 11
685.01
 21
393.724
  0
LINE
  8
0
 10
685.01
 20
393.724
 11
688.01
 21
393.724
  0
LINE
  8
0
 10
688.01
 20
393.724
 11
688.01
 21
399.781
  0
LINE
  8
0
 10
688.01
 20
399.781
 11
685.01
 21
399.781
  0
LINE
  8
0
 10
685.01
 20
399.781
 11
685.01
 21
405.839
  0
LINE
  8
0
 10
685.01
 20
405.839
 11
688.01
 21
405.839
  0
LINE
  8
0
 10
688.01
 20
405.839
 11
688.01
 21
411.896
  0
LINE
  8
0
 10
688.01
 20
411.896
 11
685.01
 21
411.896
  0
LINE
  8
0
 10
685.01
 20
411.896
 11
685.01
 21
417.953
  0
LINE
  8
0
 10
685.01
 20
417.953
 11
688.01
 21
417.953
  0
LINE
  8
0
 10
688.01
 20
417.953
 11
688.01
 21
424.01
  0
LINE
  8
0
 10
688.01
 20
424.01
 11
685.01
 21
424.01
  0
LINE
  8
0
 10
685.01
 20
424.01
 11
685.01
 21
433.01
  0
LINE
  8
0
 10
685.01
 20
433.01
 11
679.01
 21
433.01
  0
LINE
  8
0
 10
679.01
 20
433.01
 11
679.01
 21
436.01
  0
LINE
  8
0
 10
679.01
 20
436.01
 11
672.859
 21
436.01
  0
LINE
  8
0
 10
672.859
 20
436.01
 11
672.859
 21
433.01
  0
LINE
  8
0
 10
672.859
 20
433.01
 11
666.708
 21
433.01
  0
LINE
  8
0
 10
666.708
 20
433.01
 11
666.708
 21
436.01
  0
LINE
  8
0
 10
666.708
 20
436.01
 11
660.557
 21
436.01
  0
LINE
  8
0
 10
660.557
 20
436.01
 11
660.557
 21
433.01
  0
LINE
  8
0
 10
660.557
 20
433.01
 11
654.406
 21
433.01
  0
LINE
  8
0
 10
654.406
 20
433.01
 11
654.406
 21
436.01
  0
LINE
  8
0
 10
654.406
 20
436.01
 11
648.255
 21
436.01
  0
LINE
  8
0
 10
648.255
 20
436.01
 11
648.255
 21
433.01
  0
LINE
  8
0
 10
648.255
 20
433.01
 11
642.104
 21
433.01
  0
LINE
  8
0
 10
642.104
 20
433.01
 11
642.104
 21
436.01
  0
LINE
  8
0
 10
642.104
 20
436.01
 11
635.953
 21
436.01
  0
LINE
  8
0
 10
635.953
 20
436.01
 11
635.953
 21
433.01
  0
LINE
  8
0
 10
635.953
 20
433.01
 11
629.802
 21
433.01
  0
LINE
  8
0
 10
629.802
 20
433.01
 11
629.802
 21
436.01
  0
LINE
  8
0
 10
629.802
 20
436.01
 11
623.652
 21
436.01
  0
LINE
  8
0
 10
623.652
 20
436.01
 11
623.652
 21
433.01
  0
LINE
  8
0
 10
623.652
 20
433.01
 11
617.501
 21
433.01
  0
LINE
  8
0
 10
617.501
 20
433.01
 11
617.501
 21
436.01
  0
LINE
  8
0
 10
617.501
 20
436.01
 11
611.35
 21
436.01
  0
LINE
  8
0
 10
611.35
 20
436.01
 11
611.35
 21
433.01
  0
LINE
  8
0
 10
611.35
 20
433.01
 11
605.199
 21
433.01
  0
LINE
  8
0
 10
605.199
 20
433.01
 11
605.199
 21
436.01
  0
LINE
  8
0
 10
605.199
 20
436.01
 11
599.048
 21
436.01
  0
LINE
  8
0
 10
599.048
 20
436.01
 11
599.048
 21
433.01
  0
LINE
  8
0
 10
599.048
 20
433.01
 11
592.897
 21
433.01
  0
LINE
  8
0
 10
592.897
 20
433.01
 11
592.897
 21
436.01
  0
LINE
  8
0
 10
592.897
 20
436.01
 11
586.746
 21
436.01
  0
LINE
  8
0
 10
586.746
 20
436.01
 11
586.746
 21
433.01
  0
LINE
  8
0
 10
586.746
 20
433.01
 11
580.595
 21
433.01
  0
LINE
  8
0
 10
580.595
 20
433.01
 11
580.595
 21
436.01
  0
LINE
  8
0
 10
580.595
 20
436.01
 11
574.444
 21
436.01
  0
LINE
  8
0
 10
574.444
 20
436.01
 11
574.444
 21
433.01
  0
LINE
  8
0
 10
574.444
 20
433.01
 11
568.293
 21
433.01
  0
LINE
  8
0
 10
568.293
 20
433.01
 11
568.293
 21
436.01
  0
LINE
  8
0
 10
568.293
 20
436.01
 11
562.142
 21
436.01
  0
LINE
  8
0
 10
562.142
 20
436.01
 11
562.142
 21
433.01
  0
LINE
  8
0
 10
562.142
 20
433.01
 11
555.991
 21
433.01
  0
LINE
  8
0
 10
555.991
 20
433.01
 11
555.991
 21
436.01
  0
LINE
  8
0
 10
555.991
 20
436.01
 11
549.84
 21
436.01
  0
LINE
  8
0
 10
549.84
 20
436.01
 11
549.84
 21
433.01
  0
LINE
  8
0
 10
549.84
 20
433.01
 11
543.689
 21
433.01
  0
LINE
  8
0
 10
543.689
 20
433.01
 11
543.689
 21
436.01
  0
LINE
  8
0
 10
543.689
 20
436.01
 11
537.538
 21
436.01
  0
LINE
  8
0
 10
537.538
 20
436.01
 11
537.538
 21
433.01
  0
LINE
  8
0
 10
537.538
 20
433.01
 11
531.387
 21
433.01
  0
LINE
  8
0
 10
531.387
 20
433.01
 11
531.387
 21
436.01
  0
LINE
  8
0
 10
531.387
 20
436.01
 11
525.236
 21
436.01
  0
LINE
  8
0
 10
525.236
 20
436.01
 11
525.236
 21
433.01
  0
LINE
  8
0
 10
525.236
 20
433.01
 11
519.085
 21
433.01
  0
LINE
  8
0
 10
519.085
 20
433.01
 11
519.085
 21
436.01
  0
LINE
  8
0
 10
519.085
 20
436.01
 11
512.935
 21
436.01
  0
LINE
  8
0
 10
512.935
 20
436.01
 11
512.935
 21
433.01
  0
LINE
  8
0
 10
512.935
 20
433.01
 11
506.784
 21
433.01
  0
LINE
  8
0
 10
506.784
 20
433.01
 11
506.784
 21
436.01
  0
LINE
  8
0
 10
506.784
 20
436.01
 11
500.633
 21
436.01
  0
LINE
  8
0
 10
500.633
 20
436.01
 11
500.633
 21
433.01
  0
LINE
  8
0
 10
500.633
 20
433.01
 11
494.482
 21
433.01
  0
LINE
  8
0
 10
494.482
 20
433.01
 11
494.482
 21
436.01
  0
LINE
  8
0
 10
494.482
 20
436.01
 11
488.331
 21
436.01
  0
LINE
  8
0
 10
488.331
 20
436.01
 11
488.331
 21
433.01
  0
LINE
  8
0
 10
488.331
 20
433.01
 11
482.18
 21
433.01
  0
LINE
  8
0
 10
482.18
 20
433.01
 11
482.18
 21
436.01
  0
LINE
  8
0
 10
482.18
 20
436.01
 11
476.029
 21
436.01
  0
LINE
  8
0
 10
476.029
 20
436.01
 11
476.029
 21
433.01
  0
LINE
  8
0
 10
476.029
 20
433.01
 11
469.878
 21
433.01
  0
LINE
  8
0
 10
469.878
 20
433.01
 11
469.878
 21
436.01
  0
LINE
  8
0
 10
469.878
 20
436.01
 11
463.727
 21
436.01
  0
LINE
  8
0
 10
463.727
 20
436.01
 11
463.727
 21
433.01
  0
LINE
  8
0
 10
463.727
 20
433.01
 11
457.576
 21
433.01
  0
LINE
  8
0
 10
457.576
 20
433.01
 11
457.576
 21
436.01
  0
LINE
  8
0
 10
457.576
 20
436.01
 11
451.425
 21
436.01
  0
LINE
  8
0
 10
451.425
 20
436.01
 11
451.425
 21
433.01
  0
LINE
  8
0
 10
451.425
 20
433.01
 11
445.274
 21
433.01
  0
LINE
  8
0
 10
445.274
 20
433.01
 11
445.274
 21
436.01
  0
LINE
  8
0
 10
445.274
 20
436.01
 11
439.123
 21
436.01
  0
LINE
  8
0
 10
439.123
 20
436.01
 11
439.123
 21
433.01
  0
LINE
  8
0
 10
439.123
 20
433.01
 11
432.972
 21
433.01
  0
LINE
  8
0
 10
432.972
 20
433.01
 11
432.972
 21
436.01
  0
LINE
  8
0
 10
432.972
 20
436.01
 11
426.821
 21
436.01
  0
LINE
  8
0
 10
426.821
 20
436.01
 11
426.821
 21
433.01
  0
LINE
  8
0
 10
426.821
 20
433.01
 11
420.67
 21
433.01
  0
LINE
  8
0
 10
420.67
 20
433.01
 11
420.67
 21
436.01
  0
LINE
  8
0
 10
420.67
 20
436.01
 11
414.519
 21
436.01
  0
LINE
  8
0
 10
414.519
 20
436.01
 11
414.519
 21
433.01
  0
LINE
  8
0
 10
414.519
 20
433.01
 11
408.368
 21
433.01
  0
LINE
  8
0
 10
408.368
 20
433.01
 11
408.368
 21
436.01
  0
LINE
  8
0
 10
408.368
 20
436.01
 11
402.218
 21
436.01
  0
LINE
  8
0
 10
402.218
 20
436.01
 11
402.218
 21
433.01
  0
LINE
  8
0
 10
402.218
 20
433.01
 11
396.067
 21
433.01
  0
LINE
  8
0
 10
396.067
 20
433.01
 11
396.067
 21
436.01
  0
LINE
  8
0
 10
396.067
 20
436.01
 11
389.916
 21
436.01
  0
LINE
  8
0
 10
389.916
 20
436.01
 11
389.916
 21
433.01
  0
LINE
  8
0
 10
389.916
 20
433.01
 11
383.765
 21
433.01
  0
LINE
  8
0
 10
383.765
 20
433.01
 11
383.765
 21
436.01
  0
LINE
  8
0
 10
383.765
 20
436.01
 11
377.614
 21
436.01
  0
LINE
  8
0
 10
377.614
 20
436.01
 11
377.614
 21
433.01
  0
LINE
  8
0
 10
377.614
 20
433.01
 11
371.463
 21
433.01
  0
LINE
  8
0
 10
371.463
 20
433.01
 11
371.463
 21
436.01
  0
LINE
  8
0
 10
371.463
 20
436.01
 11
365.312
 21
436.01
  0
LINE
  8
0
 10
365.312
 20
436.01
 11
365.312
 21
433.01
  0
LINE
  8
0
 10
365.312
 20
433.01
 11
359.161
 21
433.01
  0
LINE
  8
0
 10
359.161
 20
433.01
 11
359.161
 21
436.01
  0
LINE
  8
0
 10
359.161
 20
436.01
 11
353.01
 21
436.01
  0
LINE
  8
0
 10
353.01
 20
436.01
 11
353.01
 21
433.01
  0
LINE
  8
0
 10
353.01
 20
433.01
 11
347.01
 21
433.01
  0
LINE
  8
0
 10
347.01
 20
433.01
 11
347.01
 21
424.01
  0
LINE
  8
0
 10
347.01
 20
424.01
 11
344.01
 21
424.01
  0
LINE
  8
0
 10
344.01
 20
424.01
 11
344.01
 21
417.953
  0
LINE
  8
0
 10
344.01
 20
417.953
 11
347.01
 21
417.953
  0
LINE
  8
0
 10
347.01
 20
417.953
 11
347.01
 21
411.896
  0
LINE
  8
0
 10
347.01
 20
411.896
 11
344.01
 21
411.896
  0
LINE
  8
0
 10
344.01
 20
411.896
 11
344.01
 21
405.839
  0
LINE
  8
0
 10
344.01
 20
405.839
 11
347.01
 21
405.839
  0
LINE
  8
0
 10
347.01
 20
405.839
 11
347.01
 21
399.781
  0
LINE
  8
0
 10
347.01
 20
399.781
 11
344.01
 21
399.781
  0
LINE
  8
0
 10
344.01
 20
399.781
 11
344.01
 21
393.724
  0
LINE
  8
0
 10
344.01
 20
393.724
 11
347.01
 21
393.724
  0
LINE
  8
0
 10
347.01
 20
393.724
 11
347.01
 21
387.667
  0
LINE
  8
0
 10
347.01
 20
387.667
 11
344.01
 21
387.667
  0
LINE
  8
0
 10
344.01
 20
387.667
 11
344.01
 21
381.61
  0
LINE
  8
0
 10
344.01
 20
381.61
 11
347.01
 21
381.61
  0
LINE
  8
0
 10
347.01
 20
381.61
 11
347.01
 21
375.553
  0
LINE
  8
0
 10
347.01
 20
375.553
 11
344.01
 21
375.553
  0
LINE
  8
0
 10
344.01
 20
375.553
 11
344.01
 21
369.496
  0
LINE
  8
0
 10
344.01
 20
369.496
 11
347.01
 21
369.496
  0
LINE
  8
0
 10
347.01
 20
369.496
 11
347.01
 21
363.439
  0
LINE
  8
0
 10
347.01
 20
363.439
 11
344.01
 21
363.439
  0
LINE
  8
0
 10
344.01
 20
363.439
 11
344.01
 21
357.381
  0
LINE
  8
0
 10
344.01
 20
357.381
 11
347.01
 21
357.381
  0
LINE
  8
0
 10
347.01
 20
357.381
 11
347.01
 21
351.324
  0
LINE
  8
0
 10
347.01
 20
351.324
 11
344.01
 21
351.324
  0
LINE
  8
0
 10
344.01
 20
351.324
 11
344.01
 21
345.267
  0
LINE
  8
0
 10
344.01
 20
345.267
 11
347.01
 21
345.267
  0
LINE
  8
0
 10
347.01
 20
345.267
 11
347.01
 21
339.21
  0
LINE
  8
0
 10
347.01
 20
339.21
 11
344.01
 21
339.21
  0
LINE
  8
0
 10
344.01
 20
339.21
 11
344.01
 21
333.153
  0
LINE
  8
0
 10
344.01
 20
333.153
 11
347.01
 21
333.153
  0
LINE
  8
0
 10
347.01
 20
333.153
 11
347.01
 21
327.096
  0
LINE
  8
0
 10
347.01
 20
327.096
 11
344.01
 21
327.096
  0
LINE
  8
0
 10
344.01
 20
327.096
 11
344.01
 21
321.039
  0
LINE
  8
0
 10
344.01
 20
321.039
 11
347.01
 21
321.039
  0
LINE
  8
0
 10
347.01
 20
321.039
 11
347.01
 21
314.981
  0
LINE
  8
0
 10
347.01
 20
314.981
 11
344.01
 21
314.981
  0
LINE
  8
0
 10
344.01
 20
314.981
 11
344.01
 21
308.924
  0
LINE
  8
0
 10
344.01
 20
308.924
 11
347.01
 21
308.924
  0
LINE
  8
0
 10
347.01
 20
308.924
 11
347.01
 21
302.867
  0
LINE
  8
0
 10
347.01
 20
302.867
 11
344.01
 21
302.867
  0
LINE
  8
0
 10
344.01
 20
302.867
 11
344.01
 21
296.81
  0
LINE
  8
0
 10
344.01
 20
296.81
 11
347.01
 21
296.81
  0
LINE
  8
0
 10
347.01
 20
296.81
 11
347.01
 21
290.753
  0
LINE
  8
0
 10
347.01
 20
290.753
 11
344.01
 21
290.753
  0
LINE
  8
0
 10
344.01
 20
290.753
 11
344.01
 21
284.696
  0
LINE
  8
0
 10
344.01
 20
284.696
 11
347.01
 21
284.696
  0
LINE
  8
0
 10
347.01
 20
284.696
 11
347.01
 21
278.639
  0
LINE
  8
0
 10
347.01
 20
278.639
 11
344.01
 21
278.639
  0
LINE
  8
0
 10
344.01
 20
278.639
 11
344.01
 21
272.581
  0
LINE
  8
0
 10
344.01
 20
272.581
 11
347.01
 21
272.581
  0
LINE
  8
0
 10
347.01
 20
272.581
 11
347.01
 21
266.524
  0
LINE
  8
0
 10
347.01
 20
266.524
 11
344.01
 21
266.524
  0
LINE
  8
0
 10
344.01
 20
266.524
 11
344.01
 21
260.467
  0
LINE
  8
0
 10
344.01
 20
260.467
 11
347.01
 21
260.467
  0
LINE
  8
0
 10
347.01
 20
260.467
 11
347.01
 21
254.41
  0
LINE
  8
0
 10
347.01
 20
254.41
 11
344.01
 21
254.41
  0
LINE
  8
0
 10
344.01
 20
254.41
 11
344.01
 21
248.353
  0
LINE
  8
0
 10
344.01
 20
248.353
 11
347.01
 21
248.353
  0
LINE
  8
0
 10
347.01
 20
248.353
 11
347.01
 21
242.296
  0
LINE
  8
0
 10
347.01
 20
242.296
 11
344.01
 21
242.296
  0
LINE
  8
0
 10
344.01
 20
242.296
 11
344.01
 21
236.239
  0
LINE
  8
0
 10
344.01
 20
236.239
 11
347.01
 21
236.239
  0
LINE
  8
0
 10
347.01
 20
236.239
 11
347.01
 21
230.181
  0
LINE
  8
0
 10
347.01
 20
230.181
 11
344.01
 21
230.181
  0
LINE
  8
0
 10
344.01
 20
230.181
 11
344.01
 21
224.124
  0
LINE
  8
0
 10
344.01
 20
224.124
 11
347.01
 21
224.124
  0
LINE
  8
0
 10
347.01
 20
224.124
 11
347.01
 21
218.067
  0
LINE
  8
0
 10
347.01
 20
218.067
 11
344.01
 21
218.067
  0
LINE
  8
0
 10
344.01
 20
218.067
 11
344.01
 21
212.01
  0
LINE
  8
0
 10
344.01
 20
212.01
 11
347.01
 21
212.01
  0
LINE
  8
0
 10
347.01
 20
212.01
 11
347.01
 21
203.01
  0
LINE
  8
0
 10
347.01
 20
203.01
 11
353.01
 21
203.01
  0
LINE
  8
0
 10
353.01
 20
203.01
 11
353.01
 21
200.01
  0
LINE
  8
0
 10
353.01
 20
200.01
 11
359.161
 21
200.01
  0
LINE
  8
0
 10
359.161
 20
200.01
 11
359.161
 21
203.01
  0
LINE
  8
0
 10
353.01
 20
3
 11
359.161
 21
3
  0
LINE
  8
0
 10
359.161
 20
3
 11
359.161
 21
0
  0
LINE
  8
0
 10
359.161
 20
0
 11
365.312
 21
0
  0
LINE
  8
0
 10
365.312
 20
0
 11
365.312
 21
3
  0
LINE
  8
0
 10
365.312
 20
3
 11
371.463
 21
3
  0
LINE
  8
0
 10
371.463
 20
3
 11
371.463
 21
0
  0
LINE
  8
0
 10
371.463
 20
0
 11
377.614
 21
0
  0
LINE
  8
0
 10
377.614
 20
0
 11
377.614
 21
3
  0
LINE
  8
0
 10
377.614
 20
3
 11
383.765
 21
3
  0
LINE
  8
0
 10
383.765
 20
3
 11
383.765
 21
0
  0
LINE
  8
0
 10
383.765
 20
0
 11
389.916
 21
0
  0
LINE
  8
0
 10
389.916
 20
0
 11
389.916
 21
3
  0
LINE
  8
0
 10
389.916
 20
3
 11
396.067
 21
3
  0
LINE
  8
0
 10
396.067
 20
3
 11
396.067
 21
0
  0
LINE
  8
0
 10
396.067
 20
0
 11
402.218
 21
0
  0
LINE
  8
0
 10
402.218
 20
0
 11
402.218
 21
3
  0
LINE
  8
0
 10
402.218
 20
3
 11
408.368
 21
3
  0
LINE
  8
0
 10
408.368
 20
3
 11
408.368
 21
0
  0
LINE
  8
0
 10
408.368
 20
0
 11
414.519
 21
0
  0
LINE
  8
0
 10
414.519
 20
0
 11
414.519
 21
3
  0
LINE
  8
0
 10
414.519
 20
3
 11
420.67
 21
3
  0
LINE
  8
0
 10
420.67
 20
3
 11
420.67
 21
0
  0
LINE
  8
0
 10
420.67
 20
0
 11
426.821
 21
0
  0
LINE
  8
0
 10
426.821
 20
0
 11
426.821
 21
3
  0
LINE
  8
0
 10
426.821
 20
3
 11
432.972
 21
3
  0
LINE
  8
0
 10
432.972
 20
3
 11
432.972
 21
0
  0
LINE
  8
0
 10
432.972
 20
0
 11
439.123
 21
0
  0
LINE
  8
0
 10
439.123
 20
0
 11
439.123
 21
3
  0
LINE
  8
0
 10
439.123
 20
3
 11
445.274
 21
3
  0
LINE
  8
0
 10
445.274
 20
3
 11
445.274
 21
0
  0
LINE
  8
0
 10
445.274
 20
0
 11
451.425
 21
0
  0
LINE
  8
0
 10
451.425
 20
0
 11
451.425
 21
3
  0
LINE
  8
0
 10
451.425
 20
3
 11
457.576
 21
3
  0
LINE
  8
0
 10
457.576
 20
3
 11
457.576
 21
0
  0
LINE
  8
0
 10
457.576
 20
0
 11
463.727
 21
0
  0
LINE
  8
0
 10
463.727
 20
0
 11
463.727
 21
3
  0
LINE
  8
0
 10
463.727
 20
3
 11
469.878
 21
3
  0
LINE
  8
0
 10
469.878
 20
3
 11
469.878
 21
0
  0
LINE
  8
0
 10
469.878
 20
0
 11
476.029
 21
0
  0
LINE
  8
0
 10
476.029
 20
0
 11
476.029
 21
3
  0
LINE
  8
0
 10
476.029
 20
3
 11
482.18
 21
3
  0
LINE
  8
0
 10
482.18
 20
3
 11
482.18
 21
0
  0
LINE
  8
0
 10
482.18
 20
0
 11
488.331
 21
0
  0
LINE
  8
0
 10
488.331
 20
0
 11
488.331
 21
3
  0
LINE
  8
0
 10
488.331
 20
3
 11
494.482
 21
3
  0
LINE
  8
0
 10
494.482
 20
3
 11
494.482
 21
0
  0
LINE
  8
0
 10
494.482
 20
0
 11
500.633
 21
0
  0
LINE
  8
0
 10
500.633
 20
0
 11
500.633
 21
3
  0
LINE
  8
0
 10
500.633
 20
3
 11
506.784
 21
3
  0
LINE
  8
0
 10
506.784
 20
3
 11
506.784
 21
0
  0
LINE
  8
0
 10
506.784
 20
0
 11
512.935
 21
0
  0
LINE
  8
0
 10
512.935
 20
0
 11
512.935
 21
3
  0
LINE
  8
0
 10
512.935
 20
3
 11
519.085
 21
3
  0
LINE
  8
0
 10
519.085
 20
3
 11
519.085
 21
0
  0
LINE
  8
0
 10
519.085
 20
0
 11
525.236
 21
0
  0
LINE
  8
0
 10
525.236
 20
0
 11
525.236
 21
3
  0
LINE
  8
0
 10
525.236
 20
3
 11
531.387
 21
3
  0
LINE
  8
0
 10
531.387
 20
3
 11
531.387
 21
0
  0
LINE
  8
0
 10
531.387
 20
0
 11
537.538
 21
0
  0
LINE
  8
0
 10
537.538
 20
0
 11
537.538
 21
3
  0
LINE
  8
0
 10
537.538
 20
3
 11
543.689
 21
3
  0
LINE
  8
0
 10
543.689
 20
3
 11
543.689
 21
0
  0
LINE
  8
0
 10
543.689
 20
0
 11
549.84
 21
0
  0
LINE
  8
0
 10
549.84
 20
0
 11
549.84
 21
3
  0
LINE
  8
0
 10
549.84
 20
3
 11
555.991
 21
3
  0
LINE
  8
0
 10
555.991
 20
3
 11
555.991
 21
0
  0
LINE
  8
0
 10
555.991
 20
0
 11
562.142
 21
0
  0
LINE
  8
0
 10
562.142
 20
0
 11
562.142
 21
3
  0
LINE
  8
0
 10
562.142
 20
3
 11
568.293
 21
3
  0
LINE
  8
0
 10
568.293
 20
3
 11
568.293
 21
0
  0
LINE
  8
0
 10
568.293
 20
0
 11
574.444
 21
0
  0
LINE
  8
0
 10
574.444
 20
0
 11
574.444
 21
3
  0
LINE
  8
0
 10
574.444
 20
3
 11
580.595
 21
3
  0
LINE
  8
0
 10
580.595
 20
3
 11
580.595
 21
0
  0
LINE
  8
0
 10
580.595
 20
0
 11
586.746
 21
0
  0
LINE
  8
0
 10
586.746
 20
0
 11
586.746
 21
3
  0
LINE
  8
0
 10
586.746
 20
3
 11
592.897
 21
3
  0
LINE
  8
0
 10
592.897
 20
3
 11
592.897
 21
0
  0
LINE
  8
0
 10
592.897
 20
0
 11
599.048
 21
0
  0
LINE
  8
0
 10
599.048
 20
0
 11
599.048
 21
3
  0
LINE
  8
0
 10
599.048
 20
3
 11
605.199
 21
3
  0
LINE
  8
0
 10
605.199
 20
3
 11
605.199
 21
0
  0
LINE
  8
0
 10
605.199
 20
0
 11
611.35
 21
0
  0
LINE
  8
0
 10
611.35
 20
0
 11
611.35
 21
3
  0
LINE
  8
0
 10
611.35
 20
3
 11
617.501
 21
3
  0
LINE
  8
0
 10
617.501
 20
3
 11
617.501
 21
0
  0
LINE
  8
0
 10
617.501
 20
0
 11
623.651
 21
0
  0
LINE
  8
0
 10
623.651
 20
0
 11
623.651
 21
3
  0
LINE
  8
0
 10
623.651
 20
3
 11
629.802
 21
3
  0
LINE
  8
0
 10
629.802
 20
3
 11
629.802
 21
0
  0
LINE
  8
0
 10
629.802
 20
0
 11
635.953
 21
0
  0
LINE
  8
0
 10
635.953
 20
0
 11
635.953
 21
3
  0
LINE
  8
0
 10
635.953
 20
3
 11
642.104
 21
3
  0
LINE
  8
0
 10
642.104
 20
3
 11
642.104
 21
0
  0
LINE
  8
0
 10
642.104
 20
0
 11
648.255
 21
0
  0
LINE
  8
0
 10
648.255
 20
0
 11
648.255
 21
3
  0
LINE
  8
0
 10
648.255
 20
3
 11
654.406
 21
3
  0
LINE
  8
0
 10
654.406
 20
3
 11
654.406
 21
0
  0
LINE
  8
0
 10
654.406
 20
0
 11
660.557
 21
0
  0
LINE
  8
0
 10
660.557
 20
0
 11
660.557
 21
3
  0
LINE
  8
0
 10
660.557
 20
3
 11
666.708
 21
3
  0
LINE
  8
0
 10
666.708
 20
3
 11
666.708
 21
0
  0
LINE
  8
0
 10
666.708
 20
0
 11
672.859
 21
0
  0
LINE
  8
0
 10
672.859
 20
0
 11
672.859
 21
3
  0
LINE
  8
0
 10
672.859
 20
3
 11
679.01
 21
3
  0
LINE
  8
0
 10
679.01
 20
3
 11
679.01
 21
0
  0
LINE
  8
0
 10
679.01
 20
0
 11
688.01
 21
0
  0
LINE
  8
0
 10
688.01
 20
0
 11
688.01
 21
9
  0
LINE
  8
0
 10
688.01
 20
9
 11
685.01
 21
9
  0
LINE
  8
0
 10
685.01
 20
9
 11
685.01
 21
15.2758
  0
LINE
  8
0
 10
685.01
 20
15.2758
 11
688.01
 21
15.2758
  0
LINE
  8
0
 10
688.01
 20
15.2758
 11
688.01
 21
21.5517
  0
LINE
  8
0
 10
688.01
 20
21.5517
 11
685.01
 21
21.5517
  0
LINE
  8
0
 10
685.01
 20
21.5517
 11
685.01
 21
27.8276
  0
LINE
  8
0
 10
685.01
 20
27.8276
 11
688.01
 21
27.8276
  0
LINE
  8
0
 10
688.01
 20
27.8276
 11
688.01
 21
34.1034
  0
LINE
  8
0
 10
688.01
 20
34.1034
 11
685.01
 21
34.1034
  0
LINE
  8
0
 10
685.01
 20
34.1034
 11
685.01
 21
40.3793
  0
LINE
  8
0
 10
685.01
 20
40.3793
 11
688.01
 21
40.3793
  0
LINE
  8
0
 10
688.01
 20
40.3793
 11
688.01
 21
46.6552
  0
LINE
  8
0
 10
688.01
 20
46.6552
 11
685.01
 21
46.6552
  0
LINE
  8
0
 10
685.01
 20
46.6552
 11
685.01
 21
52.931
  0
LINE
  8
0
 10
685.01
 20
52.931
 11
688.01
 21
52.931
  0
LINE
  8
0
 10
688.01
 20
52.931
 11
688.01
 21
59.2069
  0
LINE
  8
0
 10
688.01
 20
59.2069
 11
685.01
 21
59.2069
  0
LINE
  8
0
 10
685.01
 20
59.2069
 11
685.01
 21
65.4828
  0
LINE
  8
0
 10
685.01
 20
65.4828
 11
688.01
 21
65.4828
  0
LINE
  8
0
 10
688.01
 20
65.4828
 11
688.01
 21
71.7586
  0
LINE
  8
0
 10
688.01
 20
71.7586
 11
685.01
 21
71.7586
  0
LINE
  8
0
 10
685.01
 20
71.7586
 11
685.01
 21
78.0345
  0
LINE
  8
0
 10
685.01
 20
78.0345
 11
688.01
 21
78.0345
  0
LINE
  8
0
 10
688.01
 20
78.0345
 11
688.01
 21
84.3103
  0
LINE
  8
0
 10
688.01
 20
84.3103
 11
685.01
 21
84.3103
  0
LINE
  8
0
 10
685.01
 20
84.3103
 11
685.01
 21
90.5862
  0
LINE
  8
0
 10
685.01
 20
90.5862
 11
688.01
 21
90.5862
  0
LINE
  8
0
 10
688.01
 20
90.5862
 11
688.01
 21
96.8621
  0
LINE
  8
0
 10
688.01
 20
96.8621
 11
685.01
 21
96.8621
  0
LINE
  8
0
 10
685.01
 20
96.8621
 11
685.01
 21
103.138
  0
LINE
  8
0
 10
685.01
 20
103.138
 11
688.01
 21
103.138
  0
LINE
  8
0
 10
688.01
 20
103.138
 11
688.01
 21
109.414
  0
LINE
  8
0
 10
688.01
 20
109.414
 11
685.01
 21
109.414
  0
LINE
  8
0
 10
685.01
 20
109.414
 11
685.01
 21
115.69
  0
LINE
  8
0
 10
685.01
 20
115.69
 11
688.01
 21
115.69
  0
LINE
  8
0
 10
688.01
 20
115.69
 11
688.01
 21
121.966
  0
LINE
  8
0
 10
688.01
 20
121.966
 11
685.01
 21
121.966
  0
LINE
  8
0
 10
685.01
 20
121.966
 11
685.01
 21
128.241
  0
LINE
  8
0
 10
685.01
 20
128.241
 11
688.01
 21
128.241
  0
LINE
  8
0
 10
688.01
 20
128.241
 11
688.01
 21
134.517
  0
LINE
  8
0
 10
688.01
 20
134.517
 11
685.01
 21
134.517
  0
LINE
  8
0
 10
685.01
 20
134.517
 11
685.01
 21
140.793
  0
LINE
  8
0
 10
685.01
 20
140.793
 11
688.01
 21
140.793
  0
LINE
  8
0
 10
688.01
 20
140.793
 11
688.01
 21
147.069
  0
LINE
  8
0
 10
688.01
 20
147.069
 11
685.01
 21
147.069
  0
LINE
  8
0
 10
685.01
 20
147.069
 11
685.01
 21
153.345
  0
LINE
  8
0
 10
685.01
 20
153.345
 11
688.01
 21
153.345
  0
LINE
  8
0
 10
688.01
 20
153.345
 11
688.01
 21
159.621
  0
LINE
  8
0
 10
688.01
 20
159.621
 11
685.01
 21
159.621
  0
LINE
  8
0
 10
685.01
 20
159.621
 11
685.01
 21
165.897
  0
LINE
  8
0
 10
685.01
 20
165.897
 11
688.01
 21
165.897
  0
LINE
  8
0
 10
688.01
 20
165.897
 11
688.01
 21
172.172
  0
LINE
  8
0
 10
688.01
 20
172.172
 11
685.01
 21
172.172
  0
LINE
  8
0
 10
685.01
 20
172.172
 11
685.01
 21
178.448
  0
LINE
  8
0
 10
685.01
 20
178.448
 11
688.01
 21
178.448
  0
LINE
  8
0
 10
688.01
 20
178.448
 11
688.01
 21
184.724
  0
LINE
  8
0
 10
688.01
 20
184.724
 11
685.01
 21
184.724
  0
LINE
  8
0
 10
685.01
 20
184.724
 11
685.01
 21
191
  0
LINE
  8
0
 10
685.01
 20
191
 11
688.01
 21
191
  0
LINE
  8
0
 10
688.01
 20
191
 11
688.01
 21
200
  0
LINE
  8
0
 10
688.01
 20
200
 11
679.01
 21
200
  0
LINE
  8
0
 10
679.01
 20
200
 11
679.01
 21
197
  0
LINE
  8
0
 10
679.01
 20
197
 11
672.859
 21
197
  0
LINE
  8
0
 10
672.859
 20
197
 11
672.859
 21
200
  0
LINE
  8
0
 10
672.859
 20
200
 11
666.708
 21
200
  0
LINE
  8
0
 10
666.708
 20
200
 11
666.708
 21
197
  0
LINE
  8
0
 10
666.708
 20
197
 11
660.557
 21
197
  0
LINE
  8
0
 10
660.557
 20
197
 11
660.557
 21
200
  0
LINE
  8
0
 10
660.557
 20
200
 11
654.406
 21
200
  0
LINE
  8
0
 10
654.406
 20
200
 11
654.406
 21
197
  0
LINE
  8
0
 10
654.406
 20
197
 11
648.255
 21
197
  0
LINE
  8
0
 10
648.255
 20
197
 11
648.255
 21
200
  0
LINE
  8
0
 10
648.255
 20
200
 11
642.104
 21
200
  0
LINE
  8
0
 10
642.104
 20
200
 11
642.104
 21
197
  0
LINE
  8
0
 10
642.104
 20
197
 11
635.953
 21
197
  0
LINE
  8
0
 10
635.953
 20
197
 11
635.953
 21
200
  0
LINE
  8
0
 10
635.953
 20
200
 11
629.802
 21
200
  0
LINE
  8
0
 10
629.802
 20
200
 11
629.802
 21
197
  0
LINE
  8
0
 10
629.802
 20
197
 11
623.652
 21
197
  0
LINE
  8
0
 10
623.652
 20
197
 11
623.652
 21
200
  0
LINE
  8
0
 10
623.652
 20
200
 11
617.501
 21
200
  0
LINE
  8
0
 10
617.501
 20
200
 11
617.501
 21
197
  0
LINE
  8
0
 10
617.501
 20
197
 11
611.35
 21
197
  0
LINE
  8
0
 10
611.35
 20
197
 11
611.35
 21
200
  0
LINE
  8
0
 10
611.35
 20
200
 11
605.199
 21
200
  0
LINE
  8
0
 10
605.199
 20
200
 11
605.199
 21
197
  0
LINE
  8
0
 10
605.199
 20
197
 11
599.048
 21
197
  0
LINE
  8
0
 10
599.048
 20
197
 11
599.048
 21
200
  0
LINE
  8
0
 10
599.048
 20
200
 11
592.897
 21
200
  0
LINE
  8
0
 10
592.897
 20
200
 11
592.897
 21
197
  0
LINE
  8
0
 10
592.897
 20
197
 11
586.746
 21
197
  0
LINE
  8
0
 10
586.746
 20
197
 11
586.746
 21
200
  0
LINE
  8
0
 10
586.746
 20
200
 11
580.595
 21
200
  0
LINE
  8
0
 10
580.595
 20
200
 11
580.595
 21
197
  0
LINE
  8
0
 10
580.595
 20
197
 11
574.444
 21
197
  0
LINE
  8
0
 10
574.444
 20
197
 11
574.444
 21
200
  0
LINE
  8
0
 10
574.444
 20
200
 11
568.293
 21
200
  0
LINE
  8
0
 10
568.293
 20
200
 11
568.293
 21
197
  0
LINE
  8
0
 10
568.293
 20
197
 11
562.142
 21
197
  0
LINE
  8
0
 10
562.142
 20
197
 11
562.142
 21
200
  0
LINE
  8
0
 10
562.142
 20
200
 11
555.991
 21
200
  0
LINE
  8
0
 10
555.991
 20
200
 11
555.991
 21
197
  0
LINE
  8
0
 10
555.991
 20
197
 11
549.84
 21
197
  0
LINE
  8
0
 10
549.84
 20
197
 11
549.84
 21
200
  0
LINE
  8
0
 10
549.84
 20
200
 11
543.689
 21
200
  0
LINE
  8
0
 10
543.689
 20
200
 11
543.689
 21
197
  0
LINE
  8
0
 10
543.689
 20
197
 11
537.538
 21
197
  0
LINE
  8
0
 10
537.538
 20
197
 11
537.538
 21
200
  0
LINE
  8
0
 10
537.538
 20
200
 11
531.387
 21
200
  0
LINE
  8
0
 10
531.387
 20
200
 11
531.387
 21
197
  0
LINE
  8
0
 10
531.387
 20
197
 11
525.236
 21
197
  0
LINE
  8
0
 10
525.236
 20
197
 11
525.236
 21
200
  0
LINE
  8
0
 10
525.236
 20
200
 11
519.085
 21
200
  0
LINE
  8
0
 10
519.085
 20
200
 11
519.085
 21
197
  0
LINE
  8
0
 10
519.085
 20
197
 11
512.935
 21
197
  0
LINE
  8
0
 10
512.935
 20
197
 11
512.935
 21
200
  0
LINE
  8
0
 10
512.935
 20
200
 11
506.784
 21
200
  0
LINE
  8
0
 10
506.784
 20
200
 11
506.784
 21
197
  0
LINE
  8
0
 10
506.784
 20
197
 11
500.633
 21
197
  0
LINE
  8
0
 10
500.633
 20
197
 11
500.633
 21
200
  0
LINE
  8
0
 10
500.633
 20
200
 11
494.482
 21
200
  0
LINE
  8
0
 10
494.482
 20
200
 11
494.482
 21
197
  0
LINE
  8
0
 10
494.482
 20
197
 11
488.331
 21
197
  0
LINE
  8
0
 10
488.331
 20
197
 11
488.331
 21
200
  0
LINE
  8
0
 10
488.331
 20
200
 11
482.18
 21
200
  0
LINE
  8
0
 10
482.18
 20
200
 11
482.18
 21
197
  0
LINE
  8
0
 10
482.18
 20
197
 11
476.029
 21
197
  0
LINE
  8
0
 10
476.029
 20
197
 11
476.029
 21
200
  0
LINE
  8
0
 10
476.029
 20
200
 11
469.878
 21
200
  0
LINE
  8
0
 10
469.878
 20
200
 11
469.878
 21
197
  0
LINE
  8
0
 10
469.878
 20
197
 11
463.727
 21
197
  0
LINE
  8
0
 10
463.727
 20
197
 11
463.727
 21
200
  0
LINE
  8
0
 10
463.727
 20
200
 11
457.576
 21
200
  0
LINE
  8
0
 10
457.576
 20
200
 11
457.576
 21
197
  0
LINE
  8
0
 10
457.576
 20
197
 11
451.425
 21
197
  0
LINE
  8
0
 10
451.425
 20
197
 11
451.425
 21
200
  0
LINE
  8
0
 10
451.425
 20
200
 11
445.274
 21
200
  0
LINE
  8
0
 10
445.274
 20
200
 11
445.274
 21
197
  0
LINE
  8
0
 10
445.274
 20
197
 11
439.123
 21
197
  0
LINE
  8
0
 10
439.123
 20
197
 11
439.123
 21
200
  0
LINE
  8
0
 10
439.123
 20
200
 11
432.972
 21
200
  0
LINE
  8
0
 10
432.972
 20
200
 11
432.972
 21
197
  0
LINE
  8
0
 10
432.972
 20
197
 11
426.821
 21
197
  0
LINE
  8
0
 10
426.821
 20
197
 11
426.821
 21
200
  0
LINE
  8
0
 10
426.821
 20
200
 11
420.67
 21
200
  0
LINE
  8
0
 10
420.67
 20
200
 11
420.67
 21
197
  0
LINE
  8
0
 10
420.67
 20
197
 11
414.519
 21
197
  0
LINE
  8
0
 10
414.519
 20
197
 11
414.519
 21
200
  0
LINE
  8
0
 10
414.519
 20
200
 11
408.368
 21
200
  0
LINE
  8
0
 10
408.368
 20
200
 11
408.368
 21
197
  0
LINE
  8
0
 10
408.368
 20
197
 11
402.218
 21
197
  0
LINE
  8
0
 10
402.218
 20
197
 11
402.218
 21
200
  0
LINE
  8
0
 10
402.218
 20
200
 11
396.067
 21
200
  0
LINE
  8
0
 10
396.067
 20
200
 11
396.067
 21
197
  0
LINE
  8
0
 10
396.067
 20
197
 11
389.916
 21
197
  0
LINE
  8
0
 10
389.916
 20
197
 11
389.916
 21
200
  0
LINE
  8
0
 10
389.916
 20
200
 11
383.765
 21
200
  0
LINE
  8
0
 10
383.765
 20
200
 11
383.765
 21
197
  0
LINE
  8
0
 10
383.765
 20
197
 11
377.614
 21
197
  0
LINE
  8
0
 10
377.614
 20
197
 11
377.614
 21
200
  0
LINE
  8
0
 10
377.614
 20
200
 11
371.463
 21
200
  0
LINE
  8
0
 10
371.463
 20
200
 11
371.463
 21
197
  0
LINE
  8
0
 10
371.463
 20
197
 11
365.312
 21
197
  0
LINE
  8
0
 10
365.312
 20
197
 11
365.312
 21
200
  0
LINE
  8
0
 10
365.312
 20
200
 11
359.161
 21
200
  0
LINE
  8
0
 10
359.161
 20
200
 11
359.161
 21
197
  0
LINE
  8
0
 10
359.161
 20
197
 11
353.01
 21
197
  0
LINE
  8
0
 10
353.01
 20
197
 11
353.01
 21
200
  0
LINE
  8
0
 10
353.01
 20
200
 11
344.01
 21
200
  0
LINE
  8
0
 10
344.01
 20
200
 11
344.01
 21
191
  0
LINE
  8
0
 10
344.01
 20
191
 11
347.01
 21
191
  0
LINE
  8
0
 10
347.01
 20
191
 11
347.01
 21
184.724
  0
LINE
  8
0
 10
347.01
 20
184.724
 11
344.01
 21
184.724
  0
LINE
  8
0
 10
344.01
 20
184.724
 11
344.01
 21
178.448
  0
LINE
  8
0
 10
344.01
 20
178.448
 11
347.01
 21
178.448
  0
LINE
  8
0
 10
347.01
 20
178.448
 11
347.01
 21
172.172
  0
LINE
  8
0
 10
347.01
 20
172.172
 11
344.01
 21
172.172
  0
LINE
  8
0
 10
344.01
 20
172.172
 11
344.01
 21
165.897
  0
LINE
  8
0
 10
344.01
 20
165.897
 11
347.01
 21
165.897
  0
LINE
  8
0
 10
347.01
 20
165.897
 11
347.01
 21
159.621
  0
LINE
  8
0
 10
347.01
 20
159.621
 11
344.01
 21
159.621
  0
LINE
  8
0
 10
344.01
 20
159.621
 11
344.01
 21
153.345
  0
LINE
  8
0
 10
344.01
 20
153.345
 11
347.01
 21
153.345
  0
LINE
  8
0
 10
347.01
 20
153.345
 11
347.01
 21
147.069
  0
LINE
  8
0
 10
347.01
 20
147.069
 11
344.01
 21
147.069
  0
LINE
  8
0
 10
344.01
 20
147.069
 11
344.01
 21
140.793
  0
LINE
  8
0
 10
344.01
 20
140.793
 11
347.01
 21
140.793
  0
LINE
  8
0
 10
347.01
 20
140.793
 11
347.01
 21
134.517
  0
LINE
  8
0
 10
347.01
 20
134.517
 11
344.01
 21
134.517
  0
LINE
  8
0
 10
344.01
 20
134.517
 11
344.01
 21
128.241
  0
LINE
  8
0
 10
344.01
 20
128.241
 11
347.01
 21
128.241
  0
LINE
  8
0
 10
347.01
 20
128.241
 11
347.01
 21
121.966
  0
LINE
  8
0
 10
347.01
 20
121.966
 11
344.01
 21
121.966
  0
LINE
  8
0
 10
344.01
 20
121.966
 11
344.01
 21
115.69
  0
LINE
  8
0
 10
344.01
 20
115.69
 11
347.01
 21
115.69
  0
LINE
  8
0
 10
347.01
 20
115.69
 11
347.01
 21
109.414
  0
LINE
  8
0
 10
347.01
 20
109.414
 11
344.01
 21
109.414
  0
LINE
  8
0
 10
344.01
 20
109.414
 11
344.01
 21
103.138
  0
LINE
  8
0
 10
344.01
 20
103.138
 11
347.01
 21
103.138
  0
LINE
  8
0
 10
347.01
 20
103.138
 11
347.01
 21
96.8621
  0
LINE
  8
0
 10
347.01
 20
96.8621
 11
344.01
 21
96.8621
  0
LINE
  8
0
 10
344.01
 20
96.8621
 11
344.01
 21
90.5862
  0
LINE
  8
0
 10
344.01
 20
90.5862
 11
347.01
 21
90.5862
  0
LINE
  8
0
 10
347.01
 20
90.5862
 11
347.01
 21
84.3103
  0
LINE
  8
0
 10
347.01
 20
84.3103
 11
344.01
 21
84.3103
  0
LINE
  8
0
 10
344.01
 20
84.3103
 11
344.01
 21
78.0345
  0
LINE
  8
0
 10
344.01
 20
78.0345
 11
347.01
 21
78.0345
  0
LINE
  8
0
 10
347.01
 20
78.0345
 11
347.01
 21
71.7586
  0
LINE
  8
0
 10
347.01
 20
71.7586
 11
344.01
 21
71.7586
  0
LINE
  8
0
 10
344.01
 20
71.7586
 11
344.01
 21
65.4828
  0
LINE
  8
0
 10
344.01
 20
65.4828
 11
347.01
 21
65.4828
  0
LINE
  8
0
 10
347.01
 20
65.4828
 11
347.01
 21
59.2069
  0
LINE
  8
0
 10
347.01
 20
59.2069
 11
344.01
 21
59.2069
  0
LINE
  8
0
 10
344.01
 20
59.2069
 11
344.01
 21
52.931
  0
LINE
  8
0
 10
344.01
 20
52.931
 11
347.01
 21
52.931
  0
LINE
  8
0
 10
347.01
 20
52.931
 11
347.01
 21
46.6552
  0
LINE
  8
0
 10
347.01
 20
46.6552
 11
344.01
 21
46.6552
  0
LINE
  8
0
 10
344.01
 20
46.6552
 11
344.01
 21
40.3793
  0
LINE
  8
0
 10
344.01
 20
40.3793
 11
347.01
 21
40.3793
  0
LINE
  8
0
 10
347.01
 20
40.3793
 11
347.01
 21
34.1035
  0
LINE
  8
0
 10
347.01
 20
34.1035
 11
344.01
 21
34.1035
  0
LINE
  8
0
 10
344.01
 20
34.1035
 11
344.01
 21
27.8276
  0
LINE
  8
0
 10
344.01
 20
27.8276
 11
347.01
 21
27.8276
  0
LINE
  8
0
 10
347.01
 20
27.8276
 11
347.01
 21
21.5517
  0
LINE
  8
0
 10
347.01
 20
21.5517
 11
344.01
 21
21.5517
  0
LINE
  8
0
 10
344.01
 20
21.5517
 11
344.01
 21
15.2759
  0
LINE
  8
0
 10
344.01
 20
15.2759
 11
347.01
 21
15.2759
  0
LINE
  8
0
 10
347.01
 20
15.2759
 11
347.01
 21
9
  0
LINE
  8
0
 10
347.01
 20
9
 11
344.01
 21
9
  0
LINE
  8
0
 10
344.01
 20
9
 11
344.01
 21
0
  0
LINE
  8
0
 10
344.01
 20
0
 11
353.01
 21
0
  0
LINE
  8
0
 10
353.01
 20
0
 11
353.01
 21
3
  0
LINE
  8
0
 10
700.02
 20
3
 11
706.077
 21
3
  0
LINE
  8
0
 10
706.077
 20
3
 11
706.077
 21
0
  0
LINE
  8
0
 10
706.077
 20
0
 11
712.134
 21
0
  0
LINE
  8
0
 10
712.134
 20
0
 11
712.134
 21
3
  0
LINE
  8
0
 10
712.134
 20
3
 11
718.191
 21
3
  0
LINE
  8
0
 10
718.191
 20
3
 11
718.191
 21
0
  0
LINE
  8
0
 10
718.191
 20
0
 11
724.249
 21
0
  0
LINE
  8
0
 10
724.249
 20
0
 11
724.249
 21
3
  0
LINE
  8
0
 10
724.249
 20
3
 11
730.306
 21
3
  0
LINE
  8
0
 10
730.306
 20
3
 11
730.306
 21
0
  0
LINE
  8
0
 10
730.306
 20
0
 11
736.363
 21
0
  0
LINE
  8
0
 10
736.363
 20
0
 11
736.363
 21
3
  0
LINE
  8
0
 10
736.363
 20
3
 11
742.42
 21
3
  0
LINE
  8
0
 10
742.42
 20
3
 11
742.42
 21
0
  0
LINE
  8
0
 10
742.42
 20
0
 11
748.477
 21
0
  0
LINE
  8
0
 10
748.477
 20
0
 11
748.477
 21
3
  0
LINE
  8
0
 10
748.477
 20
3
 11
754.534
 21
3
  0
LINE
  8
0
 10
754.534
 20
3
 11
754.534
 21
0
  0
LINE
  8
0
 10
754.534
 20
0
 11
760.591
 21
0
  0
LINE
  8
0
 10
760.591
 20
0
 11
760.591
 21
3
  0
LINE
  8
0
 10
760.591
 20
3
 11
766.649
 21
3
  0
LINE
  8
0
 10
766.649
 20
3
 11
766.649
 21
0
  0
LINE
  8
0
 10
766.649
 20
0
 11
772.706
 21
0
  0
LINE
  8
0
 10
772.706
 20
0
 11
772.706
 21
3
  0
LINE
  8
0
 10
772.706
 20
3
 11
778.763
 21
3
  0
LINE
  8
0
 10
778.763
 20
3
 11
778.763
 21
0
  0
LINE
  8
0
 10
778.763
 20
0
 11
784.82
 21
0
  0
LINE
  8
0
 10
784.82
 20
0
 11
784.82
 21
3
  0
LINE
  8
0
 10
784.82
 20
3
 11
790.877
 21
3
  0
LINE
  8
0
 10
790.877
 20
3
 11
790.877
 21
0
  0
LINE
  8
0
 10
790.877
 20
0
 11
796.934
 21
0
  0
LINE
  8
0
 10
796.934
 20
0
 11
796.934
 21
3
  0
LINE
  8
0
 10
796.934
 20
3
 11
802.991
 21
3
  0
LINE
  8
0
 10
802.991
 20
3
 11
802.991
 21
0
  0
LINE
  8
0
 10
802.991
 20
0
 11
809.049
 21
0
  0
LINE
  8
0
 10
809.049
 20
0
 11
809.049
 21
3
  0
LINE
  8
0
 10
809.049
 20
3
 11
815.106
 21
3
  0
LINE
  8
0
 10
815.106
 20
3
 11
815.106
 21
0
  0
LINE
  8
0
 10
815.106
 20
0
 11
821.163
 21
0
  0
LINE
  8
0
 10
821.163
 20
0
 11
821.163
 21
3
  0
LINE
  8
0
 10
821.163
 20
3
 11
827.22
 21
3
  0
LINE
  8
0
 10
827.22
 20
3
 11
827.22
 21
0
  0
LINE
  8
0
 10
827.22
 20
0
 11
833.277
 21
0
  0
LINE
  8
0
 10
833.277
 20
0
 11
833.277
 21
3
  0
LINE
  8
0
 10
833.277
 20
3
 11
839.334
 21
3
  0
LINE
  8
0
 10
839.334
 20
3
 11
839.334
 21
0
  0
LINE
  8
0
 10
839.334
 20
0
 11
845.391
 21
0
  0
LINE
  8
0
 10
845.391
 20
0
 11
845.391
 21
3
  0
LINE
  8
0
 10
845.391
 20
3
 11
851.449
 21
3
  0
LINE
  8
0
 10
851.449
 20
3
 11
851.449
 21
0
  0
LINE
  8
0
 10
851.449
 20
0
 11
857.506
 21
0
  0
LINE
  8
0
 10
857.506
 20
0
 11
857.506
 21
3
  0
LINE
  8
0
 10
857.506
 20
3
 11
863.563
 21
3
  0
LINE
  8
0
 10
863.563
 20
3
 11
863.563
 21
0
  0
LINE
  8
0
 10
863.563
 20
0
 11
869.62
 21
0
  0
LINE
  8
0
 10
869.62
 20
0
 11
869.62
 21
3
  0
LINE
  8
0
 10
869.62
 20
3
 11
875.677
 21
3
  0
LINE
  8
0
 10
875.677
 20
3
 11
875.677
 21
0
  0
LINE
  8
0
 10
875.677
 20
0
 11
881.734
 21
0
  0
LINE
  8
0
 10
881.734
 20
0
 11
881.734
 21
3
  0
LINE
  8
0
 10
881.734
 20
3
 11
887.791
 21
3
  0
LINE
  8
0
 10
887.791
 20
3
 11
887.791
 21
0
  0
LINE
  8
0
 10
887.791
 20
0
 11
893.849
 21
0
  0
LINE
  8
0
 10
893.849
 20
0
 11
893.849
 21
3
  0
LINE
  8
0
 10
893.849
 20
3
 11
899.906
 21
3
  0
LINE
  8
0
 10
899.906
 20
3
 11
899.906
 21
0
  0
LINE
  8
0
 10
899.906
 20
0
 11
905.963
 21
0
  0
LINE
  8
0
 10
905.963
 20
0
 11
905.963
 21
3
  0
LINE
  8
0
 10
905.963
 20
3
 11
912.02
 21
3
  0
LINE
  8
0
 10
912.02
 20
3
 11
912.02
 21
0
  0
LINE
  8
0
 10
912.02
 20
0
 11
921.02
 21
0
  0
LINE
  8
0
 10
921.02
 20
0
 11
921.02
 21
9
  0
LINE
  8
0
 10
921.02
 20
9
 11
924.02
 21
9
  0
LINE
  8
0
 10
924.02
 20
9
 11
924.02
 21
15.2758
  0
LINE
  8
0
 10
924.02
 20
15.2758
 11
921.02
 21
15.2758
  0
LINE
  8
0
 10
921.02
 20
15.2758
 11
921.02
 21
21.5517
  0
LINE
  8
0
 10
921.02
 20
21.5517
 11
924.02
 21
21.5517
  0
LINE
  8
0
 10
924.02
 20
21.5517
 11
924.02
 21
27.8276
  0
LINE
  8
0
 10
924.02
 20
27.8276
 11
921.02
 21
27.8276
  0
LINE
  8
0
 10
921.02
 20
27.8276
 11
921.02
 21
34.1034
  0
LINE
  8
0
 10
921.02
 20
34.1034
 11
924.02
 21
34.1034
  0
LINE
  8
0
 10
924.02
 20
34.1034
 11
924.02
 21
40.3793
  0
LINE
  8
0
 10
924.02
 20
40.3793
 11
921.02
 21
40.3793
  0
LINE
  8
0
 10
921.02
 20
40.3793
 11
921.02
 21
46.6552
  0
LINE
  8
0
 10
921.02
 20
46.6552
 11
924.02
 21
46.6552
  0
LINE
  8
0
 10
924.02
 20
46.6552
 11
924.02
 21
52.931
  0
LINE
  8
0
 10
924.02
 20
52.931
 11
921.02
 21
52.931
  0
LINE
  8
0
 10
921.02
 20
52.931
 11
921.02
 21
59.2069
  0
LINE
  8
0
 10
921.02
 20
59.2069
 11
924.02
 21
59.2069
  0
LINE
  8
0
 10
924.02
 20
59.2069
 11
924.02
 21
65.4828
  0
LINE
  8
0
 10
924.02
 20
65.4828
 11
921.02
 21
65.4828
  0
LINE
  8
0
 10
921.02
 20
65.4828
 11
921.02
 21
71.7586
  0
LINE
  8
0
 10
921.02
 20
71.7586
 11
924.02
 21
71.7586
  0
LINE
  8
0
 10
924.02
 20
71.7586
 11
924.02
 21
78.0345
  0
LINE
  8
0
 10
924.02
 20
78.0345
 11
921.02
 21
78.0345
  0
LINE
  8
0
 10
921.02
 20
78.0345
 11
921.02
 21
84.3103
  0
LINE
  8
0
 10
921.02
 20
84.3103
 11
924.02
 21
84.3103
  0
LINE
  8
0
 10
924.02
 20
84.3103
 11
924.02
 21
90.5862
  0
LINE
  8
0
 10
924.02
 20
90.5862
 11
921.02
 21
90.5862
  0
LINE
  8
0
 10
921.02
 20
90.5862
 11
921.02
 21
96.8621
  0
LINE
  8
0
 10
921.02
 20
96.8621
 11
924.02
 21
96.8621
  0
LINE
  8
0
 10
924.02
 20
96.8621
 11
924.02
 21
103.138
  0
LINE
  8
0
 10
924.02
 20
103.138
 11
921.02
 21
103.138
  0
LINE
  8
0
 10
921.02
 20
103.138
 11
921.02
 21
109.414
  0
LINE
  8
0
 10
921.02
 20
109.414
 11
924.02
 21
109.414
  0
LINE
  8
0
 10
924.02
 20
109.414
 11
924.02
 21
115.69
  0
LINE
  8
0
 10
924.02
 20
115.69
 11
921.02
 21
115.69
  0
LINE
  8
0
 10
921.02
 20
115.69
 11
921.02
 21
121.966
  0
LINE
  8
0
 10
921.02
 20
121.966
 11
924.02
 21
121.966
  0
LINE
  8
0
 10
924.02
 20
121.966
 11
924.02
 21
128.241
  0
LINE
  8
0
 10
924.02
 20
128.241
 11
921.02
 21
128.241
  0
LINE
  8
0
 10
921.02
 20
128.241
 11
921.02
 21
134.517
  0
LINE
  8
0
 10
921.02
 20
134.517
 11
924.02
 21
134.517
  0
LINE
  8
0
 10
924.02
 20
134.517
 11
924.02
 21
140.793
  0
LINE
  8
0
 10
924.02
 20
140.793
 11
921.02
 21
140.793
  0
LINE
  8
0
 10
921.02
 20
140.793
 11
921.02
 21
147.069
  0
LINE
  8
0
 10
921.02
 20
147.069
 11
924.02
 21
147.069
  0
LINE
  8
0
 10
924.02
 20
147.069
 11
924.02
 21
153.345
  0
LINE
  8
0
 10
924.02
 20
153.345
 11
921.02
 21
153.345
  0
LINE
  8
0
 10
921.02
 20
153.345
 11
921.02
 21
159.621
  0
LINE
  8
0
 10
921.02
 20
159.621
 11
924.02
 21
159.621
  0
LINE
  8
0
 10
924.02
 20
159.621
 11
924.02
 21
165.897
  0
LINE
  8
0
 10
924.02
 20
165.897
 11
921.02
 21
165.897
  0
LINE
  8
0
 10
921.02
 20
165.897
 11
921.02
 21
172.172
  0
LINE
  8
0
 10
921.02
 20
172.172
 11
924.02
 21
172.172
  0
LINE
  8
0
 10
924.02
 20
172.172
 11
924.02
 21
178.448
  0
LINE
  8
0
 10
924.02
 20
178.448
 11
921.02
 21
178.448
  0
LINE
  8
0
 10
921.02
 20
178.448
 11
921.02
 21
184.724
  0
LINE
  8
0
 10
921.02
 20
184.724
 11
924.02
 21
184.724
  0
LINE
  8
0
 10
924.02
 20
184.724
 11
924.02
 21
191
  0
LINE
  8
0
 10
924.02
 20
191
 11
921.02
 21
191
  0
LINE
  8
0
 10
921.02
 20
191
 11
921.02
 21
200
  0
LINE
  8
0
 10
921.02
 20
200
 11
912.02
 21
200
  0
LINE
  8
0
 10
912.02
 20
200
 11
912.02
 21
197
  0
LINE
  8
0
 10
912.02
 20
197
 11
905.963
 21
197
  0
LINE
  8
0
 10
905.963
 20
197
 11
905.963
 21
200
  0
LINE
  8
0
 10
905.963
 20
200
 11
899.906
 21
200
  0
LINE
  8
0
 10
899.906
 20
200
 11
899.906
 21
197
  0
LINE
  8
0
 10
899.906
 20
197
 11
893.849
 21
197
  0
LINE
  8
0
 10
893.849
 20
197
 11
893.849
 21
200
  0
LINE
  8
0
 10
893.849
 20
200
 11
887.791
 21
200
  0
LINE
  8
0
 10
887.791
 20
200
 11
887.791
 21
197
  0
LINE
  8
0
 10
887.791
 20
197
 11
881.734
 21
197
  0
LINE
  8
0
 10
881.734
 20
197
 11
881.734
 21
200
  0
LINE
  8
0
 10
881.734
 20
200
 11
875.677
 21
200
  0
LINE
  8
0
 10
875.677
 20
200
 11
875.677
 21
197
  0
LINE
  8
0
 10
875.677
 20
197
 11
869.62
 21
197
  0
LINE
  8
0
 10
869.62
 20
197
 11
869.62
 21
200
  0
LINE
  8
0
 10
869.62
 20
200
 11
863.563
 21
200
  0
LINE
  8
0
 10
863.563
 20
200
 11
863.563
 21
197
  0
LINE
  8
0
 10
863.563
 20
197
 11
857.506
 21
197
  0
LINE
  8
0
 10
857.506
 20
197
 11
857.506
 21
200
  0
LINE
  8
0
 10
857.506
 20
200
 11
851.449
 21
200
  0
LINE
  8
0
 10
851.449
 20
200
 11
851.449
 21
197
  0
LINE
  8
0
 10
851.449
 20
197
 11
845.391
 21
197
  0
LINE
  8
0
 10
845.391
 20
197
 11
845.391
 21
200
  0
LINE
  8
0
 10
845.391
 20
200
 11
839.334
 21
200
  0
LINE
  8
0
 10
839.334
 20
200
 11
839.334
 21
197
  0
LINE
  8
0
 10
839.334
 20
197
 11
833.277
 21
197
  0
LINE
  8
0
 10
833.277
 20
197
 11
833.277
 21
200
  0
LINE
  8
0
 10
833.277
 20
200
 11
827.22
 21
200
  0
LINE
  8
0
 10
827.22
 20
200
 11
827.22
 21
197
  0
LINE
  8
0
 10
827.22
 20
197
 11
821.163
 21
197
  0
LINE
  8
0
 10
821.163
 20
197
 11
821.163
 21
200
  0
LINE
  8
0
 10
821.163
 20
200
 11
815.106
 21
200
  0
LINE
  8
0
 10
815.106
 20
200
 11
815.106
 21
197
  0
LINE
  8
0
 10
815.106
 20
197
 11
809.049
 21
197
  0
LINE
  8
0
 10
809.049
 20
197
 11
809.049
 21
200
  0
LINE
  8
0
 10
809.049
 20
200
 11
802.991
 21
200
  0
LINE
  8
0
 10
802.991
 20
200
 11
802.991
 21
197
  0
LINE
  8
0
 10
802.991
 20
197
 11
796.934
 21
197
  0
LINE
  8
0
 10
796.934
 20
197
 11
796.934
 21
200
  0
LINE
  8
0
 10
796.934
 20
200
 11
790.877
 21
200
  0
LINE
  8
0
 10
790.877
 20
200
 11
790.877
 21
197
  0
LINE
  8
0
 10
790.877
 20
197
 11
784.82
 21
197
  0
LINE
  8
0
 10
784.82
 20
197
 11
784.82
 21
200
  0
LINE
  8
0
 10
784.82
 20
200
 11
778.763
 21
200
  0
LINE
  8
0
 10
778.763
 20
200
 11
778.763
 21
197
  0
LINE
  8
0
 10
778.763
 20
197
 11
772.706
 21
197
  0
LINE
  8
0
 10
772.706
 20
197
 11
772.706
 21
200
  0
LINE
  8
0
 10
772.706
 20
200
 11
766.649
 21
200
  0
LINE
  8
0
 10
766.649
 20
200
 11
766.649
 21
197
  0
LINE
  8
0
 10
766.649
 20
197
 11
760.591
 21
197
  0
LINE
  8
0
 10
760.591
 20
197
 11
760.591
 21
200
  0
LINE
  8
0
 10
760.591
 20
200
 11
754.534
 21
200
  0
LINE
  8
0
 10
754.534
 20
200
 11
754.534
 21
197
  0
LINE
  8
0
 10
754.534
 20
197
 11
748.477
 21
197
  0
LINE
  8
0
 10
748.477
 20
197
 11
748.477
 21
200
  0
LINE
  8
0
 10
748.477
 20
200
 11
742.42
 21
200
  0
LINE
  8
0
 10
742.42
 20
200
 11
742.42
 21
197
  0
LINE
  8
0
 10
742.42
 20
197
 11
736.363
 21
197
  0
LINE
  8
0
 10
736.363
 20
197
 11
736.363
 21
200
  0
LINE
  8
0
 10
736.363
 20
200
 11
730.306
 21
200
  0
LINE
  8
0
 10
730.306
 20
200
 11
730.306
 21
197
  0
LINE
  8
0
 10
730.306
 20
197
 11
724.249
 21
197
  0
LINE
  8
0
 10
724.249
 20
197
 11
724.249
 21
200
  0
LINE
  8
0
 10
724.249
 20
200
 11
718.191
 21
200
  0
LINE
  8
0
 10
718.191
 20
200
 11
718.191
 21
197
  0
LINE
  8
0
 10
718.191
 20
197
 11
712.134
 21
197
  0
LINE
  8
0
 10
712.134
 20
197
 11
712.134
 21
200
  0
LINE
  8
0
 10
712.134
 20
200
 11
706.077
 21
200
  0
LINE
  8
0
 10
706.077
 20
200
 11
706.077
 21
197
  0
LINE
  8
0
 10
706.077
 20
197
 11
700.02
 21
197
  0
LINE
  8
0
 10
700.02
 20
197
 11
700.02
 21
200
  0
LINE
  8
0
 10
700.02
 20
200
 11
691.02
 21
200
  0
LINE
  8
0
 10
691.02
 20
200
 11
691.02
 21
191
  0
LINE
  8
0
 10
691.02
 20
191
 11
688.02
 21
191
  0
LINE
  8
0
 10
688.02
 20
191
 11
688.02
 21
184.724
  0
LINE
  8
0
 10
688.02
 20
184.724
 11
691.02
 21
184.724
  0
LINE
  8
0
 10
691.02
 20
184.724
 11
691.02
 21
178.448
  0
LINE
  8
0
 10
691.02
 20
178.448
 11
688.02
 21
178.448
  0
LINE
  8
0
 10
688.02
 20
178.448
 11
688.02
 21
172.172
  0
LINE
  8
0
 10
688.02
 20
172.172
 11
691.02
 21
172.172
  0
LINE
  8
0
 10
691.02
 20
172.172
 11
691.02
 21
165.897
  0
LINE
  8
0
 10
691.02
 20
165.897
 11
688.02
 21
165.897
  0
LINE
  8
0
 10
688.02
 20
165.897
 11
688.02
 21
159.621
  0
LINE
  8
0
 10
688.02
 20
159.621
 11
691.02
 21
159.621
  0
LINE
  8
0
 10
691.02
 20
159.621
 11
691.02
 21
153.345
  0
LINE
  8
0
 10
691.02
 20
153.345
 11
688.02
 21
153.345
  0
LINE
  8
0
 10
688.02
 20
153.345
 11
688.02
 21
147.069
  0
LINE
  8
0
 10
688.02
 20
147.069
 11
691.02
 21
147.069
  0
LINE
  8
0
 10
691.02
 20
147.069
 11
691.02
 21
140.793
  0
LINE
  8
0
 10
691.02
 20
140.793
 11
688.02
 21
140.793
  0
LINE
  8
0
 10
688.02
 20
140.793
 11
688.02
 21
134.517
  0
LINE
  8
0
 10
688.02
 20
134.517
 11
691.02
 21
134.517
  0
LINE
  8
0
 10
691.02
 20
134.517
 11
691.02
 21
128.241
  0
LINE
  8
0
 10
691.02
 20
128.241
 11
688.02
 21
128.241
  0
LINE
  8
0
 10
688.02
 20
128.241
 11
688.02
 21
121.966
  0
LINE
  8
0
 10
688.02
 20
121.966
 11
691.02
 21
121.966
  0
LINE
  8
0
 10
691.02
 20
121.966
 11
691.02
 21
115.69
  0
LINE
  8
0
 10
691.02
 20
115.69
 11
688.02
 21
115.69
  0
LINE
  8
0
 10
688.02
 20
115.69
 11
688.02
 21
109.414
  0
LINE
  8
0
 10
688.02
 20
109.414
 11
691.02
 21
109.414
  0
LINE
  8
0
 10
691.02
 20
109.414
 11
691.02
 21
103.138
  0
LINE
  8
0
 10
691.02
 20
103.138
 11
688.02
 21
103.138
  0
LINE
  8
0
 10
688.02
 20
103.138
 11
688.02
 21
96.8621
  0
LINE
  8
0
 10
688.02
 20
96.8621
 11
691.02
 21
96.8621
  0
LINE
  8
0
 10
691.02
 20
96.8621
 11
691.02
 21
90.5862
  0
LINE
  8
0
 10
691.02
 20
90.5862
 11
688.02
 21
90.5862
  0
LINE
  8
0
 10
688.02
 20
90.5862
 11
688.02
 21
84.3103
  0
LINE
  8
0
 10
688.02
 20
84.3103
 11
691.02
 21
84.3103
  0
LINE
  8
0
 10
691.02
 20
84.3103
 11
691.02
 21
78.0345
  0
LINE
  8
0
 10
691.02
 20
78.0345
 11
688.02
 21
78.0345
  0
LINE
  8
0
 10
688.02
 20
78.0345
 11
688.02
 21
71.7586
  0
LINE
  8
0
 10
688.02
 20
71.7586
 11
691.02
 21
71.7586
  0
LINE
  8
0
 10
691.02
 20
71.7586
 11
691.02
 21
65.4828
  0
LINE
  8
0
 10
691.02
 20
65.4828
 11
688.02
 21
65.4828
  0
LINE
  8
0
 10
688.02
 20
65.4828
 11
688.02
 21
59.2069
  0
LINE
  8
0
 10
688.02
 20
59.2069
 11
691.02
 21
59.2069
  0
LINE
  8
0
 10
691.02
 20
59.2069
 11
691.02
 21
52.931
  0
LINE
  8
0
 10
691.02
 20
52.931
 11
688.02
 21
52.931
  0
LINE
  8
0
 10
688.02
 20
52.931
 11
688.02
 21
46.6552
  0
LINE
  8
0
 10
688.02
 20
46.6552
 11
691.02
 21
46.6552
  0
LINE
  8
0
 10
691.02
 20
46.6552
 11
691.02
 21
40.3793
  0
LINE
  8
0
 10
691.02
 20
40.3793
 11
688.02
 21
40.3793
  0
LINE
  8
0
 10
688.02
 20
40.3793
 11
688.02
 21
34.1035
  0
LINE
  8
0
 10
688.02
 20
34.1035
 11
691.02
 21
34.1035
  0
LINE
  8
0
 10
691.02
 20
34.1035
 11
691.02
 21
27.8276
  0
LINE
  8
0
 10
691.02
 20
27.8276
 11
688.02
 21
27.8276
  0
LINE
  8
0
 10
688.02
 20
27.8276
 11
688.02
 21
21.5517
  0
LINE
  8
0
 10
688.02
 20
21.5517
 11
691.02
 21
21.5517
  0
LINE
  8
0
 10
691.02
 20
21.5517
 11
691.02
 21
15.2759
  0
LINE
  8
0
 10
691.02
 20
15.2759
 11
688.02
 21
15.2759
  0
LINE
  8
0
 10
688.02
 20
15.2759
 11
688.02
 21
9
  0
LINE
  8
0
 10
688.02
 20
9
 11
691.02
 21
9
  0
LINE
  8
0
 10
691.02
 20
9
 11
691.02
 21
0
  0
LINE
  8
0
 10
691.02
 20
0
 11
700.02
 21
0
  0
LINE
  8
0
 10
700.02
 20
0
 11
700.02
 21
3
  0
LINE
  8
0
 10
9
 20
3
 11
15.1509
 21
3
  0
LINE
  8
0
 10
15.1509
 20
3
 11
15.1509
 21
0
  0
LINE
  8
0
 10
15.1509
 20
0
 11
21.3019
 21
0
  0
LINE
  8
0
 10
21.3019
 20
0
 11
21.3019
 21
3
  0
LINE
  8
0
 10
21.3019
 20
3
 11
27.4528
 21
3
  0
LINE
  8
0
 10
27.4528
 20
3
 11
27.4528
 21
0
  0
LINE
  8
0
 10
27.4528
 20
0
 11
33.6038
 21
0
  0
LINE
  8
0
 10
33.6038
 20
0
 11
33.6038
 21
3
  0
LINE
  8
0
 10
33.6038
 20
3
 11
39.7547
 21
3
  0
LINE
  8
0
 10
39.7547
 20
3
 11
39.7547
 21
0
  0
LINE
  8
0
 10
39.7547
 20
0
 11
45.9057
 21
0
  0
LINE
  8
0
 10
45.9057
 20
0
 11
45.9057
 21
3
  0
LINE
  8
0
 10
45.9057
 20
3
 11
52.0566
 21
3
  0
LINE
  8
0
 10
52.0566
 20
3
 11
52.0566
 21
0
  0
LINE
  8
0
 10
52.0566
 20
0
 11
58.2075
 21
0
  0
LINE
  8
0
 10
58.2075
 20
0
 11
58.2075
 21
3
  0
LINE
  8
0
 10
58.2075
 20
3
 11
64.3585
 21
3
  0
LINE
  8
0
 10
64.3585
 20
3
 11
64.3585
 21
0
  0
LINE
  8
0
 10
64.3585
 20
0
 11
70.5094
 21
0
  0
LINE
  8
0
 10
70.5094
 20
0
 11
70.5094
 21
3
  0
LINE
  8
0
 10
70.5094
 20
3
 11
76.6604
 21
3
  0
LINE
  8
0
 10
76.6604
 20
3
 11
76.6604
 21
0
  0
LINE
  8
0
 10
76.6604
 20
0
 11
82.8113
 21
0
  0
LINE
  8
0
 10
82.8113
 20
0
 11
82.8113
 21
3
  0
LINE
  8
0
 10
82.8113
 20
3
 11
88.9622
 21
3
  0
LINE
  8
0
 10
88.9622
 20
3
 11
88.9622
 21
0
  0
LINE
  8
0
 10
88.9622
 20
0
 11
95.1132
 21
0
  0
LINE
  8
0
 10
95.1132
 20
0
 11
95.1132
 21
3
  0
LINE
  8
0
 10
95.1132
 20
3
 11
101.264
 21
3
  0
LINE
  8
0
 10
101.264
 20
3
 11
101.264
 21
0
  0
LINE
  8
0
 10
101.264
 20
0
 11
107.415
 21
0
  0
LINE
  8
0
 10
107.415
 20
0
 11
107.415
 21
3
  0
LINE
  8
0
 10
107.415
 20
3
 11
113.566
 21
3
  0
LINE
  8
0
 10
113.566
 20
3
 11
113.566
 21
0
  0
LINE
  8
0
 10
113.566
 20
0
 11
119.717
 21
0
  0
LINE
  8
0
 10
119.717
 20
0
 11
119.717
 21
3
  0
LINE
  8
0
 10
119.717
 20
3
 11
125.868
 21
3
  0
LINE
  8
0
 10
125.868
 20
3
 11
125.868
 21
0
  0
LINE
  8
0
 10
125.868
 20
0
 11
132.019
 21
0
  0
LINE
  8
0
 10
132.019
 20
0
 11
132.019
 21
3
  0
LINE
  8
0
 10
132.019
 20
3
 11
138.17
 21
3
  0
LINE
  8
0
 10
138.17
 20
3
 11
138.17
 21
0
  0
LINE
  8
0
 10
138.17
 20
0
 11
144.321
 21
0
  0
LINE
  8
0
 10
144.321
 20
0
 11
144.321
 21
3
  0
LINE
  8
0
 10
144.321
 20
3
 11
150.472
 21
3
  0
LINE
  8
0
 10
150.472
 20
3
 11
150.472
 21
0
  0
LINE
  8
0
 10
150.472
 20
0
 11
156.623
 21
0
  0
LINE
  8
0
 10
156.623
 20
0
 11
156.623
 21
3
  0
LINE
  8
0
 10
156.623
 20
3
 11
162.774
 21
3
  0
LINE
  8
0
 10
162.774
 20
3
 11
162.774
 21
0
  0
LINE
  8
0
 10
162.774
 20
0
 11
168.925
 21
0
  0
LINE
  8
0
 10
168.925
 20
0
 11
168.925
 21
3
  0
LINE
  8
0
 10
168.925
 20
3
 11
175.075
 21
3
  0
LINE
  8
0
 10
175.075
 20
3
 11
175.075
 21
0
  0
LINE
  8
0
 10
175.075
 20
0
 11
181.226
 21
0
  0
LINE
  8
0
 10
181.226
 20
0
 11
181.226
 21
3
  0
LINE
  8
0
 10
181.226
 20
3
 11
187.377
 21
3
  0
LINE
  8
0
 10
187.377
 20
3
 11
187.377
 21
0
  0
LINE
  8
0
 10
187.377
 20
0
 11
193.528
 21
0
  0
LINE
  8
0
 10
193.528
 20
0
 11
193.528
 21
3
  0
LINE
  8
0
 10
193.528
 20
3
 11
199.679
 21
3
  0
LINE
  8
0
 10
199.679
 20
3
 11
199.679
 21
0
  0
LINE
  8
0
 10
199.679
 20
0
 11
205.83
 21
0
  0
LINE
  8
0
 10
205.83
 20
0
 11
205.83
 21
3
  0
LINE
  8
0
 10
205.83
 20
3
 11
211.981
 21
3
  0
LINE
  8
0
 10
211.981
 20
3
 11
211.981
 21
0
  0
LINE
  8
0
 10
211.981
 20
0
 11
218.132
 21
0
  0
LINE
  8
0
 10
218.132
 20
0
 11
218.132
 21
3
  0
LINE
  8
0
 10
218.132
 20
3
 11
224.283
 21
3
  0
LINE
  8
0
 10
224.283
 20
3
 11
224.283
 21
0
  0
LINE
  8
0
 10
224.283
 20
0
 11
230.434
 21
0
  0
LINE
  8
0
 10
230.434
 20
0
 11
230.434
 21
3
  0
LINE
  8
0
 10
230.434
 20
3
 11
236.585
 21
3
  0
LINE
  8
0
 10
236.585
 20
3
 11
236.585
 21
0
  0
LINE
  8
0
 10
236.585
 20
0
 11
242.736
 21
0
  0
LINE
  8
0
 10
242.736
 20
0
 11
242.736
 21
3
  0
LINE
  8
0
 10
242.736
 20
3
 11
248.887
 21
3
  0
LINE
  8
0
 10
248.887
 20
3
 11
248.887
 21
0
  0
LINE
  8
0
 10
248.887
 20
0
 11
255.038
 21
0
  0
LINE
  8
0
 10
255.038
 20
0
 11
255.038
 21
3
  0
LINE
  8
0
 10
255.038
 20
3
 11
261.189
 21
3
  0
LINE
  8
0
 10
261.189
 20
3
 11
261.189
 21
0
  0
LINE
  8
0
 10
261.189
 20
0
 11
267.34
 21
0
  0
LINE
  8
0
 10
267.34
 20
0
 11
267.34
 21
3
  0
LINE
  8
0
 10
267.34
 20
3
 11
273.491
 21
3
  0
LINE
  8
0
 10
273.491
 20
3
 11
273.491
 21
0
  0
LINE
  8
0
 10
273.491
 20
0
 11
279.641
 21
0
  0
LINE
  8
0
 10
279.641
 20
0
 11
279.641
 21
3
  0
LINE
  8
0
 10
279.641
 20
3
 11
285.792
 21
3
  0
LINE
  8
0
 10
285.792
 20
3
 11
285.792
 21
0
  0
LINE
  8
0
 10
285.792
 20
0
 11
291.943
 21
0
  0
LINE
  8
0
 10
291.943
 20
0
 11
291.943
 21
3
  0
LINE
  8
0
 10
291.943
 20
3
 11
298.094
 21
3
  0
LINE
  8
0
 10
298.094
 20
3
 11
298.094
 21
0
  0
LINE
  8
0
 10
298.094
 20
0
 11
304.245
 21
0
  0
LINE
  8
0
 10
304.245
 20
0
 11
304.245
 21
3
  0
LINE
  8
0
 10
304.245
 20
3
 11
310.396
 21
3
  0
LINE
  8
0
 10
310.396
 20
3
 11
310.396
 21
0
  0
LINE
  8
0
 10
310.396
 20
0
 11
316.547
 21
0
  0
LINE
  8
0
 10
316.547
 20
0
 11
316.547
 21
3
  0
LINE
  8
0
 10
316.547
 20
3
 11
322.698
 21
3
  0
LINE
  8
0
 10
322.698
 20
3
 11
322.698
 21
0
  0
LINE
  8
0
 10
322.698
 20
0
 11
328.849
 21
0
  0
LINE
  8
0
 10
328.849
 20
0
 11
328.849
 21
3
  0
LINE
  8
0
 10
328.849
 20
3
 11
335
 21
3
  0
LINE
  8
0
 10
335
 20
3
 11
335
 21
0
  0
LINE
  8
0
 10
335
 20
0
 11
344
 21
0
  0
LINE
  8
0
 10
344
 20
0
 11
344
 21
9
  0
LINE
  8
0
 10
344
 20
9
 11
341
 21
9
  0
LINE
  8
0
 10
341
 20
9
 11
341
 21
15.2758
  0
LINE
  8
0
 10
341
 20
15.2758
 11
344
 21
15.2758
  0
LINE
  8
0
 10
344
 20
15.2758
 11
344
 21
21.5517
  0
LINE
  8
0
 10
344
 20
21.5517
 11
341
 21
21.5517
  0
LINE
  8
0
 10
341
 20
21.5517
 11
341
 21
27.8276
  0
LINE
  8
0
 10
341
 20
27.8276
 11
344
 21
27.8276
  0
LINE
  8
0
 10
344
 20
27.8276
 11
344
 21
34.1034
  0
LINE
  8
0
 10
344
 20
34.1034
 11
341
 21
34.1034
  0
LINE
  8
0
 10
341
 20
34.1034
 11
341
 21
40.3793
  0
LINE
  8
0
 10
341
 20
40.3793
 11
344
 21
40.3793
  0
LINE
  8
0
 10
344
 20
40.3793
 11
344
 21
46.6552
  0
LINE
  8
0
 10
344
 20
46.6552
 11
341
 21
46.6552
  0
LINE
  8
0
 10
341
 20
46.6552
 11
341
 21
52.931
  0
LINE
  8
0
 10
341
 20
52.931
 11
344
 21
52.931
  0
LINE
  8
0
 10
344
 20
52.931
 11
344
 21
59.2069
  0
LINE
  8
0
 10
344
 20
59.2069
 11
341
 21
59.2069
  0
LINE
  8
0
 10
341
 20
59.2069
 11
341
 21
65.4828
  0
LINE
  8
0
 10
341
 20
65.4828
 11
344
 21
65.4828
  0
LINE
  8
0
 10
344
 20
65.4828
 11
344
 21
71.7586
  0
LINE
  8
0
 10
344
 20
71.7586
 11
341
 21
71.7586
  0
LINE
  8
0
 10
341
 20
71.7586
 11
341
 21
78.0345
  0
LINE
  8
0
 10
341
 20
78.0345
 11
344
 21
78.0345
  0
LINE
  8
0
 10
344
 20
78.0345
 11
344
 21
84.3103
  0
LINE
  8
0
 10
344
 20
84.3103
 11
341
 21
84.3103
  0
LINE
  8
0
 10
341
 20
84.3103
 11
341
 21
90.5862
  0
LINE
  8
0
 10
341
 20
90.5862
 11
344
 21
90.5862
  0
LINE
  8
0
 10
344
 20
90.5862
 11
344
 21
96.8621
  0
LINE
  8
0
 10
344
 20
96.8621
 11
341
 21
96.8621
  0
LINE
  8
0
 10
341
 20
96.8621
 11
341
 21
103.138
  0
LINE
  8
0
 10
341
 20
103.138
 11
344
 21
103.138
  0
LINE
  8
0
 10
344
 20
103.138
 11
344
 21
109.414
  0
LINE
  8
0
 10
344
 20
109.414
 11
341
 21
109.414
  0
LINE
  8
0
 10
341
 20
109.414
 11
341
 21
115.69
  0
LINE
  8
0
 10
341
 20
115.69
 11
344
 21
115.69
  0
LINE
  8
0
 10
344
 20
115.69
 11
344
 21
121.966
  0
LINE
  8
0
 10
344
 20
121.966
 11
341
 21
121.966
  0
LINE
  8
0
 10
341
 20
121.966
 11
341
 21
128.241
  0
LINE
  8
0
 10
341
 20
128.241
 11
344
 21
128.241
  0
LINE
  8
0
 10
344
 20
128.241
 11
344
 21
134.517
  0
LINE
  8
0
 10
344
 20
134.517
 11
341
 21
134.517
  0
LINE
  8
0
 10
341
 20
134.517
 11
341
 21
140.793
  0
LINE
  8
0
 10
341
 20
140.793
 11
344
 21
140.793
  0
LINE
  8
0
 10
344
 20
140.793
 11
344
 21
147.069
  0
LINE
  8
0
 10
344
 20
147.069
 11
341
 21
147.069
  0
LINE
  8
0
 10
341
 20
147.069
 11
341
 21
153.345
  0
LINE
  8
0
 10
341
 20
153.345
 11
344
 21
153.345
  0
LINE
  8
0
 10
344
 20
153.345
 11
344
 21
159.621
  0
LINE
  8
0
 10
344
 20
159.621
 11
341
 21
159.621
  0
LINE
  8
0
 10
341
 20
159.621
 11
341
 21
165.897
  0
LINE
  8
0
 10
341
 20
165.897
 11
344
 21
165.897
  0
LINE
  8
0
 10
344
 20
165.897
 11
344
 21
172.172
  0
LINE
  8
0
 10
344
 20
172.172
 11
341
 21
172.172
  0
LINE
  8
0
 10
341
 20
172.172
 11
341
 21
178.448
  0
LINE
  8
0
 10
341
 20
178.448
 11
344
 21
178.448
  0
LINE
  8
0
 10
344
 20
178.448
 11
344
 21
184.724
  0
LINE
  8
0
 10
344
 20
184.724
 11
341
 21
184.724
  0
LINE
  8
0
 10
341
 20
184.724
 11
341
 21
191
  0
LINE
  8
0
 10
341
 20
191
 11
344
 21
191
  0
LINE
  8
0
 10
344
 20
191
 11
344
 21
200
  0
LINE
  8
0
 10
344
 20
200
 11
335
 21
200
  0
LINE
  8
0
 10
335
 20
200
 11
335
 21
197
  0
LINE
  8
0
 10
335
 20
197
 11
328.849
 21
197
  0
LINE
  8
0
 10
328.849
 20
197
 11
328.849
 21
200
  0
LINE
  8
0
 10
328.849
 20
200
 11
322.698
 21
200
  0
LINE
  8
0
 10
322.698
 20
200
 11
322.698
 21
197
  0
LINE
  8
0
 10
322.698
 20
197
 11
316.547
 21
197
  0
LINE
  8
0
 10
316.547
 20
197
 11
316.547
 21
200
  0
LINE
  8
0
 10
316.547
 20
200
 11
310.396
 21
200
  0
LINE
  8
0
 10
310.396
 20
200
 11
310.396
 21
197
  0
LINE
  8
0
 10
310.396
 20
197
 11
304.245
 21
197
  0
LINE
  8
0
 10
304.245
 20
197
 11
304.245
 21
200
  0
LINE
  8
0
 10
304.245
 20
200
 11
298.094
 21
200
  0
LINE
  8
0
 10
298.094
 20
200
 11
298.094
 21
197
  0
LINE
  8
0
 10
298.094
 20
197
 11
291.943
 21
197
  0
LINE
  8
0
 10
291.943
 20
197
 11
291.943
 21
200
  0
LINE
  8
0
 10
291.943
 20
200
 11
285.792
 21
200
  0
LINE
  8
0
 10
285.792
 20
200
 11
285.792
 21
197
  0
LINE
  8
0
 10
285.792
 20
197
 11
279.642
 21
197
  0
LINE
  8
0
 10
279.642
 20
197
 11
279.642
 21
200
  0
LINE
  8
0
 10
279.642
 20
200
 11
273.491
 21
200
  0
LINE
  8
0
 10
273.491
 20
200
 11
273.491
 21
197
  0
LINE
  8
0
 10
273.491
 20
197
 11
267.34
 21
197
  0
LINE
  8
0
 10
267.34
 20
197
 11
267.34
 21
200
  0
LINE
  8
0
 10
267.34
 20
200
 11
261.189
 21
200
  0
LINE
  8
0
 10
261.189
 20
200
 11
261.189
 21
197
  0
LINE
  8
0
 10
261.189
 20
197
 11
255.038
 21
197
  0
LINE
  8
0
 10
255.038
 20
197
 11
255.038
 21
200
  0
LINE
  8
0
 10
255.038
 20
200
 11
248.887
 21
200
  0
LINE
  8
0
 10
248.887
 20
200
 11
248.887
 21
197
  0
LINE
  8
0
 10
248.887
 20
197
 11
242.736
 21
197
  0
LINE
  8
0
 10
242.736
 20
197
 11
242.736
 21
200
  0
LINE
  8
0
 10
242.736
 20
200
 11
236.585
 21
200
  0
LINE
  8
0
 10
236.585
 20
200
 11
236.585
 21
197
  0
LINE
  8
0
 10
236.585
 20
197
 11
230.434
 21
197
  0
LINE
  8
0
 10
230.434
 20
197
 11
230.434
 21
200
  0
LINE
  8
0
 10
230.434
 20
200
 11
224.283
 21
200
  0
LINE
  8
0
 10
224.283
 20
200
 11
224.283
 21
197
  0
LINE
  8
0
 10
224.283
 20
197
 11
218.132
 21
197
  0
LINE
  8
0
 10
218.132
 20
197
 11
218.132
 21
200
  0
LINE
  8
0
 10
218.132
 20
200
 11
211.981
 21
200
  0
LINE
  8
0
 10
211.981
 20
200
 11
211.981
 21
197
  0
LINE
  8
0
 10
211.981
 20
197
 11
205.83
 21
197
  0
LINE
  8
0
 10
205.83
 20
197
 11
205.83
 21
200
  0
LINE
  8
0
 10
205.83
 20
200
 11
199.679
 21
200
  0
LINE
  8
0
 10
199.679
 20
200
 11
199.679
 21
197
  0
LINE
  8
0
 10
199.679
 20
197
 11
193.528
 21
197
  0
LINE
  8
0
 10
193.528
 20
197
 11
193.528
 21
200
  0
LINE
  8
0
 10
193.528
 20
200
 11
187.377
 21
200
  0
LINE
  8
0
 10
187.377
 20
200
 11
187.377
 21
197
  0
LINE
  8
0
 10
187.377
 20
197
 11
181.226
 21
197
  0
LINE
  8
0
 10
181.226
 20
197
 11
181.226
 21
200
  0
LINE
  8
0
 10
181.226
 20
200
 11
175.075
 21
200
  0
LINE
  8
0
 10
175.075
 20
200
 11
175.075
 21
197
  0
LINE
  8
0
 10
175.075
 20
197
 11
168.925
 21
197
  0
LINE
  8
0
 10
168.925
 20
197
 11
168.925
 21
200
  0
LINE
  8
0
 10
168.925
 20
200
 11
162.774
 21
200
  0
LINE
  8
0
 10
162.774
 20
200
 11
162.774
 21
197
  0
LINE
  8
0
 10
162.774
 20
197
 11
156.623
 21
197
  0
LINE
  8
0
 10
156.623
 20
197
 11
156.623
 21
200
  0
LINE
  8
0
 10
156.623
 20
200
 11
150.472
 21
200
  0
LINE
  8
0
 10
150.472
 20
200
 11
150.472
 21
197
  0
LINE
  8
0
 10
150.472
 20
197
 11
144.321
 21
197
  0
LINE
  8
0
 10
144.321
 20
197
 11
144.321
 21
200
  0
LINE
  8
0
 10
144.321
 20
200
 11
138.17
 21
200
  0
LINE
  8
0
 10
138.17
 20
200
 11
138.17
 21
197
  0
LINE
  8
0
 10
138.17
 20
197
 11
132.019
 21
197
  0
LINE
  8
0
 10
132.019
 20
197
 11
132.019
 21
200
  0
LINE
  8
0
 10
132.019
 20
200
 11
125.868
 21
200
  0
LINE
  8
0
 10
125.868
 20
200
 11
125.868
 21
197
  0
LINE
  8
0
 10
125.868
 20
197
 11
119.717
 21
197
  0
LINE
  8
0
 10
119.717
 20
197
 11
119.717
 21
200
  0
LINE
  8
0
 10
119.717
 20
200
 11
113.566
 21
200
  0
LINE
  8
0
 10
113.566
 20
200
 11
113.566
 21
197
  0
LINE
  8
0
 10
113.566
 20
197
 11
107.415
 21
197
  0
LINE
  8
0
 10
107.415
 20
197
 11
107.415
 21
200
  0
LINE
  8
0
 10
107.415
 20
200
 11
101.264
 21
200
  0
LINE
  8
0
 10
101.264
 20
200
 11
101.264
 21
197
  0
LINE
  8
0
 10
101.264
 20
197
 11
95.1132
 21
197
  0
LINE
  8
0
 10
95.1132
 20
197
 11
95.1132
 21
200
  0
LINE
  8
0
 10
95.1132
 20
200
 11
88.9623
 21
200
  0
LINE
  8
0
 10
88.9623
 20
200
 11
88.9623
 21
197
  0
LINE
  8
0
 10
88.9623
 20
197
 11
82.8113
 21
197
  0
LINE
  8
0
 10
82.8113
 20
197
 11
82.8113
 21
200
  0
LINE
  8
0
 10
82.8113
 20
200
 11
76.6604
 21
200
  0
LINE
  8
0
 10
76.6604
 20
200
 11
76.6604
 21
197
  0
LINE
  8
0
 10
76.6604
 20
197
 11
70.5094
 21
197
  0
LINE
  8
0
 10
70.5094
 20
197
 11
70.5094
 21
200
  0
LINE
  8
0
 10
70.5094
 20
200
 11
64.3585
 21
200
  0
LINE
  8
0
 10
64.3585
 20
200
 11
64.3585
 21
197
  0
LINE
  8
0
 10
64.3585
 20
197
 11
58.2076
 21
197
  0
LINE
  8
0
 10
58.2076
 20
197
 11
58.2076
 21
200
  0
LINE
  8
0
 10
58.2076
 20
200
 11
52.0566
 21
200
  0
LINE
  8
0
 10
52.0566
 20
200
 11
52.0566
 21
197
  0
LINE
  8
0
 10
52.0566
 20
197
 11
45.9057
 21
197
  0
LINE
  8
0
 10
45.9057
 20
197
 11
45.9057
 21
200
  0
LINE
  8
0
 10
45.9057
 20
200
 11
39.7547
 21
200
  0
LINE
  8
0
 10
39.7547
 20
200
 11
39.7547
 21
197
  0
LINE
  8
0
 10
39.7547
 20
197
 11
33.6038
 21
197
  0
LINE
  8
0
 10
33.6038
 20
197
 11
33.6038
 21
200
  0
LINE
  8
0
 10
33.6038
 20
200
 11
27.4528
 21
200
  0
LINE
  8
0
 10
27.4528
 20
200
 11
27.4528
 21
197
  0
LINE
  8
0
 10
27.4528
 20
197
 11
21.3019
 21
197
  0
LINE
  8
0
 10
21.3019
 20
197
 11
21.3019
 21
200
  0
LINE
  8
0
 10
21.3019
 20
200
 11
15.151
 21
200
  0
LINE
  8
0
 10
15.151
 20
200
 11
15.151
 21
197
  0
LINE
  8
0
 10
15.151
 20
197
 11
9
 21
197
  0
LINE
  8
0
 10
9
 20
197
 11
9
 21
200
  0
LINE
  8
0
 10
9
 20
200
 11
0
 21
200
  0
LINE
  8
0
 10
0
 20
200
 11
0
 21
191
  0
LINE
  8
0
 10
0
 20
191
 11
3
 21
191
  0
LINE
  8
0
 10
3
 20
191
 11
3
 21
184.724
  0
LINE
  8
0
 10
3
 20
184.724
 11
0
 21
184.724
  0
LINE
  8
0
 10
0
 20
184.724
 11
0
 21
178.448
  0
LINE
  8
0
 10
0
 20
178.448
 11
3
 21
178.448
  0
LINE
  8
0
 10
3
 20
178.448
 11
3
 21
172.172
  0
LINE
  8
0
 10
3
 20
172.172
 11
0
 21
172.172
  0
LINE
  8
0
 10
0
 20
172.172
 11
0
 21
165.897
  0
LINE
  8
0
 10
0
 20
165.897
 11
3
 21
165.897
  0
LINE
  8
0
 10
3
 20
165.897
 11
3
 21
159.621
  0
LINE
  8
0
 10
3
 20
159.621
 11
0
 21
159.621
  0
LINE
  8
0
 10
0
 20
159.621
 11
0
 21
153.345
  0
LINE
  8
0
 10
0
 20
153.345
 11
3
 21
153.345
  0
LINE
  8
0
 10
3
 20
153.345
 11
3
 21
147.069
  0
LINE
  8
0
 10
3
 20
147.069
 11
0
 21
147.069
  0
LINE
  8
0
 10
0
 20
147.069
 11
0
 21
140.793
  0
LINE
  8
0
 10
0
 20
140.793
 11
3
 21
140.793
  0
LINE
  8
0
 10
3
 20
140.793
 11
3
 21
134.517
  0
LINE
  8
0
 10
3
 20
134.517
 11
0
 21
134.517
  0
LINE
  8
0
 10
0
 20
134.517
 11
0
 21
128.241
  0
LINE
  8
0
 10
0
 20
128.241
 11
3
 21
128.241
  0
LINE
  8
0
 10
3
 20
128.241
 11
3
 21
121.966
  0
LINE
  8
0
 10
3
 20
121.966
 11
0
 21
121.966
  0
LINE
  8
0
 10
0
 20
121.966
 11
0
 21
115.69
  0
LINE
  8
0
 10
0
 20
115.69
 11
3
 21
115.69
  0
LINE
  8
0
 10
3
 20
115.69
 11
3
 21
109.414
  0
LINE
  8
0
 10
3
 20
109.414
 11
0
 21
109.414
  0
LINE
  8
0
 10
0
 20
109.414
 11
0
 21
103.138
  0
LINE
  8
0
 10
0
 20
103.138
 11
3
 21
103.138
  0
LINE
  8
0
 10
3
 20
103.138
 11
3
 21
96.8621
  0
LINE
  8
0
 10
3
 20
96.8621
 11
0
 21
96.8621
  0
LINE
  8
0
 10
0
 20
96.8621
 11
0
 21
90.5862
  0
LINE
  8
0
 10
0
 20
90.5862
 11
3
 21
90.5862
  0
LINE
  8
0
 10
3
 20
90.5862
 11
3
 21
84.3103
  0
LINE
  8
0
 10
3
 20
84.3103
 11
0
 21
84.3103
  0
LINE
  8
0
 10
0
 20
84.3103
 11
0
 21
78.0345
  0
LINE
  8
0
 10
0
 20
78.0345
 11
3
 21
78.0345
  0
LINE
  8
0
 10
3
 20
78.0345
 11
3
 21
71.7586
  0
LINE
  8
0
 10
3
 20
71.7586
 11
0
 21
71.7586
  0
LINE
  8
0
 10
0
 20
71.7586
 11
0
 21
65.4828
  0
LINE
  8
0
 10
0
 20
65.4828
 11
3
 21
65.4828
  0
LINE
  8
0
 10
3
 20
65.4828
 11
3
 21
59.2069
  0
LINE
  8
0
 10
3
 20
59.2069
 11
0
 21
59.2069
  0
LINE
  8
0
 10
0
 20
59.2069
 11
0
 21
52.931
  0
LINE
  8
0
 10
0
 20
52.931
 11
3
 21
52.931
  0
LINE
  8
0
 10
3
 20
52.931
 11
3
 21
46.6552
  0
LINE
  8
0
 10
3
 20
46.6552
 11
0
 21
46.6552
  0
LINE
  8
0
 10
0
 20
46.6552
 11
0
 21
40.3793
  0
LINE
  8
0
 10
0
 20
40.3793
 11
3
 21
40.3793
  0
LINE
  8
0
 10
3
 20
40.3793
 11
3
 21
34.1035
  0
LINE
  8
0
 10
3
 20
34.1035
 11
0
 21
34.1035
  0
LINE
  8
0
 10
0
 20
34.1035
 11
0
 21
27.8276
  0
LINE
  8
0
 10
0
 20
27.8276
 11
3
 21
27.8276
  0
LINE
  8
0
 10
3
 20
27.8276
 11
3
 21
21.5517
  0
LINE
  8
0
 10
3
 20
21.5517
 11
0
 21
21.5517
  0
LINE
  8
0
 10
0
 20
21.5517
 11
0
 21
15.2759
  0
LINE
  8
0
 10
0
 20
15.2759
 11
3
 21
15.2759
  0
LINE
  8
0
 10
3
 20
15.2759
 11
3
 21
9
  0
LINE
  8
0
 10
3
 20
9
 11
0
 21
9
  0
LINE
  8
0
 10
0
 20
9
 11
0
 21
0
  0
LINE
  8
0
 10
0
 20
0
 11
9
 21
0
  0
LINE
  8
0
 10
9
 20
0
 11
9
 21
3
  0
LINE
  8
0
 10
936.03
 20
3
 11
942.087
 21
3
  0
LINE
  8
0
 10
942.087
 20
3
 11
942.087
 21
0
  0
LINE
  8
0
 10
942.087
 20
0
 11
948.144
 21
0
  0
LINE
  8
0
 10
948.144
 20
0
 11
948.144
 21
3
  0
LINE
  8
0
 10
948.144
 20
3
 11
954.201
 21
3
  0
LINE
  8
0
 10
954.201
 20
3
 11
954.201
 21
0
  0
LINE
  8
0
 10
954.201
 20
0
 11
960.259
 21
0
  0
LINE
  8
0
 10
960.259
 20
0
 11
960.259
 21
3
  0
LINE
  8
0
 10
960.259
 20
3
 11
966.316
 21
3
  0
LINE
  8
0
 10
966.316
 20
3
 11
966.316
 21
0
  0
LINE
  8
0
 10
966.316
 20
0
 11
972.373
 21
0
  0
LINE
  8
0
 10
972.373
 20
0
 11
972.373
 21
3
  0
LINE
  8
0
 10
972.373
 20
3
 11
978.43
 21
3
  0
LINE
  8
0
 10
978.43
 20
3
 11
978.43
 21
0
  0
LINE
  8
0
 10
978.43
 20
0
 11
984.487
 21
0
  0
LINE
  8
0
 10
984.487
 20
0
 11
984.487
 21
3
  0
LINE
  8
0
 10
984.487
 20
3
 11
990.544
 21
3
  0
LINE
  8
0
 10
990.544
 20
3
 11
990.544
 21
0
  0
LINE
  8
0
 10
990.544
 20
0
 11
996.601
 21
0
  0
LINE
  8
0
 10
996.601
 20
0
 11
996.601
 21
3
  0
LINE
  8
0
 10
996.601
 20
3
 11
1002.66
 21
3
  0
LINE
  8
0
 10
1002.66
 20
3
 11
1002.66
 21
0
  0
LINE
  8
0
 10
1002.66
 20
0
 11
1008.72
 21
0
  0
LINE
  8
0
 10
1008.72
 20
0
 11
1008.72
 21
3
  0
LINE
  8
0
 10
1008.72
 20
3
 11
1014.77
 21
3
  0
LINE
  8
0
 10
1014.77
 20
3
 11
1014.77
 21
0
  0
LINE
  8
0
 10
1014.77
 20
0
 11
1020.83
 21
0
  0
LINE
  8
0
 10
1020.83
 20
0
 11
1020.83
 21
3
  0
LINE
  8
0
 10
1020.83
 20
3
 11
1026.89
 21
3
  0
LINE
  8
0
 10
1026.89
 20
3
 11
1026.89
 21
0
  0
LINE
  8
0
 10
1026.89
 20
0
 11
1032.94
 21
0
  0
LINE
  8
0
 10
1032.94
 20
0
 11
1032.94
 21
3
  0
LINE
  8
0
 10
1032.94
 20
3
 11
1039
 21
3
  0
LINE
  8
0
 10
1039
 20
3
 11
1039
 21
0
  0
LINE
  8
0
 10
1039
 20
0
 11
1045.06
 21
0
  0
LINE
  8
0
 10
1045.06
 20
0
 11
1045.06
 21
3
  0
LINE
  8
0
 10
1045.06
 20
3
 11
1051.12
 21
3
  0
LINE
  8
0
 10
1051.12
 20
3
 11
1051.12
 21
0
  0
LINE
  8
0
 10
1051.12
 20
0
 11
1057.17
 21
0
  0
LINE
  8
0
 10
1057.17
 20
0
 11
1057.17
 21
3
  0
LINE
  8
0
 10
1057.17
 20
3
 11
1063.23
 21
3
  0
LINE
  8
0
 10
1063.23
 20
3
 11
1063.23
 21
0
  0
LINE
  8
0
 10
1063.23
 20
0
 11
1069.29
 21
0
  0
LINE
  8
0
 10
1069.29
 20
0
 11
1069.29
 21
3
  0
LINE
  8
0
 10
1069.29
 20
3
 11
1075.34
 21
3
  0
LINE
  8
0
 10
1075.34
 20
3
 11
1075.34
 21
0
  0
LINE
  8
0
 10
1075.34
 20
0
 11
1081.4
 21
0
  0
LINE
  8
0
 10
1081.4
 20
0
 11
1081.4
 21
3
  0
LINE
  8
0
 10
1081.4
 20
3
 11
1087.46
 21
3
  0
LINE
  8
0
 10
1087.46
 20
3
 11
1087.46
 21
0
  0
LINE
  8
0
 10
1087.46
 20
0
 11
1093.52
 21
0
  0
LINE
  8
0
 10
1093.52
 20
0
 11
1093.52
 21
3
  0
LINE
  8
0
 10
1093.52
 20
3
 11
1099.57
 21
3
  0
LINE
  8
0
 10
1099.57
 20
3
 11
1099.57
 21
0
  0
LINE
  8
0
 10
1099.57
 20
0
 11
1105.63
 21
0
  0
LINE
  8
0
 10
1105.63
 20
0
 11
1105.63
 21
3
  0
LINE
  8
0
 10
1105.63
 20
3
 11
1111.69
 21
3
  0
LINE
  8
0
 10
1111.69
 20
3
 11
1111.69
 21
0
  0
LINE
  8
0
 10
1111.69
 20
0
 11
1117.74
 21
0
  0
LINE
  8
0
 10
1117.74
 20
0
 11
1117.74
 21
3
  0
LINE
  8
0
 10
1117.74
 20
3
 11
1123.8
 21
3
  0
LINE
  8
0
 10
1123.8
 20
3
 11
1123.8
 21
0
  0
LINE
  8
0
 10
1123.8
 20
0
 11
1129.86
 21
0
  0
LINE
  8
0
 10
1129.86
 20
0
 11
1129.86
 21
3
  0
LINE
  8
0
 10
1129.86
 20
3
 11
1135.92
 21
3
  0
LINE
  8
0
 10
1135.92
 20
3
 11
1135.92
 21
0
  0
LINE
  8
0
 10
1135.92
 20
0
 11
1141.97
 21
0
  0
LINE
  8
0
 10
1141.97
 20
0
 11
1141.97
 21
3
  0
LINE
  8
0
 10
1141.97
 20
3
 11
1148.03
 21
3
  0
LINE
  8
0
 10
1148.03
 20
3
 11
1148.03
 21
0
  0
LINE
  8
0
 10
1148.03
 20
0
 11
1157.03
 21
0
  0
LINE
  8
0
 10
1157.03
 20
0
 11
1157.03
 21
9
  0
LINE
  8
0
 10
1157.03
 20
9
 11
1160.03
 21
9
  0
LINE
  8
0
 10
1160.03
 20
9
 11
1160.03
 21
15.2758
  0
LINE
  8
0
 10
1160.03
 20
15.2758
 11
1157.03
 21
15.2758
  0
LINE
  8
0
 10
1157.03
 20
15.2758
 11
1157.03
 21
21.5517
  0
LINE
  8
0
 10
1157.03
 20
21.5517
 11
1160.03
 21
21.5517
  0
LINE
  8
0
 10
1160.03
 20
21.5517
 11
1160.03
 21
27.8276
  0
LINE
  8
0
 10
1160.03
 20
27.8276
 11
1157.03
 21
27.8276
  0
LINE
  8
0
 10
1157.03
 20
27.8276
 11
1157.03
 21
34.1034
  0
LINE
  8
0
 10
1157.03
 20
34.1034
 11
1160.03
 21
34.1034
  0
LINE
  8
0
 10
1160.03
 20
34.1034
 11
1160.03
 21
40.3793
  0
LINE
  8
0
 10
1160.03
 20
40.3793
 11
1157.03
 21
40.3793
  0
LINE
  8
0
 10
1157.03
 20
40.3793
 11
1157.03
 21
46.6552
  0
LINE
  8
0
 10
1157.03
 20
46.6552
 11
1160.03
 21
46.6552
  0
LINE
  8
0
 10
1160.03
 20
46.6552
 11
1160.03
 21
52.931
  0
LINE
  8
0
 10
1160.03
 20
52.931
 11
1157.03
 21
52.931
  0
LINE
  8
0
 10
1157.03
 20
52.931
 11
1157.03
 21
59.2069
  0
LINE
  8
0
 10
1157.03
 20
59.2069
 11
1160.03
 21
59.2069
  0
LINE
  8
0
 10
1160.03
 20
59.2069
 11
1160.03
 21
65.4828
  0
LINE
  8
0
 10
1160.03
 20
65.4828
 11
1157.03
 21
65.4828
  0
LINE
  8
0
 10
1157.03
 20
65.4828
 11
1157.03
 21
71.7586
  0
LINE
  8
0
 10
1157.03
 20
71.7586
 11
1160.03
 21
71.7586
  0
LINE
  8
0
 10
1160.03
 20
71.7586
 11
1160.03
 21
78.0345
  0
LINE
  8
0
 10
1160.03
 20
78.0345
 11
1157.03
 21
78.0345
  0
LINE
  8
0
 10
1157.03
 20
78.0345
 11
1157.03
 21
84.3103
  0
LINE
  8
0
 10
1157.03
 20
84.3103
 11
1160.03
 21
84.3103
  0
LINE
  8
0
 10
1160.03
 20
84.3103
 11
1160.03
 21
90.5862
  0
LINE
  8
0
 10
1160.03
 20
90.5862
 11
1157.03
 21
90.5862
  0
LINE
  8
0
 10
1157.03
 20
90.5862
 11
1157.03
 21
96.8621
  0
LINE
  8
0
 10
1157.03
 20
96.8621
 11
1160.03
 21
96.8621
  0
LINE
  8
0
 10
1160.03
 20
96.8621
 11
1160.03
 21
103.138
  0
LINE
  8
0
 10
1160.03
 20
103.138
 11
1157.03
 21
103.138
  0
LINE
  8
0
 10
1157.03
 20
103.138
 11
1157.03
 21
109.414
  0
LINE
  8
0
 10
1157.03
 20
109.414
 11
1160.03
 21
109.414
  0
LINE
  8
0
 10
1160.03
 20
109.414
 11
1160.03
 21
115.69
  0
LINE
  8
0
 10
1160.03
 20
115.69
 11
1157.03
 21
115.69
  0
LINE
  8
0
 10
1157.03
 20
115.69
 11
1157.03
 21
121.966
  0
LINE
  8
0
 10
1157.03
 20
121.966
 11
1160.03
 21
121.966
  0
LINE
  8
0
 10
1160.03
 20
121.966
 11
1160.03
 21
128.241
  0
LINE
  8
0
 10
1160.03
 20
128.241
 11
1157.03
 21
128.241
  0
LINE
  8
0
 10
1157.03
 20
128.241
 11
1157.03
 21
134.517
  0
LINE
  8
0
 10
1157.03
 20
134.517
 11
1160.03
 21
134.517
  0
LINE
  8
0
 10
1160.03
 20
134.517
 11
1160.03
 21
140.793
  0
LINE
  8
0
 10
1160.03
 20
140.793
 11
1157.03
 21
140.793
  0
LINE
  8
0
 10
1157.03
 20
140.793
 11
1157.03
 21
147.069
  0
LINE
  8
0
 10
1157.03
 20
147.069
 11
1160.03
 21
147.069
  0
LINE
  8
0
 10
1160.03
 20
147.069
 11
1160.03
 21
153.345
  0
LINE
  8
0
 10
1160.03
 20
153.345
 11
1157.03
 21
153.345
  0
LINE
  8
0
 10
1157.03
 20
153.345
 11
1157.03
 21
159.621
  0
LINE
  8
0
 10
1157.03
 20
159.621
 11
1160.03
 21
159.621
  0
LINE
  8
0
 10
1160.03
 20
159.621
 11
1160.03
 21
165.897
  0
LINE
  8
0
 10
1160.03
 20
165.897
 11
1157.03
 21
165.897
  0
LINE
  8
0
 10
1157.03
 20
165.897
 11
1157.03
 21
172.172
  0
LINE
  8
0
 10
1157.03
 20
172.172
 11
1160.03
 21
172.172
  0
LINE
  8
0
 10
1160.03
 20
172.172
 11
1160.03
 21
178.448
  0
LINE
  8
0
 10
1160.03
 20
178.448
 11
1157.03
 21
178.448
  0
LINE
  8
0
 10
1157.03
 20
178.448
 11
1157.03
 21
184.724
  0
LINE
  8
0
 10
1157.03
 20
184.724
 11
1160.03
 21
184.724
  0
LINE
  8
0
 10
1160.03
 20
184.724
 11
1160.03
 21
191
  0
LINE
  8
0
 10
1160.03
 20
191
 11
1157.03
 21
191
  0
LINE
  8
0
 10
1157.03
 20
191
 11
1157.03
 21
200
  0
LINE
  8
0
 10
1157.03
 20
200
 11
1148.03
 21
200
  0
LINE
  8
0
 10
1148.03
 20
200
 11
1148.03
 21
197
  0
LINE
  8
0
 10
1148.03
 20
197
 11
1141.97
 21
197
  0
LINE
  8
0
 10
1141.97
 20
197
 11
1141.97
 21
200
  0
LINE
  8
0
 10
1141.97
 20
200
 11
1135.92
 21
200
  0
LINE
  8
0
 10
1135.92
 20
200
 11
1135.92
 21
197
  0
LINE
  8
0
 10
1135.92
 20
197
 11
1129.86
 21
197
  0
LINE
  8
0
 10
1129.86
 20
197
 11
1129.86
 21
200
  0
LINE
  8
0
 10
1129.86
 20
200
 11
1123.8
 21
200
  0
LINE
  8
0
 10
1123.8
 20
200
 11
1123.8
 21
197
  0
LINE
  8
0
 10
1123.8
 20
197
 11
1117.74
 21
197
  0
LINE
  8
0
 10
1117.74
 20
197
 11
1117.74
 21
200
  0
LINE
  8
0
 10
1117.74
 20
200
 11
1111.69
 21
200
  0
LINE
  8
0
 10
1111.69
 20
200
 11
1111.69
 21
197
  0
LINE
  8
0
 10
1111.69
 20
197
 11
1105.63
 21
197
  0
LINE
  8
0
 10
1105.63
 20
197
 11
1105.63
 21
200
  0
LINE
  8
0
 10
1105.63
 20
200
 11
1099.57
 21
200
  0
LINE
  8
0
 10
1099.57
 20
200
 11
1099.57
 21
197
  0
LINE
  8
0
 10
1099.57
 20
197
 11
1093.52
 21
197
  0
LINE
  8
0
 10
1093.52
 20
197
 11
1093.52
 21
200
  0
LINE
  8
0
 10
1093.52
 20
200
 11
1087.46
 21
200
  0
LINE
  8
0
 10
1087.46
 20
200
 11
1087.46
 21
197
  0
LINE
  8
0
 10
1087.46
 20
197
 11
1081.4
 21
197
  0
LINE
  8
0
 10
1081.4
 20
197
 11
1081.4
 21
200
  0
LINE
  8
0
 10
1081.4
 20
200
 11
1075.34
 21
200
  0
LINE
  8
0
 10
1075.34
 20
200
 11
1075.34
 21
197
  0
LINE
  8
0
 10
1075.34
 20
197
 11
1069.29
 21
197
  0
LINE
  8
0
 10
1069.29
 20
197
 11
1069.29
 21
200
  0
LINE
  8
0
 10
1069.29
 20
200
 11
1063.23
 21
200
  0
LINE
  8
0
 10
1063.23
 20
200
 11
1063.23
 21
197
  0
LINE
  8
0
 10
1063.23
 20
197
 11
1057.17
 21
197
  0
LINE
  8
0
 10
1057.17
 20
197
 11
1057.17
 21
200
  0
LINE
  8
0
 10
1057.17
 20
200
 11
1051.12
 21
200
  0
LINE
  8
0
 10
1051.12
 20
200
 11
1051.12
 21
197
  0
LINE
  8
0
 10
1051.12
 20
197
 11
1045.06
 21
197
  0
LINE
  8
0
 10
1045.06
 20
197
 11
1045.06
 21
200
  0
LINE
  8
0
 10
1045.06
 20
200
 11
1039
 21
200
  0
LINE
  8
0
 10
1039
 20
200
 11
1039
 21
197
  0
LINE
  8
0
 10
1039
 20
197
 11
1032.94
 21
197
  0
LINE
  8
0
 10
1032.94
 20
197
 11
1032.94
 21
200
  0
LINE
  8
0
 10
1032.94
 20
200
 11
1026.89
 21
200
  0
LINE
  8
0
 10
1026.89
 20
200
 11
1026.89
 21
197
  0
LINE
  8
0
 10
1026.89
 20
197
 11
1020.83
 21
197
  0
LINE
  8
0
 10
1020.83
 20
197
 11
1020.83
 21
200
  0
LINE
  8
0
 10
1020.83
 20
200
 11
1014.77
 21
200
  0
LINE
  8
0
 10
1014.77
 20
200
 11
1014.77
 21
197
  0
LINE
  8
0
 10
1014.77
 20
197
 11
1008.72
 21
197
  0
LINE
  8
0
 10
1008.72
 20
197
 11
1008.72
 21
200
  0
LINE
  8
0
 10
1008.72
 20
200
 11
1002.66
 21
200
  0
LINE
  8
0
 10
1002.66
 20
200
 11
1002.66
 21
197
  0
LINE
  8
0
 10
1002.66
 20
197
 11
996.601
 21
197
  0
LINE
  8
0
 10
996.601
 20
197
 11
996.601
 21
200
  0
LINE
  8
0
 10
996.601
 20
200
 11
990.544
 21
200
  0
LINE
  8
0
 10
990.544
 20
200
 11
990.544
 21
197
  0
LINE
  8
0
 10
990.544
 20
197
 11
984.487
 21
197
  0
LINE
  8
0
 10
984.487
 20
197
 11
984.487
 21
200
  0
LINE
  8
0
 10
984.487
 20
200
 11
978.43
 21
200
  0
LINE
  8
0
 10
978.43
 20
200
 11
978.43
 21
197
  0
LINE
  8
0
 10
978.43
 20
197
 11
972.373
 21
197
  0
LINE
  8
0
 10
972.373
 20
197
 11
972.373
 21
200
  0
LINE
  8
0
 10
972.373
 20
200
 11
966.316
 21
200
  0
LINE
  8
0
 10
966.316
 20
200
 11
966.316
 21
197
  0
LINE
  8
0
 10
966.316
 20
197
 11
960.259
 21
197
  0
LINE
  8
0
 10
960.259
 20
197
 11
960.259
 21
200
  0
LINE
  8
0
 10
960.259
 20
200
 11
954.201
 21
200
  0
LINE
  8
0
 10
954.201
 20
200
 11
954.201
 21
197
  0
LINE
  8
0
 10
954.201
 20
197
 11
948.144
 21
197
  0
LINE
  8
0
 10
948.144
 20
197
 11
948.144
 21
200
  0
LINE
  8
0
 10
948.144
 20
200
 11
942.087
 21
200
  0
LINE
  8
0
 10
942.087
 20
200
 11
942.087
 21
197
  0
LINE
  8
0
 10
942.087
 20
197
 11
936.03
 21
197
  0
LINE
  8
0
 10
936.03
 20
197
 11
936.03
 21
200
  0
LINE
  8
0
 10
936.03
 20
200
 11
927.03
 21
200
  0
LINE
  8
0
 10
927.03
 20
200
 11
927.03
 21
191
  0
LINE
  8
0
 10
927.03
 20
191
 11
924.03
 21
191
  0
LINE
  8
0
 10
924.03
 20
191
 11
924.03
 21
184.724
  0
LINE
  8
0
 10
924.03
 20
184.724
 11
927.03
 21
184.724
  0
LINE
  8
0
 10
927.03
 20
184.724
 11
927.03
 21
178.448
  0
LINE
  8
0
 10
927.03
 20
178.448
 11
924.03
 21
178.448
  0
LINE
  8
0
 10
924.03
 20
178.448
 11
924.03
 21
172.172
  0
LINE
  8
0
 10
924.03
 20
172.172
 11
927.03
 21
172.172
  0
LINE
  8
0
 10
927.03
 20
172.172
 11
927.03
 21
165.897
  0
LINE
  8
0
 10
927.03
 20
165.897
 11
924.03
 21
165.897
  0
LINE
  8
0
 10
924.03
 20
165.897
 11
924.03
 21
159.621
  0
LINE
  8
0
 10
924.03
 20
159.621
 11
927.03
 21
159.621
  0
LINE
  8
0
 10
927.03
 20
159.621
 11
927.03
 21
153.345
  0
LINE
  8
0
 10
927.03
 20
153.345
 11
924.03
 21
153.345
  0
LINE
  8
0
 10
924.03
 20
153.345
 11
924.03
 21
147.069
  0
LINE
  8
0
 10
924.03
 20
147.069
 11
927.03
 21
147.069
  0
LINE
  8
0
 10
927.03
 20
147.069
 11
927.03
 21
140.793
  0
LINE
  8
0
 10
927.03
 20
140.793
 11
924.03
 21
140.793
  0
LINE
  8
0
 10
924.03
 20
140.793
 11
924.03
 21
134.517
  0
LINE
  8
0
 10
924.03
 20
134.517
 11
927.03
 21
134.517
  0
LINE
  8
0
 10
927.03
 20
134.517
 11
927.03
 21
128.241
  0
LINE
  8
0
 10
927.03
 20
128.241
 11
924.03
 21
128.241
  0
LINE
  8
0
 10
924.03
 20
128.241
 11
924.03
 21
121.966
  0
LINE
  8
0
 10
924.03
 20
121.966
 11
927.03
 21
121.966
  0
LINE
  8
0
 10
927.03
 20
121.966
 11
927.03
 21
115.69
  0
LINE
  8
0
 10
927.03
 20
115.69
 11
924.03
 21
115.69
  0
LINE
  8
0
 10
924.03
 20
115.69
 11
924.03
 21
109.414
  0
LINE
  8
0
 10
924.03
 20
109.414
 11
927.03
 21
109.414
  0
LINE
  8
0
 10
927.03
 20
109.414
 11
927.03
 21
103.138
  0
LINE
  8
0
 10
927.03
 20
103.138
 11
924.03
 21
103.138
  0
LINE
  8
0
 10
924.03
 20
103.138
 11
924.03
 21
96.8621
  0
LINE
  8
0
 10
924.03
 20
96.8621
 11
927.03
 21
96.8621
  0
LINE
  8
0
 10
927.03
 20
96.8621
 11
927.03
 21
90.5862
  0
LINE
  8
0
 10
927.03
 20
90.5862
 11
924.03
 21
90.5862
  0
LINE
  8
0
 10
924.03
 20
90.5862
 11
924.03
 21
84.3103
  0
LINE
  8
0
 10
924.03
 20
84.3103
 11
927.03
 21
84.3103
  0
LINE
  8
0
 10
927.03
 20
84.3103
 11
927.03
 21
78.0345
  0
LINE
  8
0
 10
927.03
 20
78.0345
 11
924.03
 21
78.0345
  0
LINE
  8
0
 10
924.03
 20
78.0345
 11
924.03
 21
71.7586
  0
LINE
  8
0
 10
924.03
 20
71.7586
 11
927.03
 21
71.7586
  0
LINE
  8
0
 10
927.03
 20
71.7586
 11
927.03
 21
65.4828
  0
LINE
  8
0
 10
927.03
 20
65.4828
 11
924.03
 21
65.4828
  0
LINE
  8
0
 10
924.03
 20
65.4828
 11
924.03
 21
59.2069
  0
LINE
  8
0
 10
924.03
 20
59.2069
 11
927.03
 21
59.2069
  0
LINE
  8
0
 10
927.03
 20
59.2069
 11
927.03
 21
52.931
  0
LINE
  8
0
 10
927.03
 20
52.931
 11
924.03
 21
52.931
  0
LINE
  8
0
 10
924.03
 20
52.931
 11
924.03
 21
46.6552
  0
LINE
  8
0
 10
924.03
 20
46.6552
 11
927.03
 21
46.6552
  0
LINE
  8
0
 10
927.03
 20
46.6552
 11
927.03
 21
40.3793
  0
LINE
  8
0
 10
927.03
 20
40.3793
 11
924.03
 21
40.3793
  0
LINE
  8
0
 10
924.03
 20
40.3793
 11
924.03
 21
34.1035
  0
LINE
  8
0
 10
924.03
 20
34.1035
 11
927.03
 21
34.1035
  0
LINE
  8
0
 10
927.03
 20
34.1035
 11
927.03
 21
27.8276
  0
LINE
  8
0
 10
927.03
 20
27.8276
 11
924.03
 21
27.8276
  0
LINE
  8
0
 10
924.03
 20
27.8276
 11
924.03
 21
21.5517
  0
LINE
  8
0
 10
924.03
 20
21.5517
 11
927.03
 21
21.5517
  0
LINE
  8
0
 10
927.03
 20
21.5517
 11
927.03
 21
15.2759
  0
LINE
  8
0
 10
927.03
 20
15.2759
 11
924.03
 21
15.2759
  0
LINE
  8
0
 10
924.03
 20
15.2759
 11
924.03
 21
9
  0
LINE
  8
0
 10
924.03
 20
9
 11
927.03
 21
9
  0
LINE
  8
0
 10
927.03
 20
9
 11
927.03
 21
0
  0
LINE
  8
0
 10
927.03
 20
0
 11
936.03
 21
0
  0
LINE
  8
0
 10
936.03
 20
0
 11
936.03
 21
3
  0
ENDSEC
  0
SECTION
  2
OBJECTS
  0
DICTIONARY
  0
ENDSEC
  0
EOF
