  0
SECTION
  2
BLOCKS
  0
ENDSEC
  0
SECTION
  2
ENTITIES
  0
LINE
  8
0
 10
48.3333
 20
203.01
 11
83.6667
 21
203.01
  0
LINE
  8
0
 10
83.6667
 20
203.01
 11
83.6667
 21
200.01
  0
LINE
  8
0
 10
83.6667
 20
200.01
 11
119
 21
200.01
  0
LINE
  8
0
 10
119
 20
200.01
 11
119
 21
203.01
  0
LINE
  8
0
 10
119
 20
203.01
 11
154.333
 21
203.01
  0
LINE
  8
0
 10
154.333
 20
203.01
 11
154.333
 21
200.01
  0
LINE
  8
0
 10
154.333
 20
200.01
 11
189.667
 21
200.01
  0
LINE
  8
0
 10
189.667
 20
200.01
 11
189.667
 21
203.01
  0
LINE
  8
0
 10
189.667
 20
203.01
 11
225
 21
203.01
  0
LINE
  8
0
 10
225
 20
203.01
 11
225
 21
200.01
  0
LINE
  8
0
 10
225
 20
200.01
 11
260.333
 21
200.01
  0
LINE
  8
0
 10
260.333
 20
200.01
 11
260.333
 21
203.01
  0
LINE
  8
0
 10
260.333
 20
203.01
 11
295.667
 21
203.01
  0
LINE
  8
0
 10
295.667
 20
203.01
 11
295.667
 21
200.01
  0
LINE
  8
0
 10
295.667
 20
200.01
 11
331
 21
200.01
  0
LINE
  8
0
 10
331
 20
200.01
 11
331
 21
203.01
  0
LINE
  8
0
 10
331
 20
203.01
 11
341
 21
203.01
  0
LINE
  8
0
 10
341
 20
203.01
 11
341
 21
216.01
  0
LINE
  8
0
 10
341
 20
216.01
 11
344
 21
216.01
  0
LINE
  8
0
 10
344
 20
216.01
 11
344
 21
256.81
  0
LINE
  8
0
 10
344
 20
256.81
 11
341
 21
256.81
  0
LINE
  8
0
 10
341
 20
256.81
 11
341
 21
297.61
  0
LINE
  8
0
 10
341
 20
297.61
 11
344
 21
297.61
  0
LINE
  8
0
 10
344
 20
297.61
 11
344
 21
338.41
  0
LINE
  8
0
 10
344
 20
338.41
 11
341
 21
338.41
  0
LINE
  8
0
 10
341
 20
338.41
 11
341
 21
379.21
  0
LINE
  8
0
 10
341
 20
379.21
 11
344
 21
379.21
  0
LINE
  8
0
 10
344
 20
379.21
 11
344
 21
420.01
  0
LINE
  8
0
 10
344
 20
420.01
 11
341
 21
420.01
  0
LINE
  8
0
 10
341
 20
420.01
 11
341
 21
433.01
  0
LINE
  8
0
 10
341
 20
433.01
 11
331
 21
433.01
  0
LINE
  8
0
 10
331
 20
433.01
 11
331
 21
436.01
  0
LINE
  8
0
 10
331
 20
436.01
 11
295.667
 21
436.01
  0
LINE
  8
0
 10
295.667
 20
436.01
 11
295.667
 21
433.01
  0
LINE
  8
0
 10
295.667
 20
433.01
 11
260.333
 21
433.01
  0
LINE
  8
0
 10
260.333
 20
433.01
 11
260.333
 21
436.01
  0
LINE
  8
0
 10
260.333
 20
436.01
 11
225
 21
436.01
  0
LINE
  8
0
 10
225
 20
436.01
 11
225
 21
433.01
  0
LINE
  8
0
 10
225
 20
433.01
 11
189.667
 21
433.01
  0
LINE
  8
0
 10
189.667
 20
433.01
 11
189.667
 21
436.01
  0
LINE
  8
0
 10
189.667
 20
436.01
 11
154.333
 21
436.01
  0
LINE
  8
0
 10
154.333
 20
436.01
 11
154.333
 21
433.01
  0
LINE
  8
0
 10
154.333
 20
433.01
 11
119
 21
433.01
  0
LINE
  8
0
 10
119
 20
433.01
 11
119
 21
436.01
  0
LINE
  8
0
 10
119
 20
436.01
 11
83.6667
 21
436.01
  0
LINE
  8
0
 10
83.6667
 20
436.01
 11
83.6667
 21
433.01
  0
LINE
  8
0
 10
83.6667
 20
433.01
 11
48.3333
 21
433.01
  0
LINE
  8
0
 10
48.3333
 20
433.01
 11
48.3333
 21
436.01
  0
LINE
  8
0
 10
48.3333
 20
436.01
 11
13
 21
436.01
  0
LINE
  8
0
 10
13
 20
436.01
 11
13
 21
433.01
  0
LINE
  8
0
 10
13
 20
433.01
 11
3
 21
433.01
  0
LINE
  8
0
 10
3
 20
433.01
 11
3
 21
420.01
  0
LINE
  8
0
 10
3
 20
420.01
 11
0
 21
420.01
  0
LINE
  8
0
 10
0
 20
420.01
 11
0
 21
379.21
  0
LINE
  8
0
 10
0
 20
379.21
 11
3
 21
379.21
  0
LINE
  8
0
 10
3
 20
379.21
 11
3
 21
338.41
  0
LINE
  8
0
 10
3
 20
338.41
 11
0
 21
338.41
  0
LINE
  8
0
 10
0
 20
338.41
 11
0
 21
297.61
  0
LINE
  8
0
 10
0
 20
297.61
 11
3
 21
297.61
  0
LINE
  8
0
 10
3
 20
297.61
 11
3
 21
256.81
  0
LINE
  8
0
 10
3
 20
256.81
 11
0
 21
256.81
  0
LINE
  8
0
 10
0
 20
256.81
 11
0
 21
216.01
  0
LINE
  8
0
 10
0
 20
216.01
 11
3
 21
216.01
  0
LINE
  8
0
 10
3
 20
216.01
 11
3
 21
203.01
  0
LINE
  8
0
 10
3
 20
203.01
 11
13
 21
203.01
  0
LINE
  8
0
 10
13
 20
203.01
 11
13
 21
200.01
  0
LINE
  8
0
 10
13
 20
200.01
 11
48.3333
 21
200.01
  0
LINE
  8
0
 10
48.3333
 20
200.01
 11
48.3333
 21
203.01
  0
LINE
  8
0
 10
275.401
 20
328.241
 11
266.403
 21
330.154
  0
LINE
  8
0
 10
266.403
 20
330.154
 11
258
 21
333.895
  0
LINE
  8
0
 10
258
 20
333.895
 11
250.558
 21
339.302
  0
LINE
  8
0
 10
250.558
 20
339.302
 11
244.403
 21
346.137
  0
LINE
  8
0
 10
244.403
 20
346.137
 11
239.804
 21
354.104
  0
LINE
  8
0
 10
239.804
 20
354.104
 11
236.962
 21
362.852
  0
LINE
  8
0
 10
236.962
 20
362.852
 11
236
 21
372
  0
LINE
  8
0
 10
236
 20
372
 11
236.962
 21
381.148
  0
LINE
  8
0
 10
236.962
 20
381.148
 11
239.804
 21
389.896
  0
LINE
  8
0
 10
239.804
 20
389.896
 11
244.403
 21
397.863
  0
LINE
  8
0
 10
244.403
 20
397.863
 11
250.558
 21
404.698
  0
LINE
  8
0
 10
250.558
 20
404.698
 11
258
 21
410.105
  0
LINE
  8
0
 10
258
 20
410.105
 11
266.403
 21
413.846
  0
LINE
  8
0
 10
266.403
 20
413.846
 11
275.401
 21
415.759
  0
LINE
  8
0
 10
275.401
 20
415.759
 11
284.599
 21
415.759
  0
LINE
  8
0
 10
284.599
 20
415.759
 11
293.597
 21
413.846
  0
LINE
  8
0
 10
293.597
 20
413.846
 11
302
 21
410.105
  0
LINE
  8
0
 10
302
 20
410.105
 11
309.442
 21
404.698
  0
LINE
  8
0
 10
309.442
 20
404.698
 11
315.597
 21
397.863
  0
LINE
  8
0
 10
315.597
 20
397.863
 11
320.196
 21
389.896
  0
LINE
  8
0
 10
320.196
 20
389.896
 11
323.038
 21
381.148
  0
LINE
  8
0
 10
323.038
 20
381.148
 11
324
 21
372
  0
LINE
  8
0
 10
324
 20
372
 11
323.038
 21
362.852
  0
LINE
  8
0
 10
323.038
 20
362.852
 11
320.196
 21
354.104
  0
LINE
  8
0
 10
320.196
 20
354.104
 11
315.597
 21
346.137
  0
LINE
  8
0
 10
315.597
 20
346.137
 11
309.442
 21
339.302
  0
LINE
  8
0
 10
309.442
 20
339.302
 11
302
 21
333.895
  0
LINE
  8
0
 10
302
 20
333.895
 11
293.597
 21
330.154
  0
LINE
  8
0
 10
293.597
 20
330.154
 11
284.599
 21
328.241
  0
LINE
  8
0
 10
284.599
 20
328.241
 11
275.401
 21
328.241
  0
LINE
  8
0
 10
59.4007
 20
328.241
 11
50.4032
 21
330.154
  0
LINE
  8
0
 10
50.4032
 20
330.154
 11
42
 21
333.895
  0
LINE
  8
0
 10
42
 20
333.895
 11
34.5582
 21
339.302
  0
LINE
  8
0
 10
34.5582
 20
339.302
 11
28.4032
 21
346.137
  0
LINE
  8
0
 10
28.4032
 20
346.137
 11
23.804
 21
354.104
  0
LINE
  8
0
 10
23.804
 20
354.104
 11
20.9615
 21
362.852
  0
LINE
  8
0
 10
20.9615
 20
362.852
 11
20
 21
372
  0
LINE
  8
0
 10
20
 20
372
 11
20.9615
 21
381.148
  0
LINE
  8
0
 10
20.9615
 20
381.148
 11
23.804
 21
389.896
  0
LINE
  8
0
 10
23.804
 20
389.896
 11
28.4032
 21
397.863
  0
LINE
  8
0
 10
28.4032
 20
397.863
 11
34.5582
 21
404.698
  0
LINE
  8
0
 10
34.5582
 20
404.698
 11
42
 21
410.105
  0
LINE
  8
0
 10
42
 20
410.105
 11
50.4032
 21
413.846
  0
LINE
  8
0
 10
50.4032
 20
413.846
 11
59.4007
 21
415.759
  0
LINE
  8
0
 10
59.4007
 20
415.759
 11
68.5992
 21
415.759
  0
LINE
  8
0
 10
68.5992
 20
415.759
 11
77.5967
 21
413.846
  0
LINE
  8
0
 10
77.5967
 20
413.846
 11
86
 21
410.105
  0
LINE
  8
0
 10
86
 20
410.105
 11
93.4417
 21
404.698
  0
LINE
  8
0
 10
93.4417
 20
404.698
 11
99.5967
 21
397.863
  0
LINE
  8
0
 10
99.5967
 20
397.863
 11
104.196
 21
389.896
  0
LINE
  8
0
 10
104.196
 20
389.896
 11
107.038
 21
381.148
  0
LINE
  8
0
 10
107.038
 20
381.148
 11
108
 21
372
  0
LINE
  8
0
 10
108
 20
372
 11
107.038
 21
362.852
  0
LINE
  8
0
 10
107.038
 20
362.852
 11
104.196
 21
354.104
  0
LINE
  8
0
 10
104.196
 20
354.104
 11
99.5967
 21
346.137
  0
LINE
  8
0
 10
99.5967
 20
346.137
 11
93.4417
 21
339.302
  0
LINE
  8
0
 10
93.4417
 20
339.302
 11
86
 21
333.895
  0
LINE
  8
0
 10
86
 20
333.895
 11
77.5967
 21
330.154
  0
LINE
  8
0
 10
77.5967
 20
330.154
 11
68.5992
 21
328.241
  0
LINE
  8
0
 10
68.5992
 20
328.241
 11
59.4007
 21
328.241
  0
LINE
  8
0
 10
167.401
 20
328.241
 11
158.403
 21
330.154
  0
LINE
  8
0
 10
158.403
 20
330.154
 11
150
 21
333.895
  0
LINE
  8
0
 10
150
 20
333.895
 11
142.558
 21
339.302
  0
LINE
  8
0
 10
142.558
 20
339.302
 11
136.403
 21
346.137
  0
LINE
  8
0
 10
136.403
 20
346.137
 11
131.804
 21
354.104
  0
LINE
  8
0
 10
131.804
 20
354.104
 11
128.962
 21
362.852
  0
LINE
  8
0
 10
128.962
 20
362.852
 11
128
 21
372
  0
LINE
  8
0
 10
128
 20
372
 11
128.962
 21
381.148
  0
LINE
  8
0
 10
128.962
 20
381.148
 11
131.804
 21
389.896
  0
LINE
  8
0
 10
131.804
 20
389.896
 11
136.403
 21
397.863
  0
LINE
  8
0
 10
136.403
 20
397.863
 11
142.558
 21
404.698
  0
LINE
  8
0
 10
142.558
 20
404.698
 11
150
 21
410.105
  0
LINE
  8
0
 10
150
 20
410.105
 11
158.403
 21
413.846
  0
LINE
  8
0
 10
158.403
 20
413.846
 11
167.401
 21
415.759
  0
LINE
  8
0
 10
167.401
 20
415.759
 11
176.599
 21
415.759
  0
LINE
  8
0
 10
176.599
 20
415.759
 11
185.597
 21
413.846
  0
LINE
  8
0
 10
185.597
 20
413.846
 11
194
 21
410.105
  0
LINE
  8
0
 10
194
 20
410.105
 11
201.442
 21
404.698
  0
LINE
  8
0
 10
201.442
 20
404.698
 11
207.597
 21
397.863
  0
LINE
  8
0
 10
207.597
 20
397.863
 11
212.196
 21
389.896
  0
LINE
  8
0
 10
212.196
 20
389.896
 11
215.038
 21
381.148
  0
LINE
  8
0
 10
215.038
 20
381.148
 11
216
 21
372
  0
LINE
  8
0
 10
216
 20
372
 11
215.038
 21
362.852
  0
LINE
  8
0
 10
215.038
 20
362.852
 11
212.196
 21
354.104
  0
LINE
  8
0
 10
212.196
 20
354.104
 11
207.597
 21
346.137
  0
LINE
  8
0
 10
207.597
 20
346.137
 11
201.442
 21
339.302
  0
LINE
  8
0
 10
201.442
 20
339.302
 11
194
 21
333.895
  0
LINE
  8
0
 10
194
 20
333.895
 11
185.597
 21
330.154
  0
LINE
  8
0
 10
185.597
 20
330.154
 11
176.599
 21
328.241
  0
LINE
  8
0
 10
176.599
 20
328.241
 11
167.401
 21
328.241
  0
LINE
  8
0
 10
167.401
 20
220.241
 11
158.403
 21
222.154
  0
LINE
  8
0
 10
158.403
 20
222.154
 11
150
 21
225.895
  0
LINE
  8
0
 10
150
 20
225.895
 11
142.558
 21
231.302
  0
LINE
  8
0
 10
142.558
 20
231.302
 11
136.403
 21
238.137
  0
LINE
  8
0
 10
136.403
 20
238.137
 11
131.804
 21
246.104
  0
LINE
  8
0
 10
131.804
 20
246.104
 11
128.962
 21
254.852
  0
LINE
  8
0
 10
128.962
 20
254.852
 11
128
 21
264
  0
LINE
  8
0
 10
128
 20
264
 11
128.962
 21
273.148
  0
LINE
  8
0
 10
128.962
 20
273.148
 11
131.804
 21
281.896
  0
LINE
  8
0
 10
131.804
 20
281.896
 11
136.403
 21
289.863
  0
LINE
  8
0
 10
136.403
 20
289.863
 11
142.558
 21
296.698
  0
LINE
  8
0
 10
142.558
 20
296.698
 11
150
 21
302.105
  0
LINE
  8
0
 10
150
 20
302.105
 11
158.403
 21
305.846
  0
LINE
  8
0
 10
158.403
 20
305.846
 11
167.401
 21
307.759
  0
LINE
  8
0
 10
167.401
 20
307.759
 11
176.599
 21
307.759
  0
LINE
  8
0
 10
176.599
 20
307.759
 11
185.597
 21
305.846
  0
LINE
  8
0
 10
185.597
 20
305.846
 11
194
 21
302.105
  0
LINE
  8
0
 10
194
 20
302.105
 11
201.442
 21
296.698
  0
LINE
  8
0
 10
201.442
 20
296.698
 11
207.597
 21
289.863
  0
LINE
  8
0
 10
207.597
 20
289.863
 11
212.196
 21
281.896
  0
LINE
  8
0
 10
212.196
 20
281.896
 11
215.038
 21
273.148
  0
LINE
  8
0
 10
215.038
 20
273.148
 11
216
 21
264
  0
LINE
  8
0
 10
216
 20
264
 11
215.038
 21
254.852
  0
LINE
  8
0
 10
215.038
 20
254.852
 11
212.196
 21
246.104
  0
LINE
  8
0
 10
212.196
 20
246.104
 11
207.597
 21
238.137
  0
LINE
  8
0
 10
207.597
 20
238.137
 11
201.442
 21
231.302
  0
LINE
  8
0
 10
201.442
 20
231.302
 11
194
 21
225.895
  0
LINE
  8
0
 10
194
 20
225.895
 11
185.597
 21
222.154
  0
LINE
  8
0
 10
185.597
 20
222.154
 11
176.599
 21
220.241
  0
LINE
  8
0
 10
176.599
 20
220.241
 11
167.401
 21
220.241
  0
LINE
  8
0
 10
275.401
 20
220.241
 11
266.403
 21
222.154
  0
LINE
  8
0
 10
266.403
 20
222.154
 11
258
 21
225.895
  0
LINE
  8
0
 10
258
 20
225.895
 11
250.558
 21
231.302
  0
LINE
  8
0
 10
250.558
 20
231.302
 11
244.403
 21
238.137
  0
LINE
  8
0
 10
244.403
 20
238.137
 11
239.804
 21
246.104
  0
LINE
  8
0
 10
239.804
 20
246.104
 11
236.962
 21
254.852
  0
LINE
  8
0
 10
236.962
 20
254.852
 11
236
 21
264
  0
LINE
  8
0
 10
236
 20
264
 11
236.962
 21
273.148
  0
LINE
  8
0
 10
236.962
 20
273.148
 11
239.804
 21
281.896
  0
LINE
  8
0
 10
239.804
 20
281.896
 11
244.403
 21
289.863
  0
LINE
  8
0
 10
244.403
 20
289.863
 11
250.558
 21
296.698
  0
LINE
  8
0
 10
250.558
 20
296.698
 11
258
 21
302.105
  0
LINE
  8
0
 10
258
 20
302.105
 11
266.403
 21
305.846
  0
LINE
  8
0
 10
266.403
 20
305.846
 11
275.401
 21
307.759
  0
LINE
  8
0
 10
275.401
 20
307.759
 11
284.599
 21
307.759
  0
LINE
  8
0
 10
284.599
 20
307.759
 11
293.597
 21
305.846
  0
LINE
  8
0
 10
293.597
 20
305.846
 11
302
 21
302.105
  0
LINE
  8
0
 10
302
 20
302.105
 11
309.442
 21
296.698
  0
LINE
  8
0
 10
309.442
 20
296.698
 11
315.597
 21
289.863
  0
LINE
  8
0
 10
315.597
 20
289.863
 11
320.196
 21
281.896
  0
LINE
  8
0
 10
320.196
 20
281.896
 11
323.038
 21
273.148
  0
LINE
  8
0
 10
323.038
 20
273.148
 11
324
 21
264
  0
LINE
  8
0
 10
324
 20
264
 11
323.038
 21
254.852
  0
LINE
  8
0
 10
323.038
 20
254.852
 11
320.196
 21
246.104
  0
LINE
  8
0
 10
320.196
 20
246.104
 11
315.597
 21
238.137
  0
LINE
  8
0
 10
315.597
 20
238.137
 11
309.442
 21
231.302
  0
LINE
  8
0
 10
309.442
 20
231.302
 11
302
 21
225.895
  0
LINE
  8
0
 10
302
 20
225.895
 11
293.597
 21
222.154
  0
LINE
  8
0
 10
293.597
 20
222.154
 11
284.599
 21
220.241
  0
LINE
  8
0
 10
284.599
 20
220.241
 11
275.401
 21
220.241
  0
LINE
  8
0
 10
59.4007
 20
220.241
 11
50.4032
 21
222.154
  0
LINE
  8
0
 10
50.4032
 20
222.154
 11
42
 21
225.895
  0
LINE
  8
0
 10
42
 20
225.895
 11
34.5582
 21
231.302
  0
LINE
  8
0
 10
34.5582
 20
231.302
 11
28.4032
 21
238.137
  0
LINE
  8
0
 10
28.4032
 20
238.137
 11
23.804
 21
246.104
  0
LINE
  8
0
 10
23.804
 20
246.104
 11
20.9615
 21
254.852
  0
LINE
  8
0
 10
20.9615
 20
254.852
 11
20
 21
264
  0
LINE
  8
0
 10
20
 20
264
 11
20.9615
 21
273.148
  0
LINE
  8
0
 10
20.9615
 20
273.148
 11
23.804
 21
281.896
  0
LINE
  8
0
 10
23.804
 20
281.896
 11
28.4032
 21
289.863
  0
LINE
  8
0
 10
28.4032
 20
289.863
 11
34.5582
 21
296.698
  0
LINE
  8
0
 10
34.5582
 20
296.698
 11
42
 21
302.105
  0
LINE
  8
0
 10
42
 20
302.105
 11
50.4032
 21
305.846
  0
LINE
  8
0
 10
50.4032
 20
305.846
 11
59.4007
 21
307.759
  0
LINE
  8
0
 10
59.4007
 20
307.759
 11
68.5992
 21
307.759
  0
LINE
  8
0
 10
68.5992
 20
307.759
 11
77.5967
 21
305.846
  0
LINE
  8
0
 10
77.5967
 20
305.846
 11
86
 21
302.105
  0
LINE
  8
0
 10
86
 20
302.105
 11
93.4417
 21
296.698
  0
LINE
  8
0
 10
93.4417
 20
296.698
 11
99.5967
 21
289.863
  0
LINE
  8
0
 10
99.5967
 20
289.863
 11
104.196
 21
281.896
  0
LINE
  8
0
 10
104.196
 20
281.896
 11
107.038
 21
273.148
  0
LINE
  8
0
 10
107.038
 20
273.148
 11
108
 21
264
  0
LINE
  8
0
 10
108
 20
264
 11
107.038
 21
254.852
  0
LINE
  8
0
 10
107.038
 20
254.852
 11
104.196
 21
246.104
  0
LINE
  8
0
 10
104.196
 20
246.104
 11
99.5967
 21
238.137
  0
LINE
  8
0
 10
99.5967
 20
238.137
 11
93.4417
 21
231.302
  0
LINE
  8
0
 10
93.4417
 20
231.302
 11
86
 21
225.895
  0
LINE
  8
0
 10
86
 20
225.895
 11
77.5967
 21
222.154
  0
LINE
  8
0
 10
77.5967
 20
222.154
 11
68.5992
 21
220.241
  0
LINE
  8
0
 10
68.5992
 20
220.241
 11
59.4007
 21
220.241
  0
LINE
  8
0
 10
392.343
 20
203.01
 11
427.677
 21
203.01
  0
LINE
  8
0
 10
427.677
 20
203.01
 11
427.677
 21
200.01
  0
LINE
  8
0
 10
427.677
 20
200.01
 11
463.01
 21
200.01
  0
LINE
  8
0
 10
463.01
 20
200.01
 11
463.01
 21
203.01
  0
LINE
  8
0
 10
463.01
 20
203.01
 11
498.343
 21
203.01
  0
LINE
  8
0
 10
498.343
 20
203.01
 11
498.343
 21
200.01
  0
LINE
  8
0
 10
498.343
 20
200.01
 11
533.677
 21
200.01
  0
LINE
  8
0
 10
533.677
 20
200.01
 11
533.677
 21
203.01
  0
LINE
  8
0
 10
533.677
 20
203.01
 11
569.01
 21
203.01
  0
LINE
  8
0
 10
569.01
 20
203.01
 11
569.01
 21
200.01
  0
LINE
  8
0
 10
569.01
 20
200.01
 11
604.343
 21
200.01
  0
LINE
  8
0
 10
604.343
 20
200.01
 11
604.343
 21
203.01
  0
LINE
  8
0
 10
604.343
 20
203.01
 11
639.677
 21
203.01
  0
LINE
  8
0
 10
639.677
 20
203.01
 11
639.677
 21
200.01
  0
LINE
  8
0
 10
639.677
 20
200.01
 11
675.01
 21
200.01
  0
LINE
  8
0
 10
675.01
 20
200.01
 11
675.01
 21
203.01
  0
LINE
  8
0
 10
675.01
 20
203.01
 11
685.01
 21
203.01
  0
LINE
  8
0
 10
685.01
 20
203.01
 11
685.01
 21
216.01
  0
LINE
  8
0
 10
685.01
 20
216.01
 11
688.01
 21
216.01
  0
LINE
  8
0
 10
688.01
 20
216.01
 11
688.01
 21
256.81
  0
LINE
  8
0
 10
688.01
 20
256.81
 11
685.01
 21
256.81
  0
LINE
  8
0
 10
685.01
 20
256.81
 11
685.01
 21
297.61
  0
LINE
  8
0
 10
685.01
 20
297.61
 11
688.01
 21
297.61
  0
LINE
  8
0
 10
688.01
 20
297.61
 11
688.01
 21
338.41
  0
LINE
  8
0
 10
688.01
 20
338.41
 11
685.01
 21
338.41
  0
LINE
  8
0
 10
685.01
 20
338.41
 11
685.01
 21
379.21
  0
LINE
  8
0
 10
685.01
 20
379.21
 11
688.01
 21
379.21
  0
LINE
  8
0
 10
688.01
 20
379.21
 11
688.01
 21
420.01
  0
LINE
  8
0
 10
688.01
 20
420.01
 11
685.01
 21
420.01
  0
LINE
  8
0
 10
685.01
 20
420.01
 11
685.01
 21
433.01
  0
LINE
  8
0
 10
685.01
 20
433.01
 11
675.01
 21
433.01
  0
LINE
  8
0
 10
675.01
 20
433.01
 11
675.01
 21
436.01
  0
LINE
  8
0
 10
675.01
 20
436.01
 11
639.677
 21
436.01
  0
LINE
  8
0
 10
639.677
 20
436.01
 11
639.677
 21
433.01
  0
LINE
  8
0
 10
639.677
 20
433.01
 11
604.343
 21
433.01
  0
LINE
  8
0
 10
604.343
 20
433.01
 11
604.343
 21
436.01
  0
LINE
  8
0
 10
604.343
 20
436.01
 11
569.01
 21
436.01
  0
LINE
  8
0
 10
569.01
 20
436.01
 11
569.01
 21
433.01
  0
LINE
  8
0
 10
569.01
 20
433.01
 11
533.677
 21
433.01
  0
LINE
  8
0
 10
533.677
 20
433.01
 11
533.677
 21
436.01
  0
LINE
  8
0
 10
533.677
 20
436.01
 11
498.343
 21
436.01
  0
LINE
  8
0
 10
498.343
 20
436.01
 11
498.343
 21
433.01
  0
LINE
  8
0
 10
498.343
 20
433.01
 11
463.01
 21
433.01
  0
LINE
  8
0
 10
463.01
 20
433.01
 11
463.01
 21
436.01
  0
LINE
  8
0
 10
463.01
 20
436.01
 11
427.677
 21
436.01
  0
LINE
  8
0
 10
427.677
 20
436.01
 11
427.677
 21
433.01
  0
LINE
  8
0
 10
427.677
 20
433.01
 11
392.343
 21
433.01
  0
LINE
  8
0
 10
392.343
 20
433.01
 11
392.343
 21
436.01
  0
LINE
  8
0
 10
392.343
 20
436.01
 11
357.01
 21
436.01
  0
LINE
  8
0
 10
357.01
 20
436.01
 11
357.01
 21
433.01
  0
LINE
  8
0
 10
357.01
 20
433.01
 11
347.01
 21
433.01
  0
LINE
  8
0
 10
347.01
 20
433.01
 11
347.01
 21
420.01
  0
LINE
  8
0
 10
347.01
 20
420.01
 11
344.01
 21
420.01
  0
LINE
  8
0
 10
344.01
 20
420.01
 11
344.01
 21
379.21
  0
LINE
  8
0
 10
344.01
 20
379.21
 11
347.01
 21
379.21
  0
LINE
  8
0
 10
347.01
 20
379.21
 11
347.01
 21
338.41
  0
LINE
  8
0
 10
347.01
 20
338.41
 11
344.01
 21
338.41
  0
LINE
  8
0
 10
344.01
 20
338.41
 11
344.01
 21
297.61
  0
LINE
  8
0
 10
344.01
 20
297.61
 11
347.01
 21
297.61
  0
LINE
  8
0
 10
347.01
 20
297.61
 11
347.01
 21
256.81
  0
LINE
  8
0
 10
347.01
 20
256.81
 11
344.01
 21
256.81
  0
LINE
  8
0
 10
344.01
 20
256.81
 11
344.01
 21
216.01
  0
LINE
  8
0
 10
344.01
 20
216.01
 11
347.01
 21
216.01
  0
LINE
  8
0
 10
347.01
 20
216.01
 11
347.01
 21
203.01
  0
LINE
  8
0
 10
347.01
 20
203.01
 11
357.01
 21
203.01
  0
LINE
  8
0
 10
357.01
 20
203.01
 11
357.01
 21
200.01
  0
LINE
  8
0
 10
357.01
 20
200.01
 11
392.343
 21
200.01
  0
LINE
  8
0
 10
392.343
 20
200.01
 11
392.343
 21
203.01
  0
LINE
  8
0
 10
357.01
 20
3
 11
392.343
 21
3
  0
LINE
  8
0
 10
392.343
 20
3
 11
392.343
 21
0
  0
LINE
  8
0
 10
392.343
 20
0
 11
427.677
 21
0
  0
LINE
  8
0
 10
427.677
 20
0
 11
427.677
 21
3
  0
LINE
  8
0
 10
427.677
 20
3
 11
463.01
 21
3
  0
LINE
  8
0
 10
463.01
 20
3
 11
463.01
 21
0
  0
LINE
  8
0
 10
463.01
 20
0
 11
498.343
 21
0
  0
LINE
  8
0
 10
498.343
 20
0
 11
498.343
 21
3
  0
LINE
  8
0
 10
498.343
 20
3
 11
533.677
 21
3
  0
LINE
  8
0
 10
533.677
 20
3
 11
533.677
 21
0
  0
LINE
  8
0
 10
533.677
 20
0
 11
569.01
 21
0
  0
LINE
  8
0
 10
569.01
 20
0
 11
569.01
 21
3
  0
LINE
  8
0
 10
569.01
 20
3
 11
604.343
 21
3
  0
LINE
  8
0
 10
604.343
 20
3
 11
604.343
 21
0
  0
LINE
  8
0
 10
604.343
 20
0
 11
639.677
 21
0
  0
LINE
  8
0
 10
639.677
 20
0
 11
639.677
 21
3
  0
LINE
  8
0
 10
639.677
 20
3
 11
675.01
 21
3
  0
LINE
  8
0
 10
675.01
 20
3
 11
675.01
 21
0
  0
LINE
  8
0
 10
675.01
 20
0
 11
688.01
 21
0
  0
LINE
  8
0
 10
688.01
 20
0
 11
688.01
 21
13
  0
LINE
  8
0
 10
688.01
 20
13
 11
685.01
 21
13
  0
LINE
  8
0
 10
685.01
 20
13
 11
685.01
 21
47.8
  0
LINE
  8
0
 10
685.01
 20
47.8
 11
688.01
 21
47.8
  0
LINE
  8
0
 10
688.01
 20
47.8
 11
688.01
 21
82.6
  0
LINE
  8
0
 10
688.01
 20
82.6
 11
685.01
 21
82.6
  0
LINE
  8
0
 10
685.01
 20
82.6
 11
685.01
 21
117.4
  0
LINE
  8
0
 10
685.01
 20
117.4
 11
688.01
 21
117.4
  0
LINE
  8
0
 10
688.01
 20
117.4
 11
688.01
 21
152.2
  0
LINE
  8
0
 10
688.01
 20
152.2
 11
685.01
 21
152.2
  0
LINE
  8
0
 10
685.01
 20
152.2
 11
685.01
 21
187
  0
LINE
  8
0
 10
685.01
 20
187
 11
688.01
 21
187
  0
LINE
  8
0
 10
688.01
 20
187
 11
688.01
 21
200
  0
LINE
  8
0
 10
688.01
 20
200
 11
675.01
 21
200
  0
LINE
  8
0
 10
675.01
 20
200
 11
675.01
 21
197
  0
LINE
  8
0
 10
675.01
 20
197
 11
639.677
 21
197
  0
LINE
  8
0
 10
639.677
 20
197
 11
639.677
 21
200
  0
LINE
  8
0
 10
639.677
 20
200
 11
604.343
 21
200
  0
LINE
  8
0
 10
604.343
 20
200
 11
604.343
 21
197
  0
LINE
  8
0
 10
604.343
 20
197
 11
569.01
 21
197
  0
LINE
  8
0
 10
569.01
 20
197
 11
569.01
 21
200
  0
LINE
  8
0
 10
569.01
 20
200
 11
533.677
 21
200
  0
LINE
  8
0
 10
533.677
 20
200
 11
533.677
 21
197
  0
LINE
  8
0
 10
533.677
 20
197
 11
498.343
 21
197
  0
LINE
  8
0
 10
498.343
 20
197
 11
498.343
 21
200
  0
LINE
  8
0
 10
498.343
 20
200
 11
463.01
 21
200
  0
LINE
  8
0
 10
463.01
 20
200
 11
463.01
 21
197
  0
LINE
  8
0
 10
463.01
 20
197
 11
427.677
 21
197
  0
LINE
  8
0
 10
427.677
 20
197
 11
427.677
 21
200
  0
LINE
  8
0
 10
427.677
 20
200
 11
392.343
 21
200
  0
LINE
  8
0
 10
392.343
 20
200
 11
392.343
 21
197
  0
LINE
  8
0
 10
392.343
 20
197
 11
357.01
 21
197
  0
LINE
  8
0
 10
357.01
 20
197
 11
357.01
 21
200
  0
LINE
  8
0
 10
357.01
 20
200
 11
344.01
 21
200
  0
LINE
  8
0
 10
344.01
 20
200
 11
344.01
 21
187
  0
LINE
  8
0
 10
344.01
 20
187
 11
347.01
 21
187
  0
LINE
  8
0
 10
347.01
 20
187
 11
347.01
 21
152.2
  0
LINE
  8
0
 10
347.01
 20
152.2
 11
344.01
 21
152.2
  0
LINE
  8
0
 10
344.01
 20
152.2
 11
344.01
 21
117.4
  0
LINE
  8
0
 10
344.01
 20
117.4
 11
347.01
 21
117.4
  0
LINE
  8
0
 10
347.01
 20
117.4
 11
347.01
 21
82.6
  0
LINE
  8
0
 10
347.01
 20
82.6
 11
344.01
 21
82.6
  0
LINE
  8
0
 10
344.01
 20
82.6
 11
344.01
 21
47.8
  0
LINE
  8
0
 10
344.01
 20
47.8
 11
347.01
 21
47.8
  0
LINE
  8
0
 10
347.01
 20
47.8
 11
347.01
 21
13
  0
LINE
  8
0
 10
347.01
 20
13
 11
344.01
 21
13
  0
LINE
  8
0
 10
344.01
 20
13
 11
344.01
 21
0
  0
LINE
  8
0
 10
344.01
 20
0
 11
357.01
 21
0
  0
LINE
  8
0
 10
357.01
 20
0
 11
357.01
 21
3
  0
LINE
  8
0
 10
381.909
 20
20.1096
 11
377.82
 21
20.9789
  0
LINE
  8
0
 10
377.82
 20
20.9789
 11
374
 21
22.6795
  0
LINE
  8
0
 10
374
 20
22.6795
 11
370.617
 21
25.1371
  0
LINE
  8
0
 10
370.617
 20
25.1371
 11
367.82
 21
28.2443
  0
LINE
  8
0
 10
367.82
 20
28.2443
 11
365.729
 21
31.8653
  0
LINE
  8
0
 10
365.729
 20
31.8653
 11
364.437
 21
35.8418
  0
LINE
  8
0
 10
364.437
 20
35.8418
 11
364
 21
40
  0
LINE
  8
0
 10
364
 20
40
 11
364
 21
160
  0
LINE
  8
0
 10
364
 20
160
 11
364.437
 21
164.158
  0
LINE
  8
0
 10
364.437
 20
164.158
 11
365.729
 21
168.135
  0
LINE
  8
0
 10
365.729
 20
168.135
 11
367.82
 21
171.756
  0
LINE
  8
0
 10
367.82
 20
171.756
 11
370.617
 21
174.863
  0
LINE
  8
0
 10
370.617
 20
174.863
 11
374
 21
177.32
  0
LINE
  8
0
 10
374
 20
177.32
 11
377.82
 21
179.021
  0
LINE
  8
0
 10
377.82
 20
179.021
 11
381.909
 21
179.89
  0
LINE
  8
0
 10
381.909
 20
179.89
 11
650.091
 21
179.89
  0
LINE
  8
0
 10
650.091
 20
179.89
 11
654.18
 21
179.021
  0
LINE
  8
0
 10
654.18
 20
179.021
 11
658
 21
177.32
  0
LINE
  8
0
 10
658
 20
177.32
 11
661.383
 21
174.863
  0
LINE
  8
0
 10
661.383
 20
174.863
 11
664.18
 21
171.756
  0
LINE
  8
0
 10
664.18
 20
171.756
 11
666.271
 21
168.135
  0
LINE
  8
0
 10
666.271
 20
168.135
 11
667.563
 21
164.158
  0
LINE
  8
0
 10
667.563
 20
164.158
 11
668
 21
160
  0
LINE
  8
0
 10
668
 20
160
 11
668
 21
40
  0
LINE
  8
0
 10
668
 20
40
 11
667.563
 21
35.8418
  0
LINE
  8
0
 10
667.563
 20
35.8418
 11
666.271
 21
31.8653
  0
LINE
  8
0
 10
666.271
 20
31.8653
 11
664.18
 21
28.2443
  0
LINE
  8
0
 10
664.18
 20
28.2443
 11
661.383
 21
25.1371
  0
LINE
  8
0
 10
661.383
 20
25.1371
 11
658
 21
22.6795
  0
LINE
  8
0
 10
658
 20
22.6795
 11
654.18
 21
20.9789
  0
LINE
  8
0
 10
654.18
 20
20.9789
 11
650.091
 21
20.1096
  0
LINE
  8
0
 10
650.091
 20
20.1096
 11
381.909
 21
20.1096
  0
LINE
  8
0
 10
940.03
 20
3
 11
980.83
 21
3
  0
LINE
  8
0
 10
980.83
 20
3
 11
980.83
 21
0
  0
LINE
  8
0
 10
980.83
 20
0
 11
1021.63
 21
0
  0
LINE
  8
0
 10
1021.63
 20
0
 11
1021.63
 21
3
  0
LINE
  8
0
 10
1021.63
 20
3
 11
1062.43
 21
3
  0
LINE
  8
0
 10
1062.43
 20
3
 11
1062.43
 21
0
  0
LINE
  8
0
 10
1062.43
 20
0
 11
1103.23
 21
0
  0
LINE
  8
0
 10
1103.23
 20
0
 11
1103.23
 21
3
  0
LINE
  8
0
 10
1103.23
 20
3
 11
1144.03
 21
3
  0
LINE
  8
0
 10
1144.03
 20
3
 11
1144.03
 21
0
  0
LINE
  8
0
 10
1144.03
 20
0
 11
1157.03
 21
0
  0
LINE
  8
0
 10
1157.03
 20
0
 11
1157.03
 21
13
  0
LINE
  8
0
 10
1157.03
 20
13
 11
1160.03
 21
13
  0
LINE
  8
0
 10
1160.03
 20
13
 11
1160.03
 21
47.8
  0
LINE
  8
0
 10
1160.03
 20
47.8
 11
1157.03
 21
47.8
  0
LINE
  8
0
 10
1157.03
 20
47.8
 11
1157.03
 21
82.6
  0
LINE
  8
0
 10
1157.03
 20
82.6
 11
1160.03
 21
82.6
  0
LINE
  8
0
 10
1160.03
 20
82.6
 11
1160.03
 21
117.4
  0
LINE
  8
0
 10
1160.03
 20
117.4
 11
1157.03
 21
117.4
  0
LINE
  8
0
 10
1157.03
 20
117.4
 11
1157.03
 21
152.2
  0
LINE
  8
0
 10
1157.03
 20
152.2
 11
1160.03
 21
152.2
  0
LINE
  8
0
 10
1160.03
 20
152.2
 11
1160.03
 21
187
  0
LINE
  8
0
 10
1160.03
 20
187
 11
1157.03
 21
187
  0
LINE
  8
0
 10
1157.03
 20
187
 11
1157.03
 21
200
  0
LINE
  8
0
 10
1157.03
 20
200
 11
1144.03
 21
200
  0
LINE
  8
0
 10
1144.03
 20
200
 11
1144.03
 21
197
  0
LINE
  8
0
 10
1144.03
 20
197
 11
1103.23
 21
197
  0
LINE
  8
0
 10
1103.23
 20
197
 11
1103.23
 21
200
  0
LINE
  8
0
 10
1103.23
 20
200
 11
1062.43
 21
200
  0
LINE
  8
0
 10
1062.43
 20
200
 11
1062.43
 21
197
  0
LINE
  8
0
 10
1062.43
 20
197
 11
1021.63
 21
197
  0
LINE
  8
0
 10
1021.63
 20
197
 11
1021.63
 21
200
  0
LINE
  8
0
 10
1021.63
 20
200
 11
980.83
 21
200
  0
LINE
  8
0
 10
980.83
 20
200
 11
980.83
 21
197
  0
LINE
  8
0
 10
980.83
 20
197
 11
940.03
 21
197
  0
LINE
  8
0
 10
940.03
 20
197
 11
940.03
 21
200
  0
LINE
  8
0
 10
940.03
 20
200
 11
927.03
 21
200
  0
LINE
  8
0
 10
927.03
 20
200
 11
927.03
 21
187
  0
LINE
  8
0
 10
927.03
 20
187
 11
924.03
 21
187
  0
LINE
  8
0
 10
924.03
 20
187
 11
924.03
 21
152.2
  0
LINE
  8
0
 10
924.03
 20
152.2
 11
927.03
 21
152.2
  0
LINE
  8
0
 10
927.03
 20
152.2
 11
927.03
 21
117.4
  0
LINE
  8
0
 10
927.03
 20
117.4
 11
924.03
 21
117.4
  0
LINE
  8
0
 10
924.03
 20
117.4
 11
924.03
 21
82.6
  0
LINE
  8
0
 10
924.03
 20
82.6
 11
927.03
 21
82.6
  0
LINE
  8
0
 10
927.03
 20
82.6
 11
927.03
 21
47.8
  0
LINE
  8
0
 10
927.03
 20
47.8
 11
924.03
 21
47.8
  0
LINE
  8
0
 10
924.03
 20
47.8
 11
924.03
 21
13
  0
LINE
  8
0
 10
924.03
 20
13
 11
927.03
 21
13
  0
LINE
  8
0
 10
927.03
 20
13
 11
927.03
 21
0
  0
LINE
  8
0
 10
927.03
 20
0
 11
940.03
 21
0
  0
LINE
  8
0
 10
940.03
 20
0
 11
940.03
 21
3
  0
LINE
  8
0
 10
13
 20
3
 11
48.3333
 21
3
  0
LINE
  8
0
 10
48.3333
 20
3
 11
48.3333
 21
0
  0
LINE
  8
0
 10
48.3333
 20
0
 11
83.6667
 21
0
  0
LINE
  8
0
 10
83.6667
 20
0
 11
83.6667
 21
3
  0
LINE
  8
0
 10
83.6667
 20
3
 11
119
 21
3
  0
LINE
  8
0
 10
119
 20
3
 11
119
 21
0
  0
LINE
  8
0
 10
119
 20
0
 11
154.333
 21
0
  0
LINE
  8
0
 10
154.333
 20
0
 11
154.333
 21
3
  0
LINE
  8
0
 10
154.333
 20
3
 11
189.667
 21
3
  0
LINE
  8
0
 10
189.667
 20
3
 11
189.667
 21
0
  0
LINE
  8
0
 10
189.667
 20
0
 11
225
 21
0
  0
LINE
  8
0
 10
225
 20
0
 11
225
 21
3
  0
LINE
  8
0
 10
225
 20
3
 11
260.333
 21
3
  0
LINE
  8
0
 10
260.333
 20
3
 11
260.333
 21
0
  0
LINE
  8
0
 10
260.333
 20
0
 11
295.667
 21
0
  0
LINE
  8
0
 10
295.667
 20
0
 11
295.667
 21
3
  0
LINE
  8
0
 10
295.667
 20
3
 11
331
 21
3
  0
LINE
  8
0
 10
331
 20
3
 11
331
 21
0
  0
LINE
  8
0
 10
331
 20
0
 11
344
 21
0
  0
LINE
  8
0
 10
344
 20
0
 11
344
 21
13
  0
LINE
  8
0
 10
344
 20
13
 11
341
 21
13
  0
LINE
  8
0
 10
341
 20
13
 11
341
 21
47.8
  0
LINE
  8
0
 10
341
 20
47.8
 11
344
 21
47.8
  0
LINE
  8
0
 10
344
 20
47.8
 11
344
 21
82.6
  0
LINE
  8
0
 10
344
 20
82.6
 11
341
 21
82.6
  0
LINE
  8
0
 10
341
 20
82.6
 11
341
 21
117.4
  0
LINE
  8
0
 10
341
 20
117.4
 11
344
 21
117.4
  0
LINE
  8
0
 10
344
 20
117.4
 11
344
 21
152.2
  0
LINE
  8
0
 10
344
 20
152.2
 11
341
 21
152.2
  0
LINE
  8
0
 10
341
 20
152.2
 11
341
 21
187
  0
LINE
  8
0
 10
341
 20
187
 11
344
 21
187
  0
LINE
  8
0
 10
344
 20
187
 11
344
 21
200
  0
LINE
  8
0
 10
344
 20
200
 11
331
 21
200
  0
LINE
  8
0
 10
331
 20
200
 11
331
 21
197
  0
LINE
  8
0
 10
331
 20
197
 11
295.667
 21
197
  0
LINE
  8
0
 10
295.667
 20
197
 11
295.667
 21
200
  0
LINE
  8
0
 10
295.667
 20
200
 11
260.333
 21
200
  0
LINE
  8
0
 10
260.333
 20
200
 11
260.333
 21
197
  0
LINE
  8
0
 10
260.333
 20
197
 11
225
 21
197
  0
LINE
  8
0
 10
225
 20
197
 11
225
 21
200
  0
LINE
  8
0
 10
225
 20
200
 11
189.667
 21
200
  0
LINE
  8
0
 10
189.667
 20
200
 11
189.667
 21
197
  0
LINE
  8
0
 10
189.667
 20
197
 11
154.333
 21
197
  0
LINE
  8
0
 10
154.333
 20
197
 11
154.333
 21
200
  0
LINE
  8
0
 10
154.333
 20
200
 11
119
 21
200
  0
LINE
  8
0
 10
119
 20
200
 11
119
 21
197
  0
LINE
  8
0
 10
119
 20
197
 11
83.6667
 21
197
  0
LINE
  8
0
 10
83.6667
 20
197
 11
83.6667
 21
200
  0
LINE
  8
0
 10
83.6667
 20
200
 11
48.3333
 21
200
  0
LINE
  8
0
 10
48.3333
 20
200
 11
48.3333
 21
197
  0
LINE
  8
0
 10
48.3333
 20
197
 11
13
 21
197
  0
LINE
  8
0
 10
13
 20
197
 11
13
 21
200
  0
LINE
  8
0
 10
13
 20
200
 11
0
 21
200
  0
LINE
  8
0
 10
0
 20
200
 11
0
 21
187
  0
LINE
  8
0
 10
0
 20
187
 11
3
 21
187
  0
LINE
  8
0
 10
3
 20
187
 11
3
 21
152.2
  0
LINE
  8
0
 10
3
 20
152.2
 11
0
 21
152.2
  0
LINE
  8
0
 10
0
 20
152.2
 11
0
 21
117.4
  0
LINE
  8
0
 10
0
 20
117.4
 11
3
 21
117.4
  0
LINE
  8
0
 10
3
 20
117.4
 11
3
 21
82.6
  0
LINE
  8
0
 10
3
 20
82.6
 11
0
 21
82.6
  0
LINE
  8
0
 10
0
 20
82.6
 11
0
 21
47.8
  0
LINE
  8
0
 10
0
 20
47.8
 11
3
 21
47.8
  0
LINE
  8
0
 10
3
 20
47.8
 11
3
 21
13
  0
LINE
  8
0
 10
3
 20
13
 11
0
 21
13
  0
LINE
  8
0
 10
0
 20
13
 11
0
 21
0
  0
LINE
  8
0
 10
0
 20
0
 11
13
 21
0
  0
LINE
  8
0
 10
13
 20
0
 11
13
 21
3
  0
LINE
  8
0
 10
37.9094
 20
20.1096
 11
33.8197
 21
20.9789
  0
LINE
  8
0
 10
33.8197
 20
20.9789
 11
30
 21
22.6795
  0
LINE
  8
0
 10
30
 20
22.6795
 11
26.6174
 21
25.1371
  0
LINE
  8
0
 10
26.6174
 20
25.1371
 11
23.8197
 21
28.2443
  0
LINE
  8
0
 10
23.8197
 20
28.2443
 11
21.7291
 21
31.8653
  0
LINE
  8
0
 10
21.7291
 20
31.8653
 11
20.437
 21
35.8418
  0
LINE
  8
0
 10
20.437
 20
35.8418
 11
20
 21
40
  0
LINE
  8
0
 10
20
 20
40
 11
20
 21
160
  0
LINE
  8
0
 10
20
 20
160
 11
20.437
 21
164.158
  0
LINE
  8
0
 10
20.437
 20
164.158
 11
21.7291
 21
168.135
  0
LINE
  8
0
 10
21.7291
 20
168.135
 11
23.8197
 21
171.756
  0
LINE
  8
0
 10
23.8197
 20
171.756
 11
26.6174
 21
174.863
  0
LINE
  8
0
 10
26.6174
 20
174.863
 11
30
 21
177.32
  0
LINE
  8
0
 10
30
 20
177.32
 11
33.8197
 21
179.021
  0
LINE
  8
0
 10
33.8197
 20
179.021
 11
37.9094
 21
179.89
  0
LINE
  8
0
 10
37.9094
 20
179.89
 11
306.091
 21
179.89
  0
LINE
  8
0
 10
306.091
 20
179.89
 11
310.18
 21
179.021
  0
LINE
  8
0
 10
310.18
 20
179.021
 11
314
 21
177.32
  0
LINE
  8
0
 10
314
 20
177.32
 11
317.383
 21
174.863
  0
LINE
  8
0
 10
317.383
 20
174.863
 11
320.18
 21
171.756
  0
LINE
  8
0
 10
320.18
 20
171.756
 11
322.271
 21
168.135
  0
LINE
  8
0
 10
322.271
 20
168.135
 11
323.563
 21
164.158
  0
LINE
  8
0
 10
323.563
 20
164.158
 11
324
 21
160
  0
LINE
  8
0
 10
324
 20
160
 11
324
 21
40
  0
LINE
  8
0
 10
324
 20
40
 11
323.563
 21
35.8418
  0
LINE
  8
0
 10
323.563
 20
35.8418
 11
322.271
 21
31.8653
  0
LINE
  8
0
 10
322.271
 20
31.8653
 11
320.18
 21
28.2443
  0
LINE
  8
0
 10
320.18
 20
28.2443
 11
317.383
 21
25.1371
  0
LINE
  8
0
 10
317.383
 20
25.1371
 11
314
 21
22.6795
  0
LINE
  8
0
 10
314
 20
22.6795
 11
310.18
 21
20.9789
  0
LINE
  8
0
 10
310.18
 20
20.9789
 11
306.091
 21
20.1096
  0
LINE
  8
0
 10
306.091
 20
20.1096
 11
37.9094
 21
20.1096
  0
LINE
  8
0
 10
704.02
 20
3
 11
744.82
 21
3
  0
LINE
  8
0
 10
744.82
 20
3
 11
744.82
 21
0
  0
LINE
  8
0
 10
744.82
 20
0
 11
785.62
 21
0
  0
LINE
  8
0
 10
785.62
 20
0
 11
785.62
 21
3
  0
LINE
  8
0
 10
785.62
 20
3
 11
826.42
 21
3
  0
LINE
  8
0
 10
826.42
 20
3
 11
826.42
 21
0
  0
LINE
  8
0
 10
826.42
 20
0
 11
867.22
 21
0
  0
LINE
  8
0
 10
867.22
 20
0
 11
867.22
 21
3
  0
LINE
  8
0
 10
867.22
 20
3
 11
908.02
 21
3
  0
LINE
  8
0
 10
908.02
 20
3
 11
908.02
 21
0
  0
LINE
  8
0
 10
908.02
 20
0
 11
921.02
 21
0
  0
LINE
  8
0
 10
921.02
 20
0
 11
921.02
 21
13
  0
LINE
  8
0
 10
921.02
 20
13
 11
924.02
 21
13
  0
LINE
  8
0
 10
924.02
 20
13
 11
924.02
 21
47.8
  0
LINE
  8
0
 10
924.02
 20
47.8
 11
921.02
 21
47.8
  0
LINE
  8
0
 10
921.02
 20
47.8
 11
921.02
 21
82.6
  0
LINE
  8
0
 10
921.02
 20
82.6
 11
924.02
 21
82.6
  0
LINE
  8
0
 10
924.02
 20
82.6
 11
924.02
 21
117.4
  0
LINE
  8
0
 10
924.02
 20
117.4
 11
921.02
 21
117.4
  0
LINE
  8
0
 10
921.02
 20
117.4
 11
921.02
 21
152.2
  0
LINE
  8
0
 10
921.02
 20
152.2
 11
924.02
 21
152.2
  0
LINE
  8
0
 10
924.02
 20
152.2
 11
924.02
 21
187
  0
LINE
  8
0
 10
924.02
 20
187
 11
921.02
 21
187
  0
LINE
  8
0
 10
921.02
 20
187
 11
921.02
 21
200
  0
LINE
  8
0
 10
921.02
 20
200
 11
908.02
 21
200
  0
LINE
  8
0
 10
908.02
 20
200
 11
908.02
 21
197
  0
LINE
  8
0
 10
908.02
 20
197
 11
867.22
 21
197
  0
LINE
  8
0
 10
867.22
 20
197
 11
867.22
 21
200
  0
LINE
  8
0
 10
867.22
 20
200
 11
826.42
 21
200
  0
LINE
  8
0
 10
826.42
 20
200
 11
826.42
 21
197
  0
LINE
  8
0
 10
826.42
 20
197
 11
785.62
 21
197
  0
LINE
  8
0
 10
785.62
 20
197
 11
785.62
 21
200
  0
LINE
  8
0
 10
785.62
 20
200
 11
744.82
 21
200
  0
LINE
  8
0
 10
744.82
 20
200
 11
744.82
 21
197
  0
LINE
  8
0
 10
744.82
 20
197
 11
704.02
 21
197
  0
LINE
  8
0
 10
704.02
 20
197
 11
704.02
 21
200
  0
LINE
  8
0
 10
704.02
 20
200
 11
691.02
 21
200
  0
LINE
  8
0
 10
691.02
 20
200
 11
691.02
 21
187
  0
LINE
  8
0
 10
691.02
 20
187
 11
688.02
 21
187
  0
LINE
  8
0
 10
688.02
 20
187
 11
688.02
 21
152.2
  0
LINE
  8
0
 10
688.02
 20
152.2
 11
691.02
 21
152.2
  0
LINE
  8
0
 10
691.02
 20
152.2
 11
691.02
 21
117.4
  0
LINE
  8
0
 10
691.02
 20
117.4
 11
688.02
 21
117.4
  0
LINE
  8
0
 10
688.02
 20
117.4
 11
688.02
 21
82.6
  0
LINE
  8
0
 10
688.02
 20
82.6
 11
691.02
 21
82.6
  0
LINE
  8
0
 10
691.02
 20
82.6
 11
691.02
 21
47.8
  0
LINE
  8
0
 10
691.02
 20
47.8
 11
688.02
 21
47.8
  0
LINE
  8
0
 10
688.02
 20
47.8
 11
688.02
 21
13
  0
LINE
  8
0
 10
688.02
 20
13
 11
691.02
 21
13
  0
LINE
  8
0
 10
691.02
 20
13
 11
691.02
 21
0
  0
LINE
  8
0
 10
691.02
 20
0
 11
704.02
 21
0
  0
LINE
  8
0
 10
704.02
 20
0
 11
704.02
 21
3
  0
ENDSEC
  0
SECTION
  2
OBJECTS
  0
DICTIONARY
  0
ENDSEC
  0
EOF
